<?xml version="1.0" encoding="UTF-8" standalone="no"?>
<!DOCTYPE svg PUBLIC "-//W3C//DTD SVG 1.1//EN" "http://www.w3.org/Graphics/SVG/1.1/DTD/svg11.dtd">
<svg xmlns="http://www.w3.org/2000/svg" version="1.1" viewBox="0.00 0.00 1254.00 1254.00">
<g stroke-width="2.00" fill="none" stroke-linecap="butt">
<path stroke="#056e32" vector-effect="non-scaling-stroke" d="
  M 903.68 246.91
  C 899.34 242.99 895.09 240.18 891.07 237.17
  Q 854.92 210.11 813.44 191.06
  Q 780.42 175.90 744.40 165.87
  Q 707.65 155.63 674.11 152.95
  Q 645.50 150.67 632.54 150.32
  C 586.92 149.09 542.18 155.30 498.24 167.96
  Q 470.80 175.87 445.32 186.79
  Q 351.38 227.06 281.74 303.77
  Q 239.90 349.85 211.68 404.92
  Q 195.30 436.88 185.21 465.75
  C 158.20 543.10 151.15 626.47 166.14 707.11
  C 172.29 740.15 181.51 772.30 194.29 803.07
  Q 200.10 817.07 202.85 822.93
  Q 232.96 887.17 280.12 939.86
  Q 282.60 942.63 294.93 955.40
  C 300.29 960.95 305.88 965.69 310.80 970.44
  Q 315.12 974.60 322.80 981.18
  Q 402.84 1049.71 504.95 1077.80
  Q 618.71 1109.10 733.94 1082.44
  Q 740.27 1080.98 763.04 1074.72
  Q 769.22 1073.03 771.52 1071.43
  C 776.55 1067.95 780.70 1062.50 780.71 1056.09
  Q 780.72 1053.51 777.97 1047.20
  Q 776.21 1043.15 772.50 1032.26
  C 769.52 1023.49 765.55 1018.52 755.82 1016.94
  C 753.84 1016.62 749.13 1018.48 745.77 1019.42
  Q 743.67 1020.01 724.31 1024.28
  Q 673.09 1035.58 619.49 1034.30
  Q 534.59 1032.29 457.59 996.88
  Q 365.46 954.52 303.17 873.58
  Q 269.15 829.36 247.82 776.20
  Q 218.46 703.02 218.25 623.85
  Q 218.22 611.27 218.61 601.65
  Q 219.04 590.91 220.30 579.51
  C 230.77 484.21 272.68 395.43 340.51 327.53
  C 403.31 264.65 487.96 223.28 576.76 212.83
  Q 610.60 208.85 649.81 211.19
  Q 656.27 211.57 673.25 213.27
  Q 682.16 214.15 705.30 218.74
  Q 757.83 229.16 806.78 254.76
  Q 831.92 267.90 852.48 282.04
  Q 859.31 286.74 860.94 287.93
  A 0.57 0.57 0.0 0 0 861.79 287.73
  Q 866.18 279.21 871.98 271.47
  Q 878.74 262.43 889.24 255.42
  C 893.00 252.92 897.47 251.00 901.77 248.43
  Q 902.00 248.29 902.75 248.13
  Q 903.44 247.98 903.64 247.82
  A 0.60 0.59 -43.0 0 0 903.68 246.91"
/>
<path stroke="#056e32" vector-effect="non-scaling-stroke" d="
  M 1007.19 333.98
  A 60.66 60.66 0.0 0 0 946.53 273.32
  A 60.66 60.66 0.0 0 0 885.87 333.98
  A 60.66 60.66 0.0 0 0 946.53 394.64
  A 60.66 60.66 0.0 0 0 1007.19 333.98"
/>
<path stroke="#81deaa" vector-effect="non-scaling-stroke" d="
  M 532.17 737.48
  L 594.98 737.48
  A 2.88 2.87 -20.1 0 1 597.17 738.49
  Q 635.32 783.57 674.88 831.62
  Q 685.20 844.17 703.47 867.85
  C 711.40 878.12 716.85 884.63 723.00 893.01
  A 2.07 2.06 71.7 0 0 724.66 893.85
  L 893.71 893.85
  A 0.48 0.48 0.0 0 0 894.16 893.21
  Q 893.18 890.50 891.17 887.67
  Q 888.81 884.34 877.03 869.31
  Q 822.69 799.95 772.25 739.47
  C 766.59 732.69 761.02 726.56 755.72 720.07
  A 0.48 0.47 63.4 0 1 755.97 719.31
  Q 763.97 717.24 773.78 713.73
  Q 795.16 706.10 814.07 693.09
  Q 828.42 683.23 843.04 666.27
  C 853.08 654.62 861.23 639.65 866.59 625.86
  C 878.79 594.44 882.03 558.86 878.26 525.73
  Q 875.28 499.51 867.03 478.11
  Q 843.52 417.05 787.72 387.71
  C 756.03 371.05 718.82 363.65 682.99 363.51
  Q 647.30 363.36 391.89 363.43
  A 0.64 0.64 0.0 0 0 391.25 364.07
  L 391.25 893.06
  A 0.79 0.79 0.0 0 0 392.04 893.85
  L 530.93 893.85
  A 0.73 0.73 0.0 0 0 531.66 893.12
  L 531.66 737.99
  A 0.51 0.51 0.0 0 1 532.17 737.48"
/>
<path stroke="#056e32" vector-effect="non-scaling-stroke" d="
  M 1030.89 386.28
  A 0.49 0.48 48.8 0 0 1030.02 386.22
  Q 1018.40 406.16 998.69 417.93
  C 993.60 420.97 990.48 422.69 985.61 424.35
  A 0.76 0.76 0.0 0 0 985.14 425.34
  C 987.60 431.94 991.57 438.20 994.38 444.13
  C 1006.02 468.73 1015.06 492.45 1022.27 519.50
  C 1033.22 560.64 1037.01 602.68 1034.90 644.51
  Q 1030.18 737.65 986.51 819.29
  C 958.76 871.18 919.33 916.67 872.74 952.48
  C 853.36 967.36 834.24 980.28 814.91 990.90
  Q 813.06 991.92 810.64 995.93
  Q 805.62 1004.24 809.78 1012.24
  C 812.49 1017.46 814.48 1022.53 817.21 1029.29
  C 820.07 1036.36 825.79 1042.81 833.72 1042.67
  Q 837.56 1042.60 846.58 1037.69
  Q 865.83 1027.24 880.35 1018.57
  Q 896.56 1008.89 912.40 996.78
  Q 998.15 931.20 1046.32 833.83
  C 1049.45 827.50 1051.96 821.17 1054.76 815.50
  Q 1057.25 810.48 1060.65 801.59
  Q 1069.33 778.90 1073.25 766.29
  Q 1084.61 729.71 1090.59 687.21
  Q 1093.24 668.39 1094.43 639.00
  Q 1096.11 597.51 1091.25 559.93
  C 1088.40 537.84 1083.34 514.73 1077.45 494.01
  Q 1067.72 459.80 1050.75 423.89
  C 1046.34 414.56 1040.72 404.90 1037.17 397.47
  C 1035.45 393.87 1032.55 390.32 1030.89 386.28"
/>
<path stroke="#81deaa" vector-effect="non-scaling-stroke" d="
  M 532.26 490.81
  A 0.60 0.60 0.0 0 0 531.66 491.41
  L 531.66 615.92
  A 0.40 0.39 0.0 0 0 532.06 616.31
  Q 630.13 616.43 665.26 616.18
  Q 684.00 616.04 700.22 610.96
  Q 711.03 607.57 718.95 601.68
  C 738.82 586.89 740.98 562.41 738.93 539.74
  Q 738.01 529.60 734.32 520.92
  C 723.08 494.45 693.90 490.84 668.50 490.80
  Q 629.18 490.74 532.26 490.81"
/>
</g>
<path fill="#02bd54" d="
  M 963.89 0.00
  Q 983.60 0.88 1002.78 5.32
  Q 1003.45 5.48 1007.81 6.44
  Q 1041.08 13.83 1071.02 28.22
  Q 1085.20 35.04 1089.11 37.44
  Q 1090.28 38.15 1090.57 38.45
  Q 1091.29 39.17 1092.24 39.32
  A 2.03 1.93 -23.8 0 1 1092.91 39.56
  Q 1099.74 43.70 1102.76 45.38
  C 1104.06 46.10 1105.37 47.43 1107.28 48.26
  C 1110.13 49.51 1112.50 52.38 1115.16 53.28
  A 1.77 1.73 78.1 0 1 1115.94 53.80
  Q 1117.69 55.83 1120.03 56.78
  A 2.85 2.65 73.7 0 1 1120.70 57.18
  Q 1124.31 60.11 1128.77 63.32
  C 1131.22 65.08 1133.72 67.87 1136.23 68.99
  A 2.66 2.50 -9.9 0 1 1136.96 69.47
  L 1144.53 76.76
  A 1.78 1.78 0.0 0 0 1145.38 77.22
  L 1146.09 77.37
  A 1.36 1.34 72.9 0 1 1146.78 77.74
  L 1176.24 107.02
  A 0.46 0.39 18.4 0 1 1176.35 107.20
  C 1177.35 110.39 1182.25 114.78 1184.97 117.26
  Q 1185.42 117.67 1186.13 119.24
  A 4.01 3.61 -79.8 0 0 1186.62 120.03
  Q 1202.15 138.88 1213.52 159.46
  Q 1213.76 159.91 1219.64 170.36
  A 3.65 3.61 23.6 0 1 1220.01 171.29
  Q 1220.20 172.10 1220.42 172.44
  Q 1224.15 178.29 1224.97 180.04
  Q 1233.70 198.72 1242.05 222.90
  Q 1243.48 227.04 1243.93 229.36
  Q 1244.38 231.62 1246.08 236.61
  A 10.16 9.55 33.2 0 1 1246.51 238.40
  Q 1247.17 243.31 1248.79 247.21
  A 1.28 1.20 -61.5 0 1 1248.86 247.48
  L 1252.08 268.51
  A 3.55 3.13 -63.2 0 0 1252.23 269.09
  L 1253.08 271.37
  A 1.10 1.07 37.3 0 1 1253.14 271.78
  Q 1252.80 276.77 1254.00 281.39
  L 1254.00 969.89
  Q 1252.36 992.78 1247.11 1014.14
  Q 1239.08 1046.81 1225.25 1075.76
  Q 1212.54 1102.35 1195.67 1125.16
  Q 1187.36 1136.41 1181.83 1142.47
  A 2.26 2.04 80.0 0 0 1181.46 1143.06
  C 1180.64 1144.98 1178.25 1147.50 1175.17 1150.68
  Q 1159.91 1166.41 1147.84 1178.16
  A 2.00 1.95 15.3 0 1 1146.94 1178.66
  Q 1146.71 1178.72 1146.63 1178.71
  A 0.85 0.84 -62.7 0 0 1145.92 1178.94
  L 1138.31 1186.37
  A 3.91 3.90 11.4 0 1 1137.15 1187.14
  C 1134.27 1188.38 1132.54 1190.82 1129.92 1192.75
  Q 1103.62 1212.17 1081.82 1223.04
  Q 1039.39 1244.22 992.02 1251.70
  C 984.80 1252.84 977.23 1253.39 969.79 1254.00
  L 285.12 1254.00
  Q 267.46 1252.85 250.13 1249.07
  Q 230.14 1244.72 217.06 1240.39
  Q 173.26 1225.92 133.21 1198.03
  Q 129.18 1195.23 126.96 1193.28
  A 4.99 4.84 77.5 0 0 125.94 1192.61
  C 123.22 1191.31 121.74 1188.92 119.01 1187.45
  A 8.24 8.02 -7.9 0 1 117.12 1186.06
  L 109.88 1178.97
  A 1.36 1.33 -22.1 0 0 108.93 1178.58
  L 108.02 1178.58
  A 0.42 0.41 65.7 0 1 107.74 1178.47
  L 77.47 1148.20
  A 1.28 1.18 -77.5 0 1 77.16 1147.67
  L 76.72 1146.17
  A 2.47 2.40 -75.8 0 0 76.12 1145.13
  C 73.71 1142.62 71.37 1140.55 69.17 1137.78
  Q 50.10 1113.82 35.34 1086.69
  Q 25.83 1069.23 18.33 1049.65
  C 15.48 1042.21 13.65 1036.01 10.17 1025.33
  Q 9.01 1021.75 6.05 1009.84
  Q 5.82 1008.91 5.59 1008.53
  A 2.80 2.74 -66.2 0 1 5.26 1007.65
  L 3.49 997.76
  A 1.11 0.89 40.9 0 1 3.46 997.62
  L 1.14 978.19
  A 1.20 1.17 -67.0 0 0 0.94 977.68
  Q 0.38 976.84 0.83 975.84
  A 1.53 1.50 -37.3 0 0 0.95 975.01
  L 0.00 968.25
  L 0.00 285.03
  C 0.38 282.13 0.42 279.07 0.98 276.38
  Q 1.62 273.28 1.82 270.21
  C 2.18 264.49 3.83 258.03 4.22 253.30
  C 4.40 251.00 5.71 248.68 5.68 246.27
  A 2.00 1.96 58.5 0 1 5.88 245.40
  Q 6.67 243.85 6.47 242.27
  A 1.28 1.23 -31.6 0 1 6.69 241.42
  Q 7.80 239.85 8.01 236.98
  A 0.72 0.72 0.0 0 0 7.36 236.20
  Q 7.34 236.20 6.93 236.18
  A 0.82 0.82 0.0 0 1 6.23 235.69
  Q 6.14 235.46 6.22 235.16
  A 0.33 0.33 0.0 0 1 6.81 235.06
  Q 7.36 235.87 7.86 235.78
  A 0.73 0.72 1.2 0 0 8.42 235.25
  Q 9.50 230.71 10.83 226.82
  Q 12.76 221.19 13.51 218.66
  Q 17.02 206.82 22.01 194.74
  Q 37.60 157.01 62.63 124.14
  Q 70.87 113.32 75.98 108.17
  A 2.01 1.99 70.2 0 0 76.54 106.97
  C 76.65 105.78 77.66 105.44 78.51 104.59
  Q 100.33 82.68 107.66 75.66
  Q 108.00 75.33 109.05 75.13
  A 1.67 1.65 16.3 0 0 109.92 74.66
  Q 113.62 70.75 123.74 62.98
  Q 147.34 44.88 171.30 32.78
  C 172.34 32.25 173.19 32.40 174.04 31.49
  A 1.97 1.93 13.0 0 1 174.94 30.94
  Q 176.75 30.42 178.02 29.39
  A 1.91 1.37 -68.4 0 1 178.33 29.19
  Q 229.58 4.53 286.40 0.00
  L 963.89 0.00
  Z
  M 903.68 246.91
  C 899.34 242.99 895.09 240.18 891.07 237.17
  Q 854.92 210.11 813.44 191.06
  Q 780.42 175.90 744.40 165.87
  Q 707.65 155.63 674.11 152.95
  Q 645.50 150.67 632.54 150.32
  C 586.92 149.09 542.18 155.30 498.24 167.96
  Q 470.80 175.87 445.32 186.79
  Q 351.38 227.06 281.74 303.77
  Q 239.90 349.85 211.68 404.92
  Q 195.30 436.88 185.21 465.75
  C 158.20 543.10 151.15 626.47 166.14 707.11
  C 172.29 740.15 181.51 772.30 194.29 803.07
  Q 200.10 817.07 202.85 822.93
  Q 232.96 887.17 280.12 939.86
  Q 282.60 942.63 294.93 955.40
  C 300.29 960.95 305.88 965.69 310.80 970.44
  Q 315.12 974.60 322.80 981.18
  Q 402.84 1049.71 504.95 1077.80
  Q 618.71 1109.10 733.94 1082.44
  Q 740.27 1080.98 763.04 1074.72
  Q 769.22 1073.03 771.52 1071.43
  C 776.55 1067.95 780.70 1062.50 780.71 1056.09
  Q 780.72 1053.51 777.97 1047.20
  Q 776.21 1043.15 772.50 1032.26
  C 769.52 1023.49 765.55 1018.52 755.82 1016.94
  C 753.84 1016.62 749.13 1018.48 745.77 1019.42
  Q 743.67 1020.01 724.31 1024.28
  Q 673.09 1035.58 619.49 1034.30
  Q 534.59 1032.29 457.59 996.88
  Q 365.46 954.52 303.17 873.58
  Q 269.15 829.36 247.82 776.20
  Q 218.46 703.02 218.25 623.85
  Q 218.22 611.27 218.61 601.65
  Q 219.04 590.91 220.30 579.51
  C 230.77 484.21 272.68 395.43 340.51 327.53
  C 403.31 264.65 487.96 223.28 576.76 212.83
  Q 610.60 208.85 649.81 211.19
  Q 656.27 211.57 673.25 213.27
  Q 682.16 214.15 705.30 218.74
  Q 757.83 229.16 806.78 254.76
  Q 831.92 267.90 852.48 282.04
  Q 859.31 286.74 860.94 287.93
  A 0.57 0.57 0.0 0 0 861.79 287.73
  Q 866.18 279.21 871.98 271.47
  Q 878.74 262.43 889.24 255.42
  C 893.00 252.92 897.47 251.00 901.77 248.43
  Q 902.00 248.29 902.75 248.13
  Q 903.44 247.98 903.64 247.82
  A 0.60 0.59 -43.0 0 0 903.68 246.91
  Z
  M 1007.19 333.98
  A 60.66 60.66 0.0 0 0 946.53 273.32
  A 60.66 60.66 0.0 0 0 885.87 333.98
  A 60.66 60.66 0.0 0 0 946.53 394.64
  A 60.66 60.66 0.0 0 0 1007.19 333.98
  Z
  M 532.17 737.48
  L 594.98 737.48
  A 2.88 2.87 -20.1 0 1 597.17 738.49
  Q 635.32 783.57 674.88 831.62
  Q 685.20 844.17 703.47 867.85
  C 711.40 878.12 716.85 884.63 723.00 893.01
  A 2.07 2.06 71.7 0 0 724.66 893.85
  L 893.71 893.85
  A 0.48 0.48 0.0 0 0 894.16 893.21
  Q 893.18 890.50 891.17 887.67
  Q 888.81 884.34 877.03 869.31
  Q 822.69 799.95 772.25 739.47
  C 766.59 732.69 761.02 726.56 755.72 720.07
  A 0.48 0.47 63.4 0 1 755.97 719.31
  Q 763.97 717.24 773.78 713.73
  Q 795.16 706.10 814.07 693.09
  Q 828.42 683.23 843.04 666.27
  C 853.08 654.62 861.23 639.65 866.59 625.86
  C 878.79 594.44 882.03 558.86 878.26 525.73
  Q 875.28 499.51 867.03 478.11
  Q 843.52 417.05 787.72 387.71
  C 756.03 371.05 718.82 363.65 682.99 363.51
  Q 647.30 363.36 391.89 363.43
  A 0.64 0.64 0.0 0 0 391.25 364.07
  L 391.25 893.06
  A 0.79 0.79 0.0 0 0 392.04 893.85
  L 530.93 893.85
  A 0.73 0.73 0.0 0 0 531.66 893.12
  L 531.66 737.99
  A 0.51 0.51 0.0 0 1 532.17 737.48
  Z
  M 1030.89 386.28
  A 0.49 0.48 48.8 0 0 1030.02 386.22
  Q 1018.40 406.16 998.69 417.93
  C 993.60 420.97 990.48 422.69 985.61 424.35
  A 0.76 0.76 0.0 0 0 985.14 425.34
  C 987.60 431.94 991.57 438.20 994.38 444.13
  C 1006.02 468.73 1015.06 492.45 1022.27 519.50
  C 1033.22 560.64 1037.01 602.68 1034.90 644.51
  Q 1030.18 737.65 986.51 819.29
  C 958.76 871.18 919.33 916.67 872.74 952.48
  C 853.36 967.36 834.24 980.28 814.91 990.90
  Q 813.06 991.92 810.64 995.93
  Q 805.62 1004.24 809.78 1012.24
  C 812.49 1017.46 814.48 1022.53 817.21 1029.29
  C 820.07 1036.36 825.79 1042.81 833.72 1042.67
  Q 837.56 1042.60 846.58 1037.69
  Q 865.83 1027.24 880.35 1018.57
  Q 896.56 1008.89 912.40 996.78
  Q 998.15 931.20 1046.32 833.83
  C 1049.45 827.50 1051.96 821.17 1054.76 815.50
  Q 1057.25 810.48 1060.65 801.59
  Q 1069.33 778.90 1073.25 766.29
  Q 1084.61 729.71 1090.59 687.21
  Q 1093.24 668.39 1094.43 639.00
  Q 1096.11 597.51 1091.25 559.93
  C 1088.40 537.84 1083.34 514.73 1077.45 494.01
  Q 1067.72 459.80 1050.75 423.89
  C 1046.34 414.56 1040.72 404.90 1037.17 397.47
  C 1035.45 393.87 1032.55 390.32 1030.89 386.28
  Z"
/>
<path fill="#071f10" d="
  M 903.64 247.82
  Q 903.44 247.98 902.75 248.13
  Q 902.00 248.29 901.77 248.43
  C 897.47 251.00 893.00 252.92 889.24 255.42
  Q 878.74 262.43 871.98 271.47
  Q 866.18 279.21 861.79 287.73
  A 0.57 0.57 0.0 0 1 860.94 287.93
  Q 859.31 286.74 852.48 282.04
  Q 831.92 267.90 806.78 254.76
  Q 757.83 229.16 705.30 218.74
  Q 682.16 214.15 673.25 213.27
  Q 656.27 211.57 649.81 211.19
  Q 610.60 208.85 576.76 212.83
  C 487.96 223.28 403.31 264.65 340.51 327.53
  C 272.68 395.43 230.77 484.21 220.30 579.51
  Q 219.04 590.91 218.61 601.65
  Q 218.22 611.27 218.25 623.85
  Q 218.46 703.02 247.82 776.20
  Q 269.15 829.36 303.17 873.58
  Q 365.46 954.52 457.59 996.88
  Q 534.59 1032.29 619.49 1034.30
  Q 673.09 1035.58 724.31 1024.28
  Q 743.67 1020.01 745.77 1019.42
  C 749.13 1018.48 753.84 1016.62 755.82 1016.94
  C 765.55 1018.52 769.52 1023.49 772.50 1032.26
  Q 776.21 1043.15 777.97 1047.20
  Q 780.72 1053.51 780.71 1056.09
  C 780.70 1062.50 776.55 1067.95 771.52 1071.43
  Q 769.22 1073.03 763.04 1074.72
  Q 740.27 1080.98 733.94 1082.44
  Q 618.71 1109.10 504.95 1077.80
  Q 402.84 1049.71 322.80 981.18
  Q 315.12 974.60 310.80 970.44
  C 305.88 965.69 300.29 960.95 294.93 955.40
  Q 282.60 942.63 280.12 939.86
  Q 232.96 887.17 202.85 822.93
  Q 200.10 817.07 194.29 803.07
  C 181.51 772.30 172.29 740.15 166.14 707.11
  C 151.15 626.47 158.20 543.10 185.21 465.75
  Q 195.30 436.88 211.68 404.92
  Q 239.90 349.85 281.74 303.77
  Q 351.38 227.06 445.32 186.79
  Q 470.80 175.87 498.24 167.96
  C 542.18 155.30 586.92 149.09 632.54 150.32
  Q 645.50 150.67 674.11 152.95
  Q 707.65 155.63 744.40 165.87
  Q 780.42 175.90 813.44 191.06
  Q 854.92 210.11 891.07 237.17
  C 895.09 240.18 899.34 242.99 903.68 246.91
  A 0.60 0.59 -43.0 0 1 903.64 247.82
  Z"
/>
<ellipse fill="#02bd54" cx="0.00" cy="0.00" transform="translate(9.66,223.60) rotate(-66.6)" rx="2.46" ry="0.57"/>
<path fill="#071f10" d="
  M 4.72 243.03
  Q 4.99 244.04 4.80 244.60
  A 0.33 0.33 0.0 0 1 4.16 244.51
  Q 4.13 243.26 4.28 242.98
  A 0.24 0.24 0.0 0 1 4.72 243.03
  Z"
/>
<path fill="#071f10" d="
  M 3.31 247.92
  Q 3.18 247.70 3.22 247.34
  A 0.38 0.38 0.0 0 1 3.89 247.12
  Q 3.94 247.18 3.86 247.80
  A 0.30 0.30 0.0 0 1 3.31 247.92
  Z"
/>
<circle fill="#071f10" cx="946.53" cy="333.98" r="60.66"/>
<path fill="#ffffff" d="
  M 532.17 737.48
  A 0.51 0.51 0.0 0 0 531.66 737.99
  L 531.66 893.12
  A 0.73 0.73 0.0 0 1 530.93 893.85
  L 392.04 893.85
  A 0.79 0.79 0.0 0 1 391.25 893.06
  L 391.25 364.07
  A 0.64 0.64 0.0 0 1 391.89 363.43
  Q 647.30 363.36 682.99 363.51
  C 718.82 363.65 756.03 371.05 787.72 387.71
  Q 843.52 417.05 867.03 478.11
  Q 875.28 499.51 878.26 525.73
  C 882.03 558.86 878.79 594.44 866.59 625.86
  C 861.23 639.65 853.08 654.62 843.04 666.27
  Q 828.42 683.23 814.07 693.09
  Q 795.16 706.10 773.78 713.73
  Q 763.97 717.24 755.97 719.31
  A 0.48 0.47 63.4 0 0 755.72 720.07
  C 761.02 726.56 766.59 732.69 772.25 739.47
  Q 822.69 799.95 877.03 869.31
  Q 888.81 884.34 891.17 887.67
  Q 893.18 890.50 894.16 893.21
  A 0.48 0.48 0.0 0 1 893.71 893.85
  L 724.66 893.85
  A 2.07 2.06 71.7 0 1 723.00 893.01
  C 716.85 884.63 711.40 878.12 703.47 867.85
  Q 685.20 844.17 674.88 831.62
  Q 635.32 783.57 597.17 738.49
  A 2.88 2.87 -20.1 0 0 594.98 737.48
  L 532.17 737.48
  Z
  M 532.26 490.81
  A 0.60 0.60 0.0 0 0 531.66 491.41
  L 531.66 615.92
  A 0.40 0.39 0.0 0 0 532.06 616.31
  Q 630.13 616.43 665.26 616.18
  Q 684.00 616.04 700.22 610.96
  Q 711.03 607.57 718.95 601.68
  C 738.82 586.89 740.98 562.41 738.93 539.74
  Q 738.01 529.60 734.32 520.92
  C 723.08 494.45 693.90 490.84 668.50 490.80
  Q 629.18 490.74 532.26 490.81
  Z"
/>
<path fill="#071f10" d="
  M 1030.89 386.28
  C 1032.55 390.32 1035.45 393.87 1037.17 397.47
  C 1040.72 404.90 1046.34 414.56 1050.75 423.89
  Q 1067.72 459.80 1077.45 494.01
  C 1083.34 514.73 1088.40 537.84 1091.25 559.93
  Q 1096.11 597.51 1094.43 639.00
  Q 1093.24 668.39 1090.59 687.21
  Q 1084.61 729.71 1073.25 766.29
  Q 1069.33 778.90 1060.65 801.59
  Q 1057.25 810.48 1054.76 815.50
  C 1051.96 821.17 1049.45 827.50 1046.32 833.83
  Q 998.15 931.20 912.40 996.78
  Q 896.56 1008.89 880.35 1018.57
  Q 865.83 1027.24 846.58 1037.69
  Q 837.56 1042.60 833.72 1042.67
  C 825.79 1042.81 820.07 1036.36 817.21 1029.29
  C 814.48 1022.53 812.49 1017.46 809.78 1012.24
  Q 805.62 1004.24 810.64 995.93
  Q 813.06 991.92 814.91 990.90
  C 834.24 980.28 853.36 967.36 872.74 952.48
  C 919.33 916.67 958.76 871.18 986.51 819.29
  Q 1030.18 737.65 1034.90 644.51
  C 1037.01 602.68 1033.22 560.64 1022.27 519.50
  C 1015.06 492.45 1006.02 468.73 994.38 444.13
  C 991.57 438.20 987.60 431.94 985.14 425.34
  A 0.76 0.76 0.0 0 1 985.61 424.35
  C 990.48 422.69 993.60 420.97 998.69 417.93
  Q 1018.40 406.16 1030.02 386.22
  A 0.49 0.48 48.8 0 1 1030.89 386.28
  Z"
/>
<path fill="#02bd54" d="
  M 532.26 490.81
  Q 629.18 490.74 668.50 490.80
  C 693.90 490.84 723.08 494.45 734.32 520.92
  Q 738.01 529.60 738.93 539.74
  C 740.98 562.41 738.82 586.89 718.95 601.68
  Q 711.03 607.57 700.22 610.96
  Q 684.00 616.04 665.26 616.18
  Q 630.13 616.43 532.06 616.31
  A 0.40 0.39 0.0 0 1 531.66 615.92
  L 531.66 491.41
  A 0.60 0.60 0.0 0 1 532.26 490.81
  Z"
/>
</svg>
