<svg xmlns="http://www.w3.org/2000/svg" viewBox="0 0 1024 1024"><path fill="#010101" d="M196.7 166.8a.3.3 0 0 1-.4-.2l-3.4-18.9.4-.6q1.7-.5 8.7-1.4 36.7-5 44-6.3l34.7-6.2q22.2-4.3 46-10.3 49.3-12.6 92-29.4 46.8-18.6 90.8-41.2a2 2 0 0 1 2 0q9.4 4.9 20.7 10.2 19.9 9.4 33 15c31 12.9 61.3 25 90.6 34.3q20.3 6.5 47.8 13.3 58.4 14.5 116.3 20.3l1.6.3 1.6.2q3.1 0 4 .4a2 2 0 0 1 1 2.1q-2.8 10-3.4 17.4a1.3 1.3 0 0 1-1.6 1.1l-4.2-.7q-93.7-10.6-180.6-39.3-65-21.4-125.6-51.6a2 2-46.3 0 0-2 0q-2.4 1.4-5.3 2.8-18.4 8.7-35.2 16.1-46.2 20.4-86.2 33.2-35.1 11.2-69.5 19.5-17.2 4.2-37 8-19.6 4-37.2 6.5-19.3 2.7-43.6 5.4m2.3-1.6q5.7-.9 10.4-1.3c3.4-.2 6.8-1.2 9.3-1.5q18.9-2 31.3-4 11.4-1.7 23.1-4.2c6.7-1.4 14.2-2.5 19.4-3.8 3-.8 5.6-1 8.2-1.7q23.3-5.6 33.1-8.4l10.8-3 9-2.4q49.8-14 97.4-34.2l30-13c7-3.2 13.8-6.6 21.5-10 2.7-1.3 5.6-3 8-4a4 4 0 0 1 3.6.3q1.7 1.3 3.1 1.8c6 2.3 11.5 5.4 17.3 8l10.2 4.6c5.5 2.3 10.7 5.2 16.3 7.3q5.6 2.2 10.4 4.4 7.3 3.3 10.3 4.4 4 1.4 16.3 6.2 22.1 8.7 49.5 17.3l22.5 7q6.4 2 10.8 3c8.7 2 15.5 4.2 24 6.1l13 3.2q8.4 2.1 25.6 5.5l25.3 4.7q11.6 2.2 19.3 3.2l19.5 2.5q5.3.7 6.9.7l7.2 1.4a1.5 1.5 0 0 0 1.8-1.3q.6-7.7 3.1-14.7a1.3 1.3 12.6 0 0-1-1.8q-17.1-1.7-34-4-5.8-1-11-1.6c-5.1-.5-9.3-1.6-14-2.2q-5.2-.6-5.7-.8c-3-1-6.9-1.2-9.9-1.8q-7.4-1.6-17.8-3.5-2.8-.5-14.8-3.4l-5.6-1.1q-5.3-1.5-10.5-2.5-6-1.2-10.2-2.7l-10.2-2.8q-9.7-2.6-34-10.1-4-1.2-24.9-8.8-12.8-4.6-24.6-9.4l-25.6-10.5q-17.4-7.2-25.4-10.9-11.4-5.2-32.5-15.7-4.4-2.2-8.4 0c-11.8 6.2-22.5 11-34.2 16.7q-8 4-19.9 8.9-19.6 8.2-38.8 16-9.4 3.8-18.3 6.8l-6.6 2.3q-30 10.4-67.7 19.5l-7.3 2-7.4 1.8q-28.7 6.2-62.4 11.6-26.7 4.3-46.1 6.4-4 .4-2.7 4.3 1.6 5.4 2 11.5a2 2 0 0 0 2 1.7"/><path fill="#1f211f" d="M199 165.2a2 2 0 0 1-2-1.7q-.4-6.1-2-11.5-1.3-3.9 2.7-4.3 19.5-2 46-6.4 33.8-5.4 62.5-11.6l7.4-1.8 7.3-2q37.7-9 67.7-19.5l6.6-2.3q8.9-3 18.3-6.9 19.2-7.7 38.8-16 11.9-4.9 19.9-8.8c11.7-5.7 22.4-10.5 34.2-16.7q4-2.2 8.4 0 21 10.5 32.5 15.7 8 3.6 25.4 10.9l25.6 10.5q11.8 4.8 24.6 9.4 20.9 7.6 24.9 8.8 24.3 7.5 34 10.1L692 124q4.2 1.5 10.2 2.6 5.2 1 10.5 2.6 2.6.6 5.6 1 12 3 14.8 3.5 10.4 1.9 17.8 3.5c3 .6 7 .8 9.9 1.8q.5.2 5.6.8c4.8.6 9 1.7 14 2.2q5.4.6 11 1.7 17 2.2 34 4a1.3 1.3 12.6 0 1 1.1 1.7q-2.5 7-3 14.7a1.5 1.5 0 0 1-1.9 1.3l-7.2-1.4q-1.6 0-7-.7l-19.4-2.5q-7.7-1-19.3-3.2l-25.3-4.7q-17.2-3.4-25.5-5.5l-13.2-3.2c-8.4-1.9-15.2-4-24-6.1q-4.3-1-10.7-3l-22.5-7q-27.4-8.6-49.5-17.3-12.3-4.8-16.3-6.2-3-1-10.4-4.4-4.7-2.2-10.3-4.4c-5.6-2.1-10.8-5-16.3-7.3l-10.2-4.6c-5.8-2.6-11.3-5.7-17.3-8q-1.4-.5-3.1-1.8a4 4 0 0 0-3.7-.4c-2.3 1-5.2 2.8-7.9 4-7.7 3.5-14.4 7-21.4 10l-30.1 13Q403.4 121 353.7 135l-9 2.4-10.9 3q-9.8 2.8-33 8.4c-2.7.6-5.2.9-8.3 1.7-5.2 1.3-12.7 2.4-19.4 3.8q-11.7 2.5-23.1 4.2-12.4 2-31.2 4c-2.6.3-6 1.3-9.4 1.5q-4.7.4-10.4 1.3"/><path fill="#010101" d="M846 192.9q-1-2.2-3.3-4.1-14-18.7-6.1-40a41.6 41.6 0 0 1 53.8-24.5c17 6.5 28 24.5 26.4 42.9a41 41 0 0 1-21.4 32 41 41 0 0 1-47-5q-1.4-1.1-2.5-1.3m69.4-29.9a40 40 0 0 0-40-40 40 40 0 0 0-40 40 40 40 0 0 0 40 40 40 40 0 0 0 40-40m-735 22.3-.2-1.5a1.8 1.7 56.4 0 1 .2-1q5.2-10.8 4.8-21.9-.1-5-2.9-12.4a39 39 0 0 0-33.8-25.3q-9.8-.9-18 2.4-9.4 3.8-15 10.3-11.7 13.5-9.4 32.4 1 7.5 3.8 12.2l3.4 5.8c2.5 4.3 5.5 6 9.5 9q2.5 2 6 3.6 20.8 9.2 40-3 4-2.7 10.6-9.8l.5-.1-1 2.1-2.9 3.4q-1.9 1.4-4.2 3.4-2.8 2.3-4.3 3.3a41.6 41.6 0 0 1-51.2-6.3q-8.8-8.4-11.3-21.1-1.8-9.7.1-17.3 5-19.4 21.9-27.8 10-5 22.4-4a42.5 42.5 0 0 1 36.6 32.6q4 16-5.6 31"/><path fill="#1f211f" d="m180.3 185.3-.5.7-.5.1q-6.5 7-10.6 9.8-19.2 12.2-40 3-3.5-1.6-6-3.6c-4-3-7-4.7-9.5-9l-3.4-5.8q-2.8-4.7-3.8-12.2-2.3-18.9 9.5-32.4 5.5-6.5 15-10.3 8.1-3.3 18-2.4a39 39 0 0 1 33.7 25.3q2.8 7.3 3 12.4.3 11-5 22a1.8 1.7 56.4 0 0-.1.9zM124 136.6a34 34-129 0 0-5 47.4 34 34-129 0 0 47.5 5.1 34 34-129 0 0 4.9-47.4 34 34-129 0 0-47.4-5.1M915.4 163a40 40 0 0 1-40 40 40 40 0 0 1-40-40 40 40 0 0 1 40-40 40 40 0 0 1 40 40m-6.3 0a33.7 33.7 0 0 0-33.7-33.8 33.7 33.7 0 0 0-33.8 33.7 33.7 33.7 0 0 0 33.8 33.8 33.7 33.7 0 0 0 33.7-33.8"/><path fill="#010101" d="M124 136.6a34 34-129 0 1 47.5 5 34 34-129 0 1-4.9 47.5 34 34-129 0 1-47.4-5 34 34-129 0 1 4.9-47.5m53.7 26.3a32.3 32.3 0 0 0-32.3-32.3A32.3 32.3 0 0 0 113 163a32.3 32.3 0 0 0 32.3 32.3 32.3 32.3 0 0 0 32.3-32.3m731.5 0a33.7 33.7 0 0 1-33.7 33.7 33.7 33.7 0 0 1-33.8-33.8 33.7 33.7 0 0 1 33.8-33.7 33.7 33.7 0 0 1 33.7 33.7m-23-30.5a32.3 32.3-70.8 0 0-41 20 32.3 32.3-70.8 0 0 19.7 41 32.3 32.3-70.8 0 0 41-19.9 32.3 32.3-70.8 0 0-19.7-41"/><path fill="#53aa3b" d="M171.7 158q-.3.5.1.8a6.9 1 82.1 0 1 .1 1l-.6 6.9a1.5 1.4 61 0 1 0 .3q-.9 1.9-.4 3.8a27 26.8 68.7 0 1-2.2 5.2q-.4.3-.5.7a18.7 12.4-51.7 0 1-1.4 2.2q-1.8 1-3 2.7l-.6.7q-2.5 1.4-4.4 3.6a19.2 13.4-27.7 0 1-2.4 1.3q-7.1 1.8-14.4 2.1a27 27 70.5 0 1-15-7.2q-.2-1.9-2.2-2.3a27 27 0 0 1-4.2-26.8 27 27 0 0 1 22.3-16.7 27 27 60.3 0 1 18.3 5 27 27 13 0 1 10.5 16.7"/><circle cx="875.5" cy="162.8" r="26.7" fill="#53aa3b"/><path fill="#010101" d="M760.2 253q1 2.4 3.4 3.9h.4q.3 0 0-.3.3.8.7 1.2c4.2 3.6 8.3 8.5 11.2 11.7q5.3 5.8 10.5 12.4a345 345 0 0 1 71 175.9q1.7 16.5 2.2 30.2.2 5.8-.5 18.1c-2 39.6-11.4 78.9-27 115.4q-35.4 83.3-108 136.6-70.8 52-159.5 65.5-11.7 1.8-31.9 3-16.7 1.2-43-.3c-7.3-.4-13.5-1.4-20-2.2l-8-1q-73.4-13-133.2-53.4a374 374 0 0 1-65.4-56.5q-20.6-22.7-33.9-42-34-49.5-49.8-105-9.2-32-11.3-70.2-.4-7.4.1-23.4.4-10 2.9-29.6 4-33.6 14.8-65.4 18.2-52.5 52.8-96.4 7.3-9.1 20.6-22.9 2.3-.5 3.7-3.9 19.3-19.2 41-35.4 27.3-20.2 59-35 32.6-15 66.5-23.7 19.9-5 38-7.2 19.2-2.3 30.5-2.9 6.6-.3 22.9-.1 1.8 0 8.7.5l8.6.6q19.7 1.2 40.3 5.3 75.4 15.3 136.1 57.9 23.3 16.3 45.6 38.5m-127.6-79.7q-34-12.5-71.6-18.2-8.7-1.3-21.3-2.1l-17.8-1.2q-6.9-.4-17.9 0-17 .6-26.7 1.6-12 1.2-35.4 5.6-3.6.7-6.6 1.5c-5.3 1.4-11.5 2.7-16.4 4.2q-18.1 5.6-33.2 11.5-32.7 12.6-63.1 31.9-23.6 14.8-47.7 37.1c-2.5 2.4-7.8 5.8-9.4 8.3q-2.3 3.5-4.5 5.4-2.7 2.3-4.3 4-13.8 15-19 22.2L227 299.8q-6.7 9.3-19 31-7.5 13.4-13.5 28.8-7.3 18.8-8.5 22.7-8 25.7-11.5 49.2l-1.3 8.7c-1.1 6.2-1.2 10.8-2.1 18.7q-.6 5.2-1.4 22.1-.2 3.8.8 25.4 0 2.3.6 6.7c.8 5.4 1.1 10.7 2 16.6q4.7 28.9 14 54.5 5.8 16.4 10.2 26.5 5.7 12.8 14.4 29.3 10.2 19.3 25 39.2l9 11.6 4.3 5.3c4 4.3 7 8.6 11 12.6q3.8 4 8.4 9.3 2.4 2.7 18.6 17.8 1.1 1 2.1 2.2c5.4 4.6 13.4 11.4 20.3 16.5l17.8 13.3q4.9 3.3 17 10.8 9.3 5.7 17.6 9.9 27.4 13.7 57.2 23c3.1 1 5.6 1.4 8 2.2q2.8 1 5.9 1.8 17.7 4.2 32.5 6.7c8.5 1.4 15.3 1.6 23.8 2.5q5.4.5 27 .7c10.4 0 23.3-1 32-1.7q7.1-.5 15.5-1.8l15.4-2.5q30.5-6 59.3-17 12.7-4.7 24.3-10.4 19.6-9.6 23.6-12c5-2.8 8-4.3 12.4-7.2q19.5-12.8 24.2-16.3 15.4-11.8 22.8-18.5 7.5-6.8 23.7-23.6 9.2-9.5 14.5-16.3 8.6-11.1 12.9-17.5 4.9-7.2 12.8-19.9 3.5-5.6 7-12.3 3.5-7 6.1-12.7l4-8.2q2.2-4.5 3.8-8.4 9-22.8 15.8-47.3 2-7.3 3.8-16.6 2.8-14.2 3-16.6 4.2-29.2 3.6-48.1-.7-24.3-1.5-30.8c-.4-3.2-1.5-6.8-1.8-10.3a271 271 0 0 0-9.3-47.1c-2.2-7.9-5-15.3-7.3-23q-2.2-7.4-8.3-21.2-13.6-30.8-33.3-59.9-12.6-18.6-28.3-35.3c-2.7-3-5.7-4.8-8-7.5q-2.7-3.3-5.7-6-12.5-12-24-21.3-28.7-23-62.3-39.5-18.7-9.2-35.4-15.3"/><path fill="#1f211f" d="M632.6 173.3q16.7 6.1 35.4 15.3 33.5 16.4 62.4 39.5 11.4 9.3 24 21.2 2.9 2.8 5.6 6.1c2.3 2.7 5.3 4.5 8 7.5q15.7 16.8 28.3 35.3 19.7 29 33.3 60 6 13.7 8.3 21.1c2.3 7.7 5.1 15.1 7.3 23 4.3 16 7.8 31 9.3 47 .3 3.6 1.4 7.2 1.8 10.4q.8 6.5 1.5 30.8.6 19-3.5 48-.3 2.5-3.1 16.7-1.8 9.3-3.8 16.6-6.7 24.5-15.8 47.3-1.6 3.9-3.8 8.4l-4 8.2q-2.6 5.7-6.2 12.7-3.4 6.7-6.9 12.3-8 12.7-12.8 20-4.3 6.3-13 17.4-5.2 6.8-14.4 16.3-16.2 16.8-23.7 23.6-7.4 6.7-22.8 18.5-4.7 3.5-24.2 16.3c-4.3 2.9-7.5 4.4-12.4 7.3q-4 2.3-23.6 11.9-11.6 5.7-24.3 10.4-28.8 11-59.3 17l-15.4 2.5q-8.4 1.3-15.6 1.8c-8.6.6-21.5 1.8-31.9 1.7q-21.6-.2-27-.7c-8.5-.9-15.3-1-23.8-2.5q-14.8-2.5-32.5-6.7-3-.7-6-1.8c-2.3-.8-4.8-1.2-8-2.1q-29.7-9.4-57-23.1-8.4-4.2-17.7-10-12.1-7.4-17-10.7-2-1.3-17.9-13.3c-6.8-5.1-14.8-12-20.1-16.5l-2.2-2.2q-16.2-15.1-18.6-17.8-4.6-5.2-8.5-9.3c-3.8-4-7-8.3-11-12.6l-4.2-5.3-9-11.6q-14.8-19.9-25-39.2-8.7-16.5-14.4-29.3-4.4-10-10.3-26.5-9.2-25.6-13.8-54.5c-1-6-1.4-11.2-2-16.6q-.6-4.4-.7-6.7-1-21.6-.8-25.4.8-16.9 1.4-22.1c1-7.9 1-12.5 2-18.7l1.4-8.7q3.5-23.5 11.5-49.2 1.2-3.9 8.5-22.7 6-15.4 13.5-28.8 12.3-21.7 19-31l10.6-14.7q5.2-7.2 19-22.2 1.6-1.7 4.3-4 2.2-1.9 4.5-5.4c1.6-2.5 6.9-6 9.4-8.3q24.1-22.3 47.7-37.1 30.4-19.3 63-32 15.2-5.8 33.3-11.4c5-1.5 11-2.8 16.4-4.2q3-.8 6.6-1.5 23.5-4.4 35.4-5.6 9.6-1 26.7-1.6 11-.4 17.9 0l17.8 1.2q12.6.8 21.3 2.1 37.5 5.7 71.6 18.2m-151 .1a1 1 24.6 0 1-.9.3c-1.7-.2-3-.7-4.3-.6q-7 .5-11.8 1.6a5.2 5-49.9 0 1-1.2.1c-5-.1-11.5 1.4-15.7 2q-3.8.4-8.3 1.8-10.8 3.3-19.2 5.3c-10.5 2.4-18.6 6-30 9.9q-3.8 1.3-6.8 2.7c-6 3-10.8 4.4-16.7 7.6-3.8 2-10.6 4.9-16 8.4-3.5 2.3-7.7 4.2-10.9 6.3Q320 231.7 302 246.2q-6.1 5-10 8.7l-9.6 9.3-1.9 1.8-5 4.6q-2.8 2.6-4.4 5c-2 2.6-4.7 4.7-7.2 7.8q-28.2 33.6-46.6 73.8-8.6 18.7-14.1 37.5-5.5 18.7-8.8 39.2-2.6 16-3.1 21.6-.7 8.1-1.5 26.6c-.2 4.6.8 9 .7 13.7q-.2 4 .6 10.3 1.3 9.5 2.3 18.8.8 8 3.1 18.6 2.5 11.8 5.2 21.7 1.7 6.6 3.6 11.8l4.2 11.6q13 36.3 36.7 70.2 10.5 15 16.7 22.6 11 13.2 16.4 19a381 381 0 0 0 38.2 36q47.2 38 105.7 56.6 17.3 5.5 33.7 8.3l12.2 2.1c3 .7 5.6.5 8.5 1.1q2.9.7 6.4 1 21.8 1.4 25.5 1.4 18.8 0 33.8-1.4 40.5-4 81.2-18 3.8-1.3 8.3-3.2l8.2-3.3q6.3-2.5 12.3-5.3Q717 746 763.6 693c3.5-4 6.4-8.3 9.6-12.1q2.8-3.3 7-9.3 9.2-13.5 16.5-26l3.6-6.5c2.8-5.7 5.7-10.4 8.4-16.6 2.2-5.1 6-12.3 8.2-18.4q6.8-18.3 12.4-39.5c1.7-6.5 2.7-14 4-19.7.9-4 .9-7.8 1.7-11.4 1.4-6.1 1.2-13.6 2.1-19.4q.7-4.1.8-10.8.1-17.4-.2-27.8 0-3.4-.7-8c-.6-4.6-.7-10.7-1.8-16.7l-1.3-8.6q-1.4-11-3.7-20.8-4.4-18.1-10-35-3.5-10.2-5.3-13.5l-5.6-13.3q-2.4-5.5-4.3-9.1l-4.7-9c-2-4.7-5.3-9-8-14.4q-1.6-3-4-6.4-6.5-9.9-10.3-15.4c-2.7-3.8-5.9-7.5-7.8-10.4q-2.8-4.2-6-7.8-3.3-3.8-6.2-7.7-3.3-4.3-5.1-6.2l-15.7-15.7c-5.5-5.5-11.6-10-18.2-15.7q-7-5.9-22.3-16.4-12.8-8.9-35.2-20.6-9-4.6-21.2-9.6-17.6-7-21.8-8.4-18.5-6.1-32.3-9c-7.2-1.4-11.7-2.6-17.2-3.3q-21.8-2.8-30.8-3.2l-31.4-1c-5-.1-11.6 1-17.4 1q-2.7.2-5.8.8-1 .2-2 1.3"/><path fill="#010101" d="M171.8 158.8q-.4-.3-.1-.8a5.3 1 79.7 0 1 .1.8"/><path fill="#1f211f" d="M170.9 170.8q-.5-1.9.3-3.8a1.5 1.4 61 0 0 0-.3l.7-7a27 27 50.5 0 1-1 11.1"/><path fill="#010101" d="M481.5 173.4q1-1 2-1.3 3.1-.6 5.9-.7c5.8-.2 12.4-1.2 17.4-1.1l31.4 1q9 .3 30.8 3.2c5.5.7 10 1.9 17.2 3.4q13.8 2.8 32.3 8.9 4.2 1.3 21.8 8.4 12.2 5 21.2 9.7 22.4 11.6 35.2 20.5 15.3 10.5 22.3 16.4c6.6 5.6 12.7 10.2 18.2 15.7l15.7 15.7q1.8 1.9 5 6.2 3 3.9 6.4 7.7 3.1 3.6 5.9 7.8c2 2.9 5 6.6 7.8 10.4l10.4 15.4q2.3 3.4 3.8 6.4c2.8 5.4 6.1 9.7 8.1 14.4q.6 1.4 4.7 9 2 3.6 4.3 9.1l5.6 13.3q1.8 3.3 5.2 13.5 5.7 16.9 10 35 2.4 9.8 3.8 20.8l1.3 8.6c1 6 1.2 12 1.8 16.7q.7 4.6.7 8 .3 10.4.2 27.8 0 6.7-.7 10.8c-1 5.8-.9 13.3-2.2 19.4-.8 3.6-.8 7.4-1.7 11.4-1.3 5.8-2.3 13.2-4 19.8q-5.6 21-12.4 39.4c-2.2 6-6 13.3-8.2 18.4-2.7 6.2-5.6 10.9-8.4 16.6q-1.4 2.9-3.6 6.5-7.3 12.5-16.6 26-4.1 6-6.9 9.3c-3.2 3.8-6 8-9.6 12.1q-46.6 53-110.3 82.7-6 2.8-12.3 5.3l-8.2 3.3q-4.5 1.9-8.3 3.2-40.7 14-81.2 18-15 1.5-33.8 1.4-3.7 0-25.4-1.5-3.6-.2-6.5-.9c-3-.6-5.4-.4-8.5-1l-12.2-2.2q-16.4-2.8-33.7-8.3-58.5-18.5-105.7-56.6a381 381 0 0 1-38.2-36q-5.5-5.8-16.4-19-6.2-7.6-16.7-22.6-23.7-33.9-36.7-70.2l-4.2-11.6q-1.9-5.2-3.6-11.8-2.7-10-5.2-21.7-2.2-10.6-3.1-18.6-1-9.3-2.3-18.8-.8-6.3-.6-10.3c.1-4.7-.9-9-.7-13.7q.8-18.5 1.5-26.6.5-5.6 3-21.6 3.4-20.5 8.9-39.2t14-37.5q18.5-40.2 46.7-73.8c2.5-3.1 5.3-5.2 7.2-7.9q1.6-2.3 4.5-5l5-4.5 1.8-1.8 9.6-9.3q3.9-3.7 10-8.7 18-14.5 37.8-27.4c3.2-2 7.4-4 11-6.3 5.3-3.5 12.1-6.3 15.9-8.4 6-3.2 10.7-4.7 16.7-7.6q3-1.4 6.9-2.7c11.3-4 19.4-7.5 30-10q8.3-1.9 19-5.2 4.6-1.4 8.4-1.8c4.2-.6 10.7-2.1 15.7-2a5.2 5-49.9 0 0 1.2-.1q4.8-1 11.8-1.6l4.3.6zm-202.2 95.8-3.4 3.4q-14.3 15-25.1 30.2-22 30.7-37.1 67-7.8 18.9-12.8 39.8-7.2 30.6-8.7 58.4-1.2 21.5 1.3 44.5 6.3 59.7 33.6 111.6 15 28.8 37.8 57.3c26 32.6 58.6 61.4 94.5 81.8q25.1 14.4 51.7 24 32.8 11.8 68 16c6 .6 10.8.7 15.6 1.2q4.7.5 11.7.6 18 .3 34.1-1 52.9-4.7 101.5-25c31-13 58.5-30.3 84.4-51.7q28.8-23.7 50.7-54.3 24.4-34 39-72.3 21.4-56 20-117.3l-1-14.6q-.1-5.5-.8-11l-2.3-16.6q-3.4-21.6-10.4-43.6-19.4-61.6-60.9-112 .4-.6-1-1.8l-4.2-5q-30.3-34.7-69.6-58.6-38.4-23.4-80.8-35.8-9.6-2.8-21.4-5.1-13.3-3-29-4.7-24-2.8-46.4-2.3-56.6 1.1-109.7 20.3-11.5 4.2-15.6 6-39.3 16.5-72.6 43-11.7 9.2-17.9 14.7-5.6 4.9-13.2 13"/><path fill="#f6fdf3" d="M583.7 179.3q-1.2 18-2.6 35.8-1 13.8-6.8 43.9l.4.6q14.1 4.1 28.6 9.4 2.8 1 10.4 4.5 16.3 7.4 31.5 17.4l-14.4-7.7q-42.6-22.7-90.5-27.8-9.4-1-26.7-1.5-1 0-.9-.9.2-32.9-.2-66.7 0-1.5-1-2.5t-1.4-3v-7.4l-.5-.6-1.3-.5q22.4-.5 46.4 2.3 15.7 1.7 29 4.7"/><path fill="#010101" d="M168.7 176a6 1.4-60.3 0 1-.5.7q.1-.4.5-.7"/><path fill="#1f211f" d="M166.8 178.9a26.9 26.7 3.3 0 1-8 7q1.9-2.2 4.4-3.7l.7-.6q1.1-1.7 2.8-2.7"/><path fill="#d9f1d2" d="M755.5 278.8q-5.3-4.7-17.4-17.1-8-8-21-18.5T690 224q-25.3-15.8-53-27a.5.5 0 0 0-.7.4q-4.7 16.3-8 33-4.6 22.4-14.6 43-7.6-3.4-10.4-4.4-14.5-5.3-28.6-9.4l-.4-.6q5.8-30 6.8-43.9l2.6-35.8q11.8 2.3 21.4 5.1 42.4 12.4 80.8 35.8 39.3 23.9 69.6 58.6"/><path fill="#1f211f" d="M127 182.1a22.2 18.3 51.6 0 1-2.2-2.3q2 .4 2.2 2.3"/><path fill="#5dbd50" d="M513.6 253.9h-.3a.3.3-58.6 0 0 .2.7l19.8 1.5q22.2 1.5 44.6 7.4 25.4 6.6 55.4 22.5h.2l.2-.2a.3.3 0 0 0-.1-.5q-1.7-.8-2.8-2l14.4 7.6 12.6 9.3q3 2.9 6.4 5a5 4.2 66.7 0 1 .5.4l4.2 3.7a1 1-48 0 0 .9 0q27.5-30.3 47.2-66.1 13.2 10.5 21 18.5 12.2 12.4 17.5 17.1l4.3 5c-7.3.9-14 5.6-20.2 9.2a1.5.7-50.2 0 0-.1.1l-15.8 12.7q-8.2 4.8-15.6 11.3l-.2-.2q2.7-8.3 3.1-17a2 2 71.4 0 1 .6-1.1l28.2-24a.1.1 0 0 0 0-.2l-.2-.4h-.4q-24.8 20.4-61 53l-27.5 24.3-9.7 8.5q-16.3 14-32.2 28-12.4 11-44.3 38.5-6 5.2-28.2 26 2-4.6 6.8-8.1 3.8-2.7 7.3-6.3a2 2-46.5 0 0 0-2.4q-3.7-3.4-7.1-4.7-2.9-2.7-6.4-4 .6-.4.6-1l-.3-.4q-11-5.4-23.4-5.1l-.5.4q-.2.5.2.9-.4 0-.9.6-1.8-.5-2.3 1.6l-.7-.7q0-1.6-1.4-1.4-12.4 1.2-24.8 8-7.7 4.2-12 9.1a3.6 3.5 4.8 0 1-1 .8q-1.4.8-2.7 2.2-10.2 11-13.9 25.6-.7 3-.8 4.4c-.2 3.8-1.2 7.3-1 11.1q.2 8.7 2 15.7t5.4 14.4l-.3.8q-2.5 1.5-4.2-.7-3.4-4.4-5-9.3-2.8-8.1-3.3-15.6l-.6-.6h-70.3a1 1 0 0 0-.8.9l1.2 14.5q-.4.7.1 1 3 16.7 9.4 32.1.1.5.4.7l1.9 3.8a2 2 61.8 0 1-.6 2l-4.7 2.7a1.5 1.5-28.6 0 1-2.2-.6q-9.7-18.9-12.8-40c-.8-5.2-1.6-10.9-1.6-16.8a.3.3 0 0 0-.3-.4h-83.3a1 1 0 0 0-.8.9q.5 16.3 3.6 33.9 3.2 17.6 8.8 33 10.1 27.4 28 52.3 2.4 3.4 5.1 6.7l3.8 4.5q10.4 13 22.7 23.8l.1.4-3.3 8h-.3q-5.9-4.5-9.6-8.2a242 242 0 0 1-43.3-58.3q-19-36.5-23.5-79-1-8.8-1-15 .2-.3 0-.7 0-1-.2-1.7l-.7-.5-51.4.1a2.4 2.4 89.2 0 1-2.4-2.3 2.3 2.3 89 0 1 2.2-2.4l26.6-.3h1l24 .2a1 1 0 0 0 .7-.7q.5-76.4 45.6-136.6 9.3-12.5 18.8-21.5v-.5l-25.9-22q-8.6-7.5-17-13.8c-1.7-1.2-3.7-3.2-6-4.8q-2.6-2-12.1-10.6l3.4-3.4 60.3 51.4h.8l6.7-5.7q57.7-51.2 134.9-59.7 1.5.4 2.3-.2 12-1.5 23.9-1a.5.5 0 0 0 .5-.6V192q0-4.4 1.4-11.2.5 2.1 1.4 3 1 1 1 2.5.4 33.8.2 66.7 0 .8.9.9m1.1 6.6q-1.3.1-1.7.6v.2l-.2 77 .2.3q.3.3.9.2l-.5.3a.5.5 0 0 0 .4.8q16.5.5 32.2 3.8 14.2 3 33.6 12.2l6.6 3.3a.4.4 0 0 0 .6-.4q-.1-.5-.6-.8l8.2 4.9 7.3 5 8.3 7 .8-.1 51.8-61.7v-.5q-7-6.8-15-11.9l-5.1-3-11-6.8q.6 0 .7-.2.2-.5-.3-.8-20-12-42.4-19.3c-24.1-7.8-49.4-12-74.9-11.1q-.5 0-.7.3l.3.8zm-167.4 66.3 60 52a1 1 0 0 0 1.4 0 154 154 0 0 1 35.7-25q6.5-3.5 15-6.5 9.9-3.6 15.5-4.8 10.7-2.3 27-4.3 3.1-.4 6.2-.2l.6-.6v-76l-.6-.5-8.5.2q-2.2 0-3.2.4c-2.5.7-5.3.4-8 .8q-17.1 2.2-20.4 2.9-5 .9-18.3 4.3-11 2.8-18 5.2-45.1 15.8-79.7 46.8l-4.7 4.7zm57.3 55.8a1 1 0 0 0 0-.9L345 330.1a1.4 1.4 0 0 0-1.9 0q-7.7 7.7-15.6 17.8-15.2 19.7-25.1 41-19.2 41.6-21 88.6-.1.7.4 5.2l.5.4h82.8l.6-.5q0-40 19.3-74.1a132 132 0 0 1 19.5-25.9m18.1-5-8.2 6.9a1 1 0 0 0 0 .9c5.3 3.8 10 8.7 14.6 12.6q20.3 17.5 36.7 32.6c.6.5 1 1.4 1.4 1.7a1 1 40.4 0 0 1 0q10.1-9 23.2-14 1.2-.4 9-2.1h.1l7.7-.6a1 1 0 0 0 .8-.8v-15q.3-.3.6-.3t.4.4l.1 15.4a1.4 1.4 0 0 0 1.4 1.3c12 0 21.7 3.4 32.2 8.8a.7.7-73.9 0 0 1-.5v-.5l3.3 1.8 6.6 6.2a1 1 0 0 0 1 .1q2.6-1.6 5.1-3.8 13.4-11.6 26.5-23.3l3.1-2.7c3.2-2 4.7-4 8.1-6.7q2.4-1.9 4.6-4.3a4 3.8-85.2 0 1 .8-.7q2.9-2 6-5.3l.2-.7q-.4-2.3-2.1-3.9-5.2-4.4-10.7-8.2-6-5-12.2-8l-7-4.2q.8 0 .6-.8-.1-.6-.6-.8-27.7-13.9-57.5-14.9-14.4-.4-24.4 1.1-7.5 1.2-21.8 5c-16 4.1-29.3 10.6-43 19.6q-5.4 3.5-8.6 7.7M446 482.8c0-17.3 6.4-34.3 18.6-46.9a1 1 0 0 0 .1-1.1q-1-1.6-2.8-3.2-22.4-19.8-49.8-43.5h-.7q-3.5 3.3-6.1 6.5-19 23-26.6 53.3-.7 2.8-2.2 11c-.7 3.4-.5 6.2-1 9.2-.9 4.3-.8 10-.8 14.2a1 1 0 0 0 1 .9h70z"/><path fill="#1f211f" d="M156.4 187.2a26.8 26.7-53.3 0 1-14.4 2.1q7.3-.3 14.4-2.1"/><path fill="#5dbd50" d="M263 254.5q-1.4 3.3-3.7 3.8l-18.5-14.5-18-14.2q-11.2-9.1-18-14.3-16.2-12.6-22-16.7-5.3-3.8-6.9-7l2.9-3.5zm579.7-65.7q2.4 1.9 3.2 4l-81.8 63.8q.2.3-.1.3h-.4q-2.3-1.5-3.4-4 50.7-39.5 80-63 1.3-1 2.5-1.1"/><path fill="#a6d999" d="M690 224q-7.8 19.3-13.2 30.1-9.3 18.8-23.7 40.4v.7l4.7 5-12.6-9.3q-15.2-10-31.5-17.4 10-20.7 14.5-43.1 3.3-16.7 8.1-33l.6-.3q27.8 11.1 53 26.9"/><path fill="#010101" d="M126 208a1 1-81.5 0 1 1.3-1l18.4 3.6.5.4q.2 1.4-.8 10.2-3.8 36.4-8.8 90-2.4 25.5-6 59.8-4.4 40-8.8 77.2a.5.5 0 0 1-.7.5q-8.2-2.1-18.5-2.8a1.2 1.2-85.1 0 1-1.1-1.2q3.2-27.5 6-53.5l1.5-15.8.7-4.7c.4-2 .3-3.6.6-6.3q1.4-12.6 10.1-99.9l.3-3q0-2.4.5-5.8l.7-5.8q0-1.4 4.2-42m18.3 5a1.3 1.3 0 0 0-1.1-1.4c-3.2-.4-4.3-.4-7.2-1.4q-3.2-1-6.8-.7a2 2 0 0 0-1.3 1.2c-.6 3-1.4 8.6-1.6 12.8q-.4 6.2-.8 8-1 4.2-1 8 0 4.4-1.1 12.4-.8 5.8-1.2 12.4-.4 5.8-1.7 13.7-.3 1.5-.6 13a13.6 13.1-39.2 0 1-.3 2.5q-.9 4.3-1 5.9-.5 8.8-1.7 17c-1 6.9-.9 13.2-1.7 19.8q-2.6 19-3.9 37.9l-1.8 15.1q-1.2 9.6-1.5 13.2l-1.4 13.1-3.2 27.4a1.2 1.2-80.7 0 0 1 1.3q5 1.2 8.3 1a3.5 3.1-38.5 0 1 .6 0l5.6 1a1.5 1.5 0 0 0 1.8-1.3q1.5-10 2-20.9.2-1.9 1-4.7a1.4 1.1-39.8 0 0 0-.2l1-9a1.7 1.5 43 0 0-.1-.6q-.3-.8.7-5.7.6-3.2 1.6-15.2c.9-9.8 2.2-17.2 3-27.4l2.5-23.8.4-3.8c0-3 .9-5.9 1.1-9.2.9-10.6 2.3-22.4 3-31q1.4-19.3 3.2-35.9l.3-5.9q.2-3.1 1-6.8a1.9 1.6-40.6 0 0 .1-.3zm759 236.2a1 1 82.1 0 1-1-.7q-8.3-63.1-15.3-130.4l-.8-6.5q-.5-3.5-.6-6.6l-.1-1.6-2.1-19.6q-1.2-11.2-2.7-28.2c-.2-2.7-.8-5.7-.8-8.7l-.3-3.6Q878.3 231 878 222c-.2-3.7-1.1-7.3-.9-11.1a1 1-1.7 0 1 .7-.8q9.6-1 17.3-3.2a1 1 0 0 1 1 .6l.8 4.7a2.3 1-82.5 0 1 0 .3q.1 3.6.5 6.3.7 4.7.7 6c0 3.6.7 6.7 1.1 11.2q5.7 57.5 7.3 72 7.2 65 15 128.8.5 3.8 1.3 7.7a1 1 0 0 1-1 1.3q-6.2.2-13.5 2.2-3.3.9-4.8 1.1m2.4-2.4 13.3-2.4a2 2 0 0 0 1.5-1.7l-.2-4.2-3.5-26.3-.4-4.3q-2.7-17-3.7-32c-.2-3.8-1.2-8-1.7-12l-5.8-51.6c-.6-5.5-.6-9.3-1.3-13.8q-.6-3.7-1.2-10.3-3.3-35.3-7.8-75.4l-.5-2.5a1.4 1.4-12.2 0 0-1.6-1l-12.7 2.3a2 2-8.1 0 0-1.4 1.8q1.3 13 1.7 22.6.1 4.3.7 7.7c1 6.2 1.1 12.6 2 19.2s.9 12.8 1.8 19.8q2.2 16.2 3.2 31.6.3 4.1 1 8.1c1.2 6 .8 11.4 2 17.8q.7 4.7 1 9.7c.4 6.7 1.8 13.5 2.6 20.7q2.3 23 4.6 40.1.8 5.7 1 8.3.2 4.9 1 8.3.8 3 1.3 9.1.1 1.5 1.3 9.1a1.6 1.5-9.6 0 0 1.8 1.3"/><path fill="#1f211f" d="M905.8 446.7a1.6 1.5-9.6 0 1-1.8-1.3q-1.2-7.6-1.3-9-.5-6.3-1.2-9.2-.9-3.4-1.2-8.3-.1-2.6-.9-8.3-2.3-17.2-4.6-40.1c-.7-7.2-2.2-14-2.6-20.7q-.3-5-1-9.7c-1.2-6.4-.8-11.8-2-17.8q-.7-4-1-8.1-1-15.4-3.2-31.6c-1-7-1-13.2-1.8-19.9-.9-6.5-1-12.9-2-19.1q-.6-3.4-.7-7.7-.4-9.6-1.7-22.6a2 2-8.1 0 1 1.4-1.8l12.7-2.3a1.4 1.4-12.2 0 1 1.6 1l.5 2.6q4.5 40 7.8 75.3.6 6.6 1.2 10.3c.7 4.5.7 8.3 1.3 13.8l5.8 51.7c.5 4 1.5 8 1.7 11.8q1 15.1 3.7 32l.4 4.4q.4 4.4 3.5 26.3.3 2.4.2 4.2a2 2 0 0 1-1.5 1.7zM144.3 213l-2.8 31.5a1.9 1.6-40.6 0 1 0 .3q-.9 3.7-1 6.8l-.4 5.9q-1.8 16.6-3.3 36c-.6 8.5-2 20.3-2.9 30.9-.2 3.3-1.2 6.2-1.1 9.2q0 1-.4 3.8l-2.5 23.9c-.8 10-2.1 17.5-3 27.3q-1 12-1.6 15.2-1 4.9-.7 5.7a1.7 1.5 43 0 1 0 .5l-.9 9a1.4 1.1-39.8 0 1 0 .3q-.8 2.8-1 4.7-.5 10.8-2 21a1.5 1.5 0 0 1-1.8 1.2l-5.6-1a3.5 3.1-38.5 0 0-.6 0q-3.2.2-8.4-1a1 1-80.7 0 1-.9-1.3l3.2-27.4 1.4-13.1q.3-3.6 1.5-13.2l1.8-15.1q1.3-18.8 3.9-37.9c.8-6.6.7-13 1.7-19.8q1.2-8.2 1.7-17 .1-1.6 1-6a13.6 13.1-39.2 0 0 .3-2.4q.3-11.5.6-13 1.3-7.9 1.7-13.7.4-6.6 1.2-12.4 1-8 1-12.4 0-3.8 1-8 .5-1.8.9-8c.2-4.2 1-9.7 1.5-12.8a2 2 0 0 1 1.4-1.2q3.6-.3 6.8.7c2.9 1 4 1 7.2 1.4a1.3 1.3 0 0 1 1 1.4"/><path fill="#9cea6c" d="M690 224q14 8.8 27 19.2-19.7 35.8-47.2 66a1 1-48 0 1-.9 0l-4.2-3.6a5 4.2 66.7 0 0-.5-.4q-3.5-2.1-6.4-5l-4.6-5-.1-.7q14.4-21.6 23.7-40.4 5.4-10.8 13.2-30.1"/><path fill="#53aa3b" d="M513.6 253.9q17.3.5 26.7 1.5 48 5 90.5 27.8 1.1 1.3 2.8 2.1a.3.3 0 0 1 0 .5v.1h-.3q-30-15.7-55.4-22.4-22.4-6-44.6-7.4l-19.8-1.5a.3.3-58.6 0 1-.2-.6z"/><path fill="#1f211f" d="M484.3 255q-.8.6-2.3.2 1-.3 2.3-.2"/><path fill="#53aa3b" d="M631.6 291q-54-31.4-116.9-30.5-.3.2-.5.1l-.3-.8q.2-.3.7-.3c25.5-1 50.8 3.3 74.9 11q22.4 7.3 42.4 19.4.5.3.3.8 0 .2-.6.2"/><path fill="#f6fdf3" d="m631.6 291 10.9 6.7q0 .4.2.6l-.1.2q-13.4-8.4-27.6-15.1-15-7.1-31-11.7l-.6.3q-7.4 12.1-10 22.8-6.7 25.8-17.4 48.1a.4.4 21.1 0 0 .3.6q12.4 3.8 23.7 9.9l13.5 8a7.8 3 48.4 0 0 1 .4q1 .5 0 1L586 358q-33.7-18.7-72.2-19.2-.6 0-1-.2v-77.5q.5-.5 1.8-.6 62.8-.9 116.9 30.4"/><path fill="#d9f1d2" d="M615 283.4q-9.2 39.2-35 70-11.3-6-23.7-9.9a.4.4 21.1 0 1-.3-.6q10.7-22.3 17.3-48.1 2.7-10.7 10-22.8l.7-.3q16 4.6 31 11.7"/><path fill="#9cea6c" d="m723.7 305.8-8.2 7.1-71.1 59.3c-4.8 4-14.6 11.6-21.2 17.1q-27 23-53.7 44.4c-2.7 2.2-6 4.4-8.7 6.7L524.4 470l-1.1.7q-1 .3-2-.3 1.5-.3 2.4-2a1 1 0 0 0 .1-1c-1.1-3.7 1.8-7 5.3-8.2a2 1.9-75.7 0 0 .8-.4l6.4-6.4q22.1-20.8 28.2-26 32-27.4 44.3-38.4l32.2-28 9.7-8.5 27.5-24.3q36.2-32.6 61-53h.4l.2.4v.1l-28.2 24.1a2 2 71.4 0 0-.6 1.2q-.4 8.6-3.1 16.9l.2.2q7.4-6.5 15.6-11.3"/><path fill="#53aa3b" d="M759.8 283.8q1.3 1.2 1 1.8-39 30.7-63.8 51.1-.5.4.3 1-3.8 1.6-6.5 4.5l-61.5 50.6-6.5 5.4-55 44.6q-2.5 1.1-5 4.2l-4 3q-13.6 10.3-24.5 19l-5.9 4.4q-1.8 1.3-2.4 2.8v1c.8 3.2.7 8-1.4 10.8q-3.2 4.3-8.3 5-1.5-.3-3 0c-5.2.4-9.6-3.6-10.8-8.3-1.6-5.9 2-11.2 7.3-13.8q5.1-1 10.3.1.6-.4 1.2-.5 1 .6 2 .3v.5a.5.5 0 0 0 .8.3q20.2-15.9 37.6-31c2.6-2.2 7-4.6 10.3-7.4l39.7-32.8 10-8.2 30.1-24.9 23.8-19.7c6.2-5 12-10.4 18-15q11.3-9.2 21-17.4 2-1.7.9-2.3l8.2-7 15.8-12.8a1.5.7-50.2 0 1 .1-.1c6.2-3.6 13-8.3 20.2-9.2"/><path fill="#a6d999" d="M615 283.4q14.2 6.7 27.6 15l.1-.1-.2-.6 5 3q-10 9-15.4 17.6c-11.3 18-19 31.3-32 46l-.1.8 1.7 2.7-7.3-5q1-.5 0-1a7.8 3 48.4 0 1-.9-.4l-13.5-8q25.8-30.8 35-70"/><path fill="#9cea6c" d="M647.6 300.7q8 5.1 15 12v.4l-51.8 61.7h-.8l-8.3-7-1.7-2.7v-.8c13-14.7 20.8-28 32.1-46q5.4-8.7 15.5-17.6"/><path fill="#1f211f" d="M715.5 313q1.1.5-.9 2.2-9.7 8.2-21 17.3c-6 4.7-11.8 10-18 15.1l-23.8 19.7q-.2.3-30.1 25l-10 8.1-39.7 32.8c-3.4 2.8-7.7 5.2-10.3 7.5q-17.4 15-37.6 31a.5.5 0 0 1-.8-.4v-.5l1-.7 36.5-29.7c2.8-2.3 6-4.5 8.7-6.7q26.6-21.4 53.7-44.4c6.6-5.5 16.4-13.1 21.2-17.1z"/><path fill="#5dbd50" d="M697.3 337.7q4.3 4.2 6.4 6.6 19.2 22.8 31.4 50.6 18.4 41.8 19.9 87.7l.5.5 48.6-.3a2.5 2.5-.9 0 1 2.5 2.4 2.5 2.5.1 0 1-2.5 2.6h-48.7l-.2.2q-.4 41-14 79.5-13.9 39.2-41.9 70.3-6.9 7.7-14.9 14.1-.6.6-1.4.8h-.7q-.4-.1 0-.7 0-.7-.5-1-.2-1.8-1.3-3l-1-2.5q1.9-3.9 7.6-7.1 1.7-1 3.5-5.4 24.1-25.8 37.3-57 4.4-10.4 8.6-24.3 9.3-31.4 9.5-63.3a.5.5.5 0 0-.6-.6H662l-.5.5c-.6 4-.3 8.1-.8 12.3l-1.2 8q-2.8 19-11.6 36.3-1 .7-2.1.6l-5.2-3.6q.2-.9 0-1.6 3.5-6.7 5.5-14 .4 0 .2-.8l.9-2.5q.3-.2.1-.7l2-6.7q.8-.6.3-1.4 2.6-12.6 3.5-25.7a1 1 0 0 0-.7-.7h-72.8l-.5.4q-.2 2.6-2 9.8-2.4 9.8-7.4 16.2a1 1 0 0 1-1 0q-.9-1-2-1.7a1 1 28.3 0 1-.2-1q9-18 6.7-38-1.7-14.3-10.2-26.5 2.4-3 4.9-4.2 9.5 13.1 11.2 29.4l.7 11a.5.5 0 0 0 .6.5c.8-.2 1-.5 2.2-.5h69.7l.3-.2v-2.7q-1.4-45.7-29.7-82l6.5-5.5q3.7 5 6.5 9.1 10.5 15.6 16.7 32 6 16.2 8.3 37.2.8 7.7.8 11.6a.4.4 90 0 0 .4.4h83a1 1 88.8 0 0 1-1c-.4-10-1.4-21.4-3.2-31.7q-5.6-31-19.6-59.7-12.9-26.6-32.4-48.5 2.7-3 6.5-4.5"/><path fill="#53aa3b" d="M513.9 338.8q38.5.5 72.3 19.2.5.3.6.8a.4.4 0 0 1-.6.4l-6.6-3.3q-19.4-9.2-33.6-12.2-15.7-3.3-32.2-3.8a.5.5 0 0 1-.4-.8zm64.1 21.9q-30.4-16-64.7-15.3a.6.6 0 0 0-.6.7v68.4a1 1 0 0 0 .9 1q16.9.6 31 8.9v.5a.7.7-73.9 0 1-1 .5 67 67 0 0 0-32-8.8 1.4 1.4 0 0 1-1.5-1.3l-.1-15.4q0-.4-.4-.4l-.6.2-.1-53.5a1 1-2.4 0 0-.8-.7q-15.3 1.3-30.4 5-30.3 7.6-55 27.1 3.2-4.2 8.6-7.7c13.7-9 27-15.5 43-19.7q14.3-3.7 21.8-4.9 10-1.5 24.4-1 29.8 1 57.5 14.8.5.2.6.8t-.7.8"/><path fill="#f6fdf3" d="m578 360.7 7 4.2-16-7.2-15.5-5.2a.5.5 0 0 0-.7.3c-7.7 20.6-17 39.3-27.5 61.7a.4.4-69.6 0 0 .2.6l5.2 1.5q6.9 2.3 12.7 6 3 1.6 4.6 3.6l-3.3-1.8q-14.2-8.3-31.1-9a1 1 0 0 1-1-.9v-68.4a.6.6 0 0 1 .7-.7q34.3-.6 64.6 15.3"/><path fill="#d9f1d2" d="M569 357.7a309 309 0 0 1-38.3 58.9l-5.2-1.5a.4.4-69.6 0 1-.2-.6c10.5-22.4 19.8-41 27.5-61.7a.5.5 0 0 1 .7-.3z"/><path fill="#a6d999" d="m569 357.7 16 7.2q6.2 3 12.2 8l-7-3.3-.7.2q-6.8 10.8-14.1 21.1-13.2 18.5-32 31.7-5.8-3.7-12.7-6a309 309 0 0 0 38.3-58.9"/><path fill="#9cea6c" d="M597.2 372.9q5.5 3.8 10.7 8.2 1.8 1.6 2.1 3.9l-.2.7q-3.1 3.3-6 5.3a4 3.8-85.2 0 0-.8.7q-2.2 2.4-4.6 4.3c-3.4 2.6-5 4.7-8 6.6l-3.2 2.8q-13.1 11.7-26.5 23.3-2.5 2.2-5 3.8a1 1 0 0 1-1.1 0l-6.6-6.3q-1.6-2-4.6-3.6 18.8-13.2 32-31.7 7.3-10.3 14-21l.7-.3z"/><path fill="#53aa3b" d="M536.9 427q-11-5.6-23.4-5.2-.4-.4-.2-1l.5-.3q12.4-.2 23.4 5.1l.3.4q0 .6-.6 1"/><path fill="#f6fdf3" d="M513.5 421.8q12.4-.4 23.4 5.2 3.5 1.3 6.4 4l-6.6-3q-3.8-1.6-6.8-2.3-7-1.7-12.4-2.4a2 2 0 0 0-2 1q-1.2 2.2-1.3 5.6v38.3a.6.6 0 0 0 .6.7q2.4-.2 4.9.5a1 1 0 0 1 .5.8v.8q-5.3-1.1-10.5-.1l-.1-47.6.7.7.2 45.3a.6.6 0 0 0 .9.5l.6-.4a2 2 0 0 0 .8-1.4l-.2-45.6q.5-.5 1-.6"/><path fill="#53aa3b" d="m512.6 422.4.2 45.6a2 2 0 0 1-.8 1.4l-.6.4a.6.6 0 0 1-1-.5l-.1-45.3q.5-2.1 2.3-1.6"/><path fill="#a6d999" d="M543.3 431q3.4 1.3 7 4.7a2 2-46.5 0 1 0 2.4q-3.4 3.6-7.2 6.3-4.8 3.5-6.8 8L530 459a2 1.9-75.7 0 1-.8.4c-3.5 1.2-6.4 4.5-5.3 8.3v1q-1 1.6-2.5 2-.6 0-1.2.4l.1-.8a1 1 0 0 0-.5-.8q-2.5-.7-4.9-.5a.6.6 0 0 1-.7-.7l.1-38.3q.1-3.4 1.4-5.7a2 2 0 0 1 1.9-1q5.4.8 12.4 2.5 3 .7 6.8 2.4z"/><path fill="#53aa3b" d="M472.5 439.7h.2l1.6 1.4a7.8.6 43 0 1 5.2 5.8l-.2.2a7.8.6 43 0 1-6-4.9l-1.6-1.4v-.3z"/><path fill="#010101" d="M143.4 495.2a42 42 0 0 1-42 42 42 42 0 0 1-42-42 42 42 0 0 1 42-42 42 42 0 0 1 42 42m-1.5 0a40.5 40.5 0 0 0-40.5-40.5A40.5 40.5 0 0 0 61 495a40.5 40.5 0 0 0 40.4 40.5 40.5 40.5 0 0 0 40.5-40.5m760-35.5a42 41.7-121.1 0 1 57.4 14.4 42 41.7-121.1 0 1-14.1 57.4 42 41.7-121.1 0 1-57.4-14.3 42 41.7-121.1 0 1 14-57.5m.3 1.3a40.6 40-121.7 0 0-12.7 55.6 40.6 40-121.7 0 0 55.4 13.5 40.6 40-121.7 0 0 12.7-55.6 40.6 40-121.7 0 0-55.4-13.5"/><path fill="#1f211f" d="M141.9 495.1a40.5 40.5 0 0 1-40.5 40.5A40.5 40.5 0 0 1 61 495.1a40.5 40.5 0 0 1 40.4-40.4A40.5 40.5 0 0 1 142 495m-7.7.1a33 33 0 0 0-32.7-32.7 33 33 0 0 0-32.8 32.8 33 33 0 0 0 32.8 32.7 33 33 0 0 0 32.8-32.7m767.8-34.4a40.6 40-121.7 0 1 55.4 13.5A40.6 40-121.7 0 1 945 530a40.6 40-121.7 0 1-55.4-13.5 40.6 40-121.7 0 1 12.7-55.6m13.7 2.5a32.9 32.4-103.6 0 0-24 39.6 32.9 32.4-103.6 0 0 39.2 24.4 32.9 32.4-103.6 0 0 23.8-39.6 32.9 32.4-103.6 0 0-39.2-24.4"/><path fill="#53aa3b" d="M124 510q-1.5.4-1 1.3a27.5 26.8-69 0 1-2.5 3q-2 0-1.7 1.5l-.5.4q-2.9.9-4.7 3a27.3 27.2 28.6 0 1-9.3 2.7q-1.1-.2-2.1.2a8.2 3-3.5 0 1-1.2 0q-.7.2-1.5 0a27.1 27-26.1 0 1-13-4.5q-1-2.2-3.5-2.8a27 27-73.9 0 1-8-14.8 27 27 66 0 1 10-26.5 27.1 27 26.3 0 1 16.5-5.6 27.1 27-27.1 0 1 15.8 5.1 27 27 12.5 0 1 10.8 17 27 27-33.5 0 1-4.1 20m816.9 6.3q-.6-.3-.9 0t.1.6a5.8.8-37.4 0 1-.6.5q-2.2 0-2.8 1.7a27.2 26.8 69.9 0 1-23 1.1 27.2 26.8 67.4 0 1-9.1-6.3 27.2 26.8 71.4 0 1-6.2-27.8 27.2 26.8 69.8 0 1 18.3-17.2 27.2 26.8 69.8 0 1 24.8 6.1 27.2 26.8 66.9 0 1 8.6 15.2 27.2 26.8 71 0 1-3.5 19.4 27.4 27.1 63.3 0 1-5.7 6.7M247.8 483h-1q.5-.2 1 0"/><path fill="#1f211f" d="M272.7 490q.2.4 0 .8-.3 0 0-.8m243.6 3q-1.5.4-3 0 1.5-.3 3 0m-140.1 11.3q-.5-.4-.1-1.1z"/><path fill="#010101" d="M124 510a11 5.5-57.7 0 1-1 1.3q-.5-.9 1-1.2M554.2 553a41 40-1.4 0 1-40 41.1 41 40-1.4 0 1-42-39 41 40-1.4 0 1 40-41 41 40-1.4 0 1 42 39m-1.8 3.3a39.3 38.3 3.4 0 0-37-40.6 39.3 38.3 3.4 0 0-41.4 36 39.3 38.3 3.4 0 0 37 40.6 39.3 38.3 3.4 0 0 41.4-36"/><path fill="#1f211f" d="M120.6 514.2a17 9.2-42.8 0 1-1.8 1.6q-.3-1.4 1.8-1.6"/><path fill="#53aa3b" d="M649.5 514.2q.5.8-.4 1.3 0-.6.4-1.3"/><path fill="#1f211f" d="M86.5 517.6a26.8 26.7-6.7 0 1-3.5-2.8q2.5.6 3.5 2.8m465.9 38.7a39.3 38.3 3.4 0 1-41.5 36 39.3 38.3 3.4 0 1-36.9-40.6 39.3 38.3 3.4 0 1 41.5-36 39.3 38.3 3.4 0 1 37 40.6m-71.5-4.5a32.4 32.2-176.1 0 0 30 34.2 32.4 32.2-176.1 0 0 34.5-30 32.4 32.2-176.1 0 0-30.1-34.2 32.4 32.2-176.1 0 0-34.5 29.9m-362.6-35.5a26.8 26.7 12.4 0 1-4.7 3q1.8-2.1 4.7-3m822.6.1a6.8 2-36 0 1-.8.6q-.4-.4 0-.6.2-.3.8 0m-1.4 1.1a22.8 19.6-37.1 0 1-2.8 1.7q.6-1.8 2.8-1.7"/><path fill="#010101" d="M480.9 551.8a32.4 32.2-176.1 0 1 34.5-30 32.4 32.2-176.1 0 1 30.1 34.4A32.4 32.2-176.1 0 1 511 586a32.4 32.2-176.1 0 1-30.1-34.3m1.6 0a30.8 30.3-176.1 0 0 28.6 32.4 30.8 30.3-176.1 0 0 32.8-28.1 30.8 30.3-176.1 0 0-28.6-32.4 30.8 30.3-176.1 0 0-32.8 28.2"/><path fill="#1f211f" d="M104.3 522a14.9 9-5.6 0 1-2.1 0q1-.3 2 0"/><path fill="#010101" d="M101 522a10.6 4 5 0 1-1.5 0q.8.3 1.5 0m546.2.3q.2.5-.1.7z"/><path fill="#1f211f" d="M646.2 525.5q.2.8-.2.8zM386 537q-.3-.2-.4-.7.3 0 .4.7"/><path fill="#010101" d="M920.8 543.7a.3.3-86.4 0 1 .3.4q-4.6 23.7-11.6 47.9-25.8 88.1-81 161.7a1 1 0 0 1-1 .1q-5.9-5.6-12.8-11.3a1.3.7 61.1 0 0-.1 0l-2.8-1.8a1 1 0 0 1-.2-1.2l3.1-4q28-38.6 48.6-82.4c16.9-35.8 29-74.8 37-113.6a.5.5 0 0 1 .9-.3 34 34 0 0 0 19.6 4.5m-92.7 207.9 1.5-2q28.6-38.7 50.7-85.3 10.7-22.5 16.8-39.6 5.3-15 7-21l4.1-14q3.8-12.3 4.1-13.8 3.3-12.9 6.5-28.1a2 2 0 0 0-1.5-2.3l-14.5-2.8a1.4 1.4 0 0 0-1.5 1c-3.6 14.4-7.5 31.8-12.5 47.5l-1 3.2c-1.2 2.7-1.6 5.3-2.5 8q-10.6 30-14.6 38.8-9 20-17.2 35.3-10.6 19.5-24.9 41.7-4.6 7-13.2 19.2-2.2 3 .7 4.8 6.4 4 10.4 9.3a1 1 46.8 0 0 1.6 0M102.9 544.4l.6-.5c6.7.1 12.3-1.9 18.8-4a.4.4-15.1 0 1 .5.3q1.8 8.3 5.4 22.2 13.2 51.5 33.3 93.1 21.5 44.5 51.5 84a1 1-33.7 0 1-.2 1q-7.4 4.3-14.2 11-1.4 1.5-2.7 1.5a1 1 0 0 1-.8-.5q-8.6-11-19.5-27.6-20-30.4-35.5-64.5-19.3-42.4-31-86.6-4-14.9-6.1-27-.2-1.3-.1-2.4m107.9 195.2c-.5-1.7-1.9-2.5-2.8-3.7q-30.4-42.4-50-83.8-14.2-30-25.7-68.5l-2.7-9.1-2.6-9.2q-1.4-7.1-3.5-14.9c-.7-2.4-1-5-1.4-6.8a1.6 1.5 78.2 0 0-1.9-1.2l-13.9 3.3a2 2 0 0 0-1.5 2.3q3.1 15.4 6.9 28.9 7 24.8 17 51.5 6.4 17 20.6 47.5.8 1.8 2.2 4c2 3.2 3.2 6.5 5.3 10.2q5.6 10 12.2 21.3c3.7 6.3 7.2 11.1 10.8 16.9l7.5 10.8q3.7 5.2 7.4 11a2 2 0 0 0 3 .5l8-7.3.8-.4q2.6-.9 4-2.4a1 1 0 0 0 .3-.9"/><path fill="#1f211f" d="M640.5 540.3q.2.7 0 1.6-.3-.3-.4-.7 0-.5.4-1"/><path fill="#010101" d="M453.7 576.3a35 35 0 0 1-35 35 35 35 0 0 1-35-35 35 35 0 0 1 35-35 35 35 0 0 1 35 35m-1.8 0a33.3 33.3 0 0 0-33.3-33.3 33.3 33.3 0 0 0-33.2 33.2 33.3 33.3 0 0 0 33.2 33.3 33.3 33.3 0 0 0 33.3-33.3m121.6-6.9a35.4 35-168.4 0 1 41.7-27.2 35.4 35-168.4 0 1 27.7 41.4 35.4 35-168.4 0 1-41.7 27.1 35.4 35-168.4 0 1-27.7-41.3m68 8.4q-.2-7.5-1-11.2-.9-3.5-2.1-5.6-7-11.8-19.6-16.3c-3.6-1.2-6.8-1.2-10.6-1.3-14-.3-27.5 7.8-31.6 21.4-3.9 12.8-.9 27 9 36.4q6.4 6.2 15.8 7.5 8.1 1.2 12.2.5 13.4-2.3 20.8-11.3 7.4-8.8 7-20.1"/><path fill="#1f211f" d="M210.6 740.5q-1.5 1.5-4 2.4l-.9.4-8 7.3a2 2 0 0 1-3-.4q-3.7-5.9-7.3-11l-7.6-11c-3.6-5.7-7-10.5-10.8-16.8L156.8 690c-2-3.7-3.3-7-5.3-10.2l-2.2-4q-14.2-30.5-20.6-47.5-10-26.7-17-51.5-3.8-13.5-6.9-28.9a2 2 0 0 1 1.5-2.4l14-3.2a1.6 1.5 78.2 0 1 1.8 1.2q.5 3 1.4 6.8 2.1 7.8 3.5 14.9l2.6 9.2 2.7 9.1Q143.8 622 158 652q19.6 41.4 50 83.8c.9 1.2 2.3 2 2.8 3.7a1 1 0 0 1-.2.9M828 751.6a1 1 46.8 0 1-1.5 0q-4-5.5-10.4-9.4-2.9-1.8-.7-4.8 8.6-12.1 13.2-19.2 14.3-22.2 24.9-41.7 8.1-15.2 17.2-35.3 4-8.8 14.5-38.8c1-2.7 1.4-5.3 2.5-8l1.1-3.2c5-15.7 9-33 12.5-47.5a1.4 1.4 0 0 1 1.5-1l14.5 2.8a2 2 0 0 1 1.5 2.3q-3.2 15.2-6.4 28.1l-4.2 13.9q-2 6.5-4 13.9-1.9 6-7.1 21-6 17-16.8 39.6-22.1 46.6-50.7 85.4zM452 576.2a33.3 33.3 0 0 1-33.4 33.3 33.3 33.3 0 0 1-33.2-33.3 33.3 33.3 0 0 1 33.2-33.2 33.3 33.3 0 0 1 33.3 33.2m-6.1.2a27 27 0 0 0-27.2-27.2 27 27 0 0 0-27.2 27.2 27 27 0 0 0 27.2 27.2 27 27 0 0 0 27.2-27.2m195.7 1.3q.3 11.3-7 20.1-7.5 9-21 11.3-4 .7-12.1-.5-9.4-1.3-15.9-7.5a36 36 0 0 1-8.9-36.4 32 32 0 0 1 31.6-21.4c3.8 0 7 0 10.6 1.3q12.7 4.5 19.6 16.3 1.2 2.1 2 5.6.9 3.7 1 11.2m-6.1-1.4A27.4 27.4 0 0 0 608 549a27.4 27.4 0 0 0-27.3 27.3 27.4 27.4 0 0 0 27.3 27.4 27.4 27.4 0 0 0 27.4-27.4m12.4-31.3q0 .5-.2.9t-.8.3-1.1-.7q1.2.1 2.1-.6"/><path fill="#010101" d="M445.9 576.4a27 27 0 0 1-27.2 27.2 27 27 0 0 1-27.2-27.2 27 27 0 0 1 27.2-27.2 27 27 0 0 1 27.2 27.2m-23.8-25.3a25.6 25.4-82.2 0 0-28.6 21.9 25.6 25.4-82.2 0 0 21.7 28.8 25.6 25.4-82.2 0 0 28.5-22 25.6 25.4-82.2 0 0-21.6-28.7m213.3 25.2a27.4 27.4 0 0 1-27.4 27.4 27.4 27.4 0 0 1-27.3-27.4A27.4 27.4 0 0 1 608 549a27.4 27.4 0 0 1 27.4 27.3m-1.6-1.8a25.8 25.5-4.2 0 0-27.6-23.5 25.8 25.5-4.2 0 0-23.9 27.3 25.8 25.5-4.2 0 0 27.6 23.6 25.8 25.5-4.2 0 0 23.9-27.4M453.7 743.3c-6-2-11.2-4.8-13.8-10.8q-1.3-3.2-1.3-12.2v-44q0-12.9 1.7-20 2.4-10 7.2-18.8c1.7-3 4.3-6.5 6.6-9.5q1.7-2.3 2.9-3.5 15-15.8 35-21.4 18.1-5 36.7-1.2a77 77 0 0 1 46.4 30.8 70 70 0 0 1 13 43c-.3 19.6.1 37.2.1 50.8q0 7.3-4.7 11.2c-1.7 1.4-5 3.5-7.5 4.4q-13.1 4.6-24.5 6.4-25.9 4-52.7 2.3l-8.9-.6q-4.9-.3-8.7-1l-14.5-2.4q-5.3-1.2-13-3.5m120.8-108.7q-10.3-14.2-23.3-22-14.4-8.7-30.3-10.1-11.6-1-23 1-11 1.9-21.4 7.7Q450 626 442.1 657q-1.2 4.5-2 18.7c0 2 .4 4.6.4 6.8.2 8-.4 23 0 34.5l.6 11.5c.4 10.7 12.1 12.8 20.2 15.1q3.9 1.1 9 2 13.4 2.2 14.7 2.3 26.2 2.4 51.6.5 12.4-1 26.7-4 3.3-.7 5.8-1.6c5.3-1.8 8.3-3 12.6-5.9q3.8-2.5 4.3-7.1.5-5.1 0-19-.1-2.8.3-15.8c.1-3.2-.3-7.5-.3-11.7v-15q0-3.2-.6-6.5l-1.2-6.3q-2.8-11.4-9.7-21"/><path fill="#1f211f" d="M574.5 634.6q6.9 9.5 9.7 20.9l1.2 6.3q.6 3.3.6 6.4v15.1c0 4.2.4 8.5.3 11.7q-.4 13-.3 15.8.5 13.9 0 19-.5 4.6-4.3 7.1c-4.3 2.9-7.3 4-12.6 6q-2.5.8-5.8 1.5-14.3 3-26.7 4-25.4 1.9-51.6-.5-1.2 0-14.7-2.3-5.1-.9-9-2c-8-2.3-19.7-4.4-20.2-15.1l-.5-11.5c-.5-11.5 0-26.5 0-34.5q-.4-3.5-.4-6.8.7-14.2 1.9-18.7 7.8-31 34.4-45.8 10.5-5.8 21.5-7.8 11.3-2 22.9-1 15.9 1.5 30.3 10.2 13 7.8 23.3 22m-4.2 13.3q-3.7-9.7-9-15.8-5.9-7-9.8-10-5.8-4.6-9.5-6.2c-7.5-3.4-14-5.7-22-6.6q-21.1-2.2-39.6 8.5-9.6 5.6-15.5 13.6-7.1 9.7-10.7 21.4-2.2 7.2-2.5 20.1-.1 6.8.2 20.4.2 6.8.2 36.1a3 2.8 38.3 0 0 .1.8q1.2 4.6 5.9 5.8 15.7 4.2 34 5.8l16 .8c8 .3 16-.3 23.6-.6 5-.1 9.1-1 14-1.3 4.8-.2 11.3-1.6 16-2.6 5-1 10.3-2.2 12.5-6.7l.3-1q.7-29 0-57.8a67 67 0 0 0-4.2-24.7"/><path fill="#010101" d="M570.3 647.9c3.1 8 4 14.9 4.3 24.7q.6 28.9-.1 57.9l-.3 1c-2.2 4.4-7.5 5.6-12.5 6.6-4.7 1-11.2 2.4-16 2.6s-9 1.2-14 1.3c-7.7.3-15.6 1-23.6.6l-16-.8q-18.3-1.6-34-5.8-4.7-1.2-5.9-5.8a3 2.8 38.3 0 1-.1-.8q0-29.3-.2-36.1-.3-13.6-.2-20.4.3-13 2.5-20.1 3.6-11.7 10.7-21.4 6-8 15.5-13.6 18.5-10.7 39.6-8.5c8 .9 14.5 3.2 22 6.6q3.7 1.6 9.5 6.2 4 3 9.9 10 5.1 6.1 9 15.8m-1.4 86.5c4.5-1.6 4.3-4.9 4.3-8.6v-51q0-8.9-1-15.2a59 59 0 0 0-32.9-43.2 62 62 0 0 0-64.4 6.9 60 60 0 0 0-21.7 46.2l.1 53c0 6.4-.6 10.6 6 12.2q23.6 5.8 48 6.3 22.7.4 47.7-3.2 8.2-1.2 14-3.4"/><path fill="#9cea6c" d="M573.2 725.8c0 3.7.2 7-4.3 8.6q-5.7 2.2-13.9 3.4-25 3.6-47.7 3.2-24.4-.5-48-6.3c-6.6-1.6-6-5.8-6-12.3q-.2-47 0-52.9a60 60 0 0 1 21.6-46.2 62 62 0 0 1 64.4-7 59 59 0 0 1 32.8 43.3q1.2 6.3 1.2 15.1zm-115.7 6.7c5.3 2.4 11.1 3.1 16.4 4.2q5.3 1 6.8 1 6 .5 7.9 1 2.4.5 7.9.4t10.8.4q4.3.5 15.7-.4h7.2q3.7.2 7.1-.2 13.5-1.5 24.7-3.7 6-1.1 7.6-2.4 2.7-2.2 2.7-4.8v-56.7q.2-6-.9-11-1.5-6.9-3-10.7-9.8-25.7-36.8-33.4-7.2-3.9-17.1-4-20-.3-35.1 9.4-10 6.4-16.7 18.3-7.4 12.9-7.6 26.9-.2 8.7 0 63.2 0 1.6 2.4 2.5"/><path fill="#5dbd50" d="m531.6 616.2-9.6-.8q-9.2-.9-17.8.8-6.4 1.3-12.8 4.8-8 4.3-11.5 7.4-5.5 4.9-9.8 10.7c-3 4-4.5 9-6.6 13q-2.3 4.6-3.3 10.4-1.6 9.4-1.6 15 0 22-.8 50.2 0 2.3-.3 4.8-2.5-.9-2.5-2.5v-63.2q.3-14 7.6-26.9 6.9-12 16.8-18.3 15-9.7 35-9.4 10 .1 17.2 4"/><path fill="#53aa3b" d="M531.6 616.2q27 7.6 36.8 33.4 1.5 3.8 3 10.7 1.1 5 1 11V728q0 2.6-2.8 4.8-1.6 1.3-7.6 2.4-11.2 2.2-24.7 3.7-3.4.4-7.1.3-5.6-.2-7.2 0-11.4.8-15.7.3-5.4-.5-10.8-.4t-8-.5q-1.8-.4-7.8-.8-1.5-.1-6.8-1.1c-5.3-1-11-1.8-16.4-4.2l.3-4.8q.8-28.2.8-50.2 0-5.6 1.6-15 1-5.8 3.3-10.4c2.1-4 3.6-9 6.6-13q4.3-5.9 9.8-10.7 3.6-3.1 11.5-7.4 6.4-3.5 12.8-4.8 8.6-1.7 17.8-.8z"/><path fill="#010101" d="m452.5 624-1.6 1.4-.5.5q-1 2.4-2.7 4.3a1 1 0 0 1-1 .2q-18.7-6.6-38.2-4.1-10.3 1.3-19.7 6.6-20.1 11.5-20.4 34.6-.3 20-.2 32 0 2.4 1.3 4 3.8 4.6 10.3 4.5h52a1.2 1.2 0 0 1 1.1 1.2v8.8a1.2 1.2 0 0 1-1.1 1.2h-53.5q-4.5 0-10.3-2.9c-7-3.3-11-9.6-11-17.3v-28.3q-.2-5 1.2-10.8 1.6-7.2 3-10.5 8.4-20.5 29.4-29c13.7-5.4 29-6 43.9-3.9q9.7 1.5 18 6.6a.5.5 0 0 1 0 .8m-3.7 2a3 3 0 0 0-1.7-4.1q-8.8-3.3-13-3.8-19-2-32.7.6-10.7 2-20.1 8.5-6.4 4.3-9.2 7.4-1.1 1.3-4.6 6.3-2.7 3.7-3.9 6.7-3.6 9.1-4.2 19.8c-.3 7 .1 15.3-.4 22.4q-.6 8.2-.4 10.5 1 8.3 6.4 12.2 7 5 16.4 4.9l48.7-.3a1.2 1.2 90 0 0 1.1-1.2V711a1 1 89.7 0 0-1-1l-49.9-.2a15 15 0 0 1-9.8-3q-4.3-2.9-4.2-7.7v-8.5q-.6-12 0-23 .4-7.7 1.4-11.5t4.8-10.5q2.7-4.7 7.4-8.5 6.5-5.3 9.3-6.5 10.2-4.4 14.6-5.4 20.3-4.3 40.5 2.7a3.6 3.6 21.8 0 0 4.4-2m126.8-1.1q1.7 1.2 2 2.8a2 2-16.3 0 0 2.7 1.5 75 75 0 0 1 48.4-2.8q2.8.7 4 1.3c3.6 1.6 6.3 2.2 9.5 4.3q4.4 3 8 6.4 5.5 5.3 9 12.7a46 46 0 0 1 3.8 20q.3 15.3 0 26.5 0 9.3-8.2 11.7c-2.8.8-5.8.6-9.2.7h-47.3a1 1-89.7 0 0-1 1.1v5.1a1 1 0 0 0 1 1q22 .4 47 .1 7.2 0 10.4-.7 3.2-.5 7.8-4c4.6-3.4 6.4-7.7 6.4-13.3v-24.9q-.1-12-1.5-17a47 47 0 0 0-16-25.8q-3.6-2.7-7.5-5.3-9.9-6.3-20-7.6-1.2 0-6-.9-3-.4-6-.4l-14.3.1q-12 .7-23.5 6.7-1.2.3-1.1-.7t1-1.4q14-6 27.1-6.5 7.8-.3 15.6.3 19.9 1.7 34.8 13.6 13 10.4 17.7 27.6 1.8 6.8 1.6 17.3-.2 5.9 0 24 .2 8-4.5 13.1-4.9 5.3-12.1 7.2-2 .6-14.2.6h-45a1 1 0 0 1-.8-.7v-9.7a1 1 0 0 1 .7-.7q22.8-.3 54.5 0 8.4 0 10.4-7l.2-1v-22.5q.1-15-1.5-20.8c-5.5-19-23.5-29.3-42.6-30.8q-11.7-1-22.9.6-4.8.7-8.2 1.7-3 1-7.8 2.9a.5.5 71.1 0 1-.7-.4z"/><path fill="#1f211f" d="M448.8 626h-.1a3.6 3.6 21.8 0 1-4.4 2q-20.2-7-40.5-2.7-4.4 1-14.6 5.4-2.8 1.2-9.3 6.5-4.7 3.8-7.4 8.5-3.8 6.7-4.8 10.5t-1.4 11.6c-.3 7-.5 15 0 23v8.4q0 4.8 4.2 7.8a15 15 0 0 0 9.8 3h49.9a1 1 89.7 0 1 1 1v4.9a1.2 1.2 90 0 1-1.1 1.2l-48.7.3q-9.4 0-16.4-5-5.4-3.8-6.4-12.1-.2-2.3.4-10.5c.5-7.1 0-15.5.4-22.4q.6-10.7 4.2-19.8 1.2-3 3.9-6.7 3.5-5 4.6-6.3 2.8-3 9.1-7.4 9.5-6.5 20.3-8.5 13.7-2.6 32.7-.6 4 .5 12.9 3.8a3 3 0 0 1 1.6 4m126.8-1.1q-.3-.1-.5-.7 11.5-6 23.5-6.7l14.2-.1q3 0 6 .4l6 1q10.2 1.2 20 7.5 4 2.6 7.5 5.3a47 47 0 0 1 16.1 25.8q1.4 5 1.5 17v25c0 5.5-1.8 9.8-6.4 13.3q-4.6 3.4-7.8 4-3.2.5-10.4.6-25 .3-47 0a1 1 0 0 1-1-1V711a1 1-89.7 0 1 1-1h47.3c3.4-.1 6.4 0 9.2-.8q8.1-2.4 8.3-11.7.1-11.2 0-26.5c-.2-7.2-.8-13.8-3.8-20q-3.6-7.4-9.2-12.7-3.5-3.4-8-6.4c-3-2.1-5.8-2.7-9.4-4.3q-1.2-.6-4-1.3a75 75 0 0 0-48.4 2.8 2 2-16.3 0 1-2.8-1.5q-.2-1.6-1.9-2.8m115.1 8.2q-1.8 4.4-3.5 5.4-5.7 3.2-7.7 7.1-.3-.2-.3-1 0-1.3 1.1-2.2 6-4.5 10.4-9.3m-8.8 18q-1-1.3-1.3-3 1 1.2 1.3 3m.5 1q-.4-.4-.5-1 .5.3.5 1m.7.7q-.2.5-.7 0z"/><path fill="#010101" d="M275.7 786.2a40 40 0 0 1-29.6 38.2 42 42 0 0 1-53.7-41 42 42 0 0 1 56.2-37.3 40 40 0 0 1 27 40m-81.4-7.4a40.3 39.8-171.4 0 0 33.9 45.4 40.3 39.8-171.4 0 0 45.8-33.4 40.3 39.8-171.4 0 0-34-45.4 40.3 39.8-171.4 0 0-45.7 33.4m557.1-8.7a41.7 41.1-159.3 0 1 53.6-23.6 41.7 41.1-159.3 0 1 24.5 53.2 41.7 41.1-159.3 0 1-53.6 23.7 41.7 41.1-159.3 0 1-24.5-53.2m3.3-3.7a40.3 39.6-152.8 0 0 17.8 53.6 40.3 39.6-152.8 0 0 53.9-16.8 40.3 39.6-152.8 0 0-17.8-53.5 40.3 39.6-152.8 0 0-53.9 16.7"/><path fill="#1f211f" d="M194.3 778.8a40.3 39.8-171.4 0 1 45.8-33.4 40.3 39.8-171.4 0 1 33.9 45.4 40.3 39.8-171.4 0 1-45.8 33.4 40.3 39.8-171.4 0 1-34-45.4m18-18.2q-.7 2-3 3.2-8.4 7.3-9.4 19.6c-.3 3.5.8 6.8 1.2 10.4a4.5 4.2 33.5 0 0 .3 1q5.9 16.4 22.5 22.2c3 1 6 1.1 8.7 1.8a6.7 6.5-40.4 0 0 2 0q10.7-1 17-5.2c9.4-6.2 17.3-17.7 16.7-29.5q-.4-7.9-3.4-13.8-5.5-11-18-16.7-4-1.9-11.7-2.4a3.8 3.6-46.5 0 0-1 0q-8 1.4-10 1.9-7.4 1.7-12 7.5m542.5 5.7a40.3 39.6-152.8 0 1 54-16.7 40.3 39.6-152.8 0 1 17.7 53.5 40.3 39.6-152.8 0 1-54 16.8 40.3 39.6-152.8 0 1-17.7-53.6m59.2-3.4-4-4q-6-7.3-16.8-7.6c-3.5 0-8.3-.2-11.7 1.1q-15.3 5.8-21.6 18.5-3.9 7.6-3 17.8c.3 3.3 1.7 6.7 2.9 9.8l1.1 2.2q3.8 5.5 6.8 8.4 8.4 8.2 20.7 9.5 7 .8 13.6-2a37 37 0 0 0 18.9-17.2c1.9-4.3 3.7-8 3.4-12.9-.1-3.3 0-5.7-.7-8.6-1.2-4.2-4.6-14-9.6-15"/><path fill="#010101" d="M209.2 763.8q-5.7 8.4-7 16.2-1.7 11.3 3.7 20.8a33 33 0 0 0 30.6 16.2q7.7-.5 14-4.2a32 32 0 0 0 15.7-33.1q-2.4-14.7-15.2-22.3-13.9-8.3-29.4-2-2.8 1-9.3 5.2 4.5-5.8 12-7.5 2-.5 10-1.9a3.8 3.6-46.5 0 1 1 0q7.6.5 11.7 2.4 12.4 5.7 18 16.7 3 6 3.3 13.8c.6 11.8-7.3 23.3-16.7 29.5q-6.3 4.3-17 5.3a6.7 6.5-40.4 0 1-2-.1c-2.8-.7-5.8-.7-8.7-1.8q-16.6-5.8-22.5-22.2a4.5 4.2 33.5 0 1-.3-1c-.4-3.6-1.5-6.9-1.2-10.4q1-12.3 9.3-19.6m600.6-4.8q-13.1-8.5-26.3-5.5-12.7 2.9-20.6 14.9-2.7 4-3.8 8.7-1.4 5.9-1 9.5 2.6 19.4 18.6 27.2 8.5 4 17.3 3.1c11.1-1.2 21.7-9 26-19.6q6.6-16.2-3.2-30.3l-3-4c5 .8 8.4 10.7 9.6 14.9.8 3 .6 5.3.7 8.6.3 4.8-1.5 8.6-3.4 13a37 37 0 0 1-19 17q-6.5 2.9-13.5 2.1-12.3-1.3-20.7-9.5-3-2.9-6.8-8.4l-1.1-2.2c-1.2-3.1-2.6-6.5-3-9.8q-.8-10.2 3-17.8 6.4-12.7 21.7-18.5c3.4-1.3 8.2-1.1 11.7-1q10.8.2 16.8 7.5"/><path fill="#53aa3b" d="m260.9 784.2-.4 5a27 27-23.5 0 1-4 10.4q-.6.4-.8 1a27 27-85.5 0 1-9 7.8q-2.8 0-4.4 1.8a27 27-30.8 0 1-27.1-7 27 27 16.9 0 1-6.9-12.7 26.6 26.6 72.1 0 1 15.4-30 26.6 26.6-29.7 0 1 32.1 8.7 26.6 26.5 26.4 0 1 5 15m530.5 27q-.8-.5-1.6 0a26 26-29.8 0 1-12-3.2 26 26 4 0 1-12-13.8 27 27 42.6 0 1-.7-16.7 26 26 .5 0 1 18.5-18.2q.9.2 1.7-.4a26 26-40.1 0 1 14.7 1.2 26 26-86.7 0 1 16 18.1 26 26 52.6 0 1-2.5 19.6 26 26 4.8 0 1-14 11.8 26.5 26.2-55.7 0 1-8 1.6"/><path fill="#1f211f" d="M785.2 758.9q-.9.6-1.7.4a12 5.3-11.2 0 1 1.7-.4m-524.3 25.3a27.4 26.8 49.4 0 1-.4 5z"/><path fill="#010101" d="M256.4 799.6a9.4 2.8-55.8 0 1-.7 1q.2-.6.7-1m499.4 21a1 1 0 0 1-.1 1.3q-19.1 14.2-33.5 24.3-38.6 27-78.9 49.4-12.4 7-32 17.2-37.5 19.7-94.2 46.5l-5.2 2-.9.1q-4.5-1.5-6-2.2L447.5 931l-31.2-16q-48.3-25-94.4-55.8c-18-12-33-23.4-51.6-37.3a1 1 0 0 1-.1-1.3q5.8-6.3 11-14.7l.7-.3c1.6.7 3 2.4 4.4 3.4 8.7 6.2 23.2 17.6 33.9 25q29.1 20 54.9 34.7 52 29.8 105.2 54l30 14a2.9 2.8 45.2 0 0 2.5 0c39.4-18 77-35.8 114.1-55.8q42.4-23 81.2-50.4 15.5-11 35.3-25.6a.6.6 57.6 0 1 .9.3q4.4 8.2 11.5 15.4m-2.5-.6-4.3-4.8-.1-.2q-2.6-3.8-5.3-6.8a1 1 0 0 0-1.6-.1l-27.6 19.8q-14 10-20.6 14.4-8.8 5.9-31.8 20.3c-7.5 4.7-15.6 9-23.2 13.4-13.5 7.8-24.6 13.3-40.2 21.5-11.3 6-25.6 12.5-35.5 17.5q-9.2 4.7-24.8 11.7-9.3 4.2-24.8 11.7a4 4-44.4 0 1-3.5 0q-8.6-4.4-13.8-6.5c-5.7-2.4-9.6-4.6-15.4-7.1q-4.4-1.9-11.6-5.3-35.4-16.7-68.2-34.5-36.6-19.8-68.7-41-19-12.6-40.5-29-3.3-2.7-8.9-6.4a1.5 1.5-54.7 0 0-2 .4l-8 10.8a1.6 1.6 37.3 0 0 .3 2.2q36 28.1 73.5 51.2 6.3 4 7.2 5l4.7 2.7 4.6 2.7 22.4 13c9.8 5.1 16.5 9.2 25.3 13.7l21.6 11.2q10.6 5.7 27.1 13.6 11 5.3 24.3 12l24.2 11.8q2.9 1.3 4.9.7a46 46 0 0 0 8.6-4.6 2.9 2.8-67.3 0 1 .9-.4q1.4-.3 15.8-7.2 72.4-34.9 118.8-61.2l4.8-3 4.9-2.9q5.2-3 20.5-12.8l6.8-4.4 26-17.2q12.7-8.8 24.3-17.7 4.5-3.4 8.6-6a1.5 1.5 0 0 0 .3-2.2"/><path fill="#1f211f" d="M753.3 820a1.5 1.5 0 0 1-.3 2.2q-4.1 2.6-8.6 6-11.6 8.9-24.3 17.7l-26 17.2-6.9 4.4q-15.2 9.8-20.4 12.8l-4.9 3-4.8 2.9q-46.5 26.3-118.8 61.2-14.4 7-15.8 7.2a2.9 2.8-67.3 0 0-.9.4 46 46 0 0 1-8.6 4.6q-2 .6-4.9-.7-12.5-6-24.2-11.9l-24.3-11.9q-16.5-8-27.2-13.6-15.5-8.2-21.5-11.2c-8.8-4.5-15.5-8.6-25.3-13.7l-22.4-13-4.6-2.7q-4.5-2.5-4.7-2.8-1-1-7.2-4.9-37.6-23.1-73.5-51.2a1.6 1.6 37.3 0 1-.3-2.2l8-10.8a1.5 1.5-54.7 0 1 2-.4q5.6 3.7 9 6.3 21.4 16.5 40.4 29 32 21.3 68.7 41.1 32.8 17.8 68.2 34.5 7.2 3.4 11.6 5.3c5.8 2.5 9.6 4.7 15.4 7q5.2 2.2 13.8 6.6a4 4-44.4 0 0 3.5 0q15.5-7.5 24.8-11.7 15.6-7 24.8-11.7c9.9-5 24.2-11.6 35.5-17.5 15.6-8.2 26.7-13.7 40.2-21.5 7.6-4.4 15.7-8.7 23.2-13.4q23-14.4 31.8-20.3 6.7-4.5 20.6-14.4 19.3-14 27.6-19.8a1 1 0 0 1 1.6.1q2.7 3 5.3 6.8l.1.2zm-506.7-11.6a27.3 26.8-67.1 0 1-4.3 1.8q1.6-1.8 4.3-1.8m544.7 2.8a11.7 5-3 0 1-1.6 0q.8-.5 1.6 0"/></svg>