<svg xmlns="http://www.w3.org/2000/svg" viewBox="0 0 1024 1024"><path fill="#fefefe" d="m193.4 147.1 2.2-.4 2.1-.5q22.3-2.7 48-6.7 8.1-1.2 13-2.3l17-3a787 787 0 0 0 137.8-38.8q48.8-18.8 95.7-43a3 3 0 0 1 2.3 0c9 4.1 17.2 8.6 27.2 13.2Q563 77 599 91.3q31 12.3 57 20.6 24.4 7.6 55.5 15 46 11 91.3 16.5l24.6 3a1 1 0 0 1 .7.8l-3.7 19a1 1 0 0 1-.8.6q-26.6-3.3-37.3-4.9-57.6-8.5-115-24.8-24.8-7-50.5-16.2-56.2-19.8-108.4-45.7a2 2-47.3 0 0-1.5 0c-3.4 2-7.6 3.8-10.5 5.2q-37.6 17.8-73 31.6-18.6 7.2-35.7 12.9-43 14.1-86.5 24.2c-9.8 2.3-23.7 4.9-31.1 6.5q-6.5 1.4-19 3.4-28.3 4.6-58.5 7.8l-.2-.2-3.5-18.8zm4.3 18.3q.7.2 1.3 0l6.8-1.2q5-.3 10.5-1l31.4-4.6q13.5-2 54-10.3c9.3-2 18.4-4.7 28.5-7.1q6.7-1.6 32.3-9 32.4-9.4 64-21.6c4.3-1.6 8.8-3.7 12.6-5.2q14.2-5.7 24.4-10.1 18.9-8.1 47.3-21.8a2 2-41.3 0 1 2.2.2q3.3 2.1 8 3.6a6 5.1 63.7 0 1 1 .4q5.7 3.2 7.9 4.2l25 11.3q9 4.2 33.2 13.8c7 2.7 9.8 4 15.7 6.1l21.5 7.8a986 986 0 0 0 68.5 20.7q38 9.7 75.5 16c2.3.5 4 .3 6 .9q1 .3 4.5.8l12 1.8q6.1 1.2 12 1.7 4 .3 12.5 1.5a4 3.5 55.3 0 1 .8.2q2.2.8 4.9.7a1 1 3.9 0 0 1.1-1l3-15.6a1 1 0 0 0-.7-1q-12.8-1-26.4-2.8l-26-3.9q-13-1.9-26-4.4-48.3-9.4-95-24.1-12.6-4-19.8-6.8l-19.7-7.1q-4-1.5-6.6-2.7c-5.5-2.4-11.6-4.5-16.4-6.5l-30.3-12.6q-5-2.1-11-5c-4.2-2-11.4-4.7-17-7.7q-3.2-1.8-6-3c-3.8-1.6-8.6-4.9-12.8-6.5a5 5-47.5 0 0-3.7.1q-15.7 7.9-34 16.6-13.5 6.5-31.6 14-22.1 9.3-32 13l-20.9 7.6q-9.5 3.5-21 7l-28.8 8.4q-24 6.3-30.2 7.7-39.2 9-99.4 17.6-3 .4-12.5 1-1.2.1-3 .6a1 1 88.3 0 0-.7.7q-.4 1.7 0 3.1 2 6.3 2.3 12.4a1 1 0 0 0 .8 1.1"/><path fill="#e1dfe0" d="M197.8 165.4a1 1 0 0 1-.9-1.1q-.3-6.1-2.2-12.4-.5-1.4 0-3.1a1 1 88.3 0 1 .6-.7q1.8-.5 3-.6 9.5-.6 12.4-1 60.3-8.7 99.5-17.6l30.2-7.7 28.8-8.4q11.5-3.5 21-7l20.9-7.5q9.9-3.8 32-13 18.1-7.6 31.6-14 18.3-8.8 34-16.7a5 5-47.5 0 1 3.7-.1c4.2 1.6 9 4.9 12.9 6.5q2.8 1.2 6 3c5.5 3 12.7 5.7 17 7.8q5.8 2.8 10.9 4.9l30.3 12.6c4.8 2 10.9 4 16.4 6.5q2.6 1.2 6.6 2.7l19.7 7.1q7.2 2.8 19.8 6.8 46.7 14.7 95 24.1 13 2.5 26 4.4l26 3.9q13.6 1.9 26.4 2.8a1 1 0 0 1 .7 1l-3 15.6a1 1 3.9 0 1-1.1 1q-2.7 0-5-.7a4 3.5 55.3 0 0-.7-.2q-8.4-1.2-12.4-1.5-6-.5-12-1.7l-12.1-1.8q-3.4-.5-4.5-.8c-2-.6-3.7-.4-6-.8q-37.5-6.4-75.5-16.1a986 986 0 0 1-68.5-20.7l-21.5-7.8c-5.9-2.1-8.8-3.4-15.7-6.1q-24.2-9.6-33.1-13.7-10-4.7-25.1-11.4-2.2-1-8-4.2a6 5.1 63.7 0 0-.9-.4q-4.7-1.5-8-3.6a2 2-41.3 0 0-2.2-.2q-28.4 13.7-47.3 21.8-10.2 4.4-24.4 10c-3.8 1.6-8.3 3.7-12.6 5.3q-31.6 12.2-64 21.6-25.6 7.4-32.3 9c-10 2.4-19.2 5.2-28.4 7q-40.6 8.4-54 10.4l-31.5 4.5q-5.5.8-10.6 1l-6.7 1.4q-.6.1-1.2-.1"/><path fill="#fefefe" d="m846.4 192.8-3.8-4.4q-6-8-7.5-14.4-4.4-20 7.5-36 9.6-12.8 25.7-15.8 16.5-3 30.3 6.5a43 43 0 0 1 18 40.8 41 41 0 0 1-24.3 31.3q-20.9 8.8-39.6-3.3c-2-1.2-4-3.2-6.4-4.7m62.3-51.9a40 39.9-33.6 0 0-55.4-11 40 39.9-33.6 0 0-11.3 55.3 40 39.9-33.6 0 0 55.5 11.1 40 39.9-33.6 0 0 11.2-55.4m-730 47.1-1.6 2-1 1.2a41.8 41.8 0 0 1-71.8-25.7l-.1-2.5v-3.7a40.8 40.8 0 0 1 51.1-36.6c23.5 5.7 38.4 32.8 29 55.4q-2 4.4-5.6 9.9M118 133.7a40.1 39.6-133.2 0 0-1.5 56.4 40.1 39.6-133.2 0 0 56.4 2 40.1 39.6-133.2 0 0 1.4-56.3 40.1 39.6-133.2 0 0-56.3-2"/><path fill="#e1dfe0" d="M118 133.7a40.1 39.6-133.2 0 1 56.3 2.1 40.1 39.6-133.2 0 1-1.4 56.4 40.1 39.6-133.2 0 1-56.4-2.1 40.1 39.6-133.2 0 1 1.5-56.4m59.3 40q3.1-9.7.5-19.5-1.4-5.7-5-10-4.1-5.2-7.9-8.4-5-4.3-14.6-6.7l-1.1-.1c-3 .1-6.1-.3-9.1.3q-10.3 1.9-18 9.1l-2.5 2.5a4.9 4.7 84.7 0 0-.9 1c-1.5 2.7-3.3 5-4.4 7.7q-3.7 8.9-2.5 18.4a5 4.6 32.8 0 0 .2 1c1.6 4.2 2.6 8.1 4.7 11.4q3 4.5 3.7 5.3l6.4 5.1q2.6 2 6.9 3.7c13.4 5.2 26 1 36.2-8.3a7.9 7.8-4.4 0 0 1.4-1.5c1.9-2.9 4-5.4 5-8.2zM908.7 141a40 39.9-33.6 0 1-11.2 55.3 40 39.9-33.6 0 1-55.5-11 40 39.9-33.6 0 1 11.3-55.4 40 39.9-33.6 0 1 55.4 11m.3 25a36 36 0 0 0-27.8-36.8 4 3.8-36.4 0 0-1-.1l-9.7.1q-12 2.4-19.6 11.2-2 2.3-2.8 2.9a.9.7-85.2 0 0-.2.1q-4.8 6.8-5.8 15.8a32 32 0 0 0 14.4 31.6q16.9 10.8 33.8 2.3c2.3-1.2 3.9-2.9 5.8-4q2-1.1 4-3.2 3.8-4 5.3-7a9.7 9.1-25 0 0 .8-2c.8-3 2.6-7.3 2.8-11"/><path fill="#fefefe" d="m177.3 173.7-1 2.8c-1 2.8-3.1 5.3-5 8.2a7.9 7.8-4.4 0 1-1.4 1.5c-10.2 9.3-22.8 13.5-36.2 8.3q-4.2-1.7-6.8-3.7-5.3-4-6.5-5.2-.8-.7-3.7-5.2c-2.1-3.3-3-7.2-4.7-11.4a5 4.6 32.8 0 1-.2-1q-1.2-9.5 2.5-18.4c1-2.7 2.9-5 4.4-7.6a4.9 4.7 84.7 0 1 .9-1l2.6-2.6q7.6-7.2 17.9-9.2c3-.5 6.1 0 9-.2h1.2q9.7 2.5 14.6 6.8 3.8 3.2 8 8.3 3.5 4.4 5 10.1 2.5 9.8-.6 19.5m.3-10.8a32.3 32.3 0 0 0-32.2-32.3A32.3 32.3 0 0 0 113 163a32.3 32.3 0 0 0 32.3 32.3 32.3 32.3 0 0 0 32.3-32.3m703.6-33.8A36 36 0 0 1 909 166c-.2 3.6-2 7.9-2.8 11a9.7 9.1-25 0 1-.8 2q-1.5 2.8-5.3 6.9-2 2-4 3.3c-2 1-3.5 2.7-5.8 4q-17 8.4-33.8-2.4a32 32 0 0 1-14.4-31.6q1-9 5.8-15.7a.9.7-85.2 0 1 .2-.2q.8-.7 2.8-3 7.7-8.7 19.6-11 1.2-.3 9.7-.2a4 3.8-36.4 0 1 1 .1m5.2 3.4a32.3 32.3-70.2 0 0-41.2 19.5 32.3 32.3-70.2 0 0 19.3 41.3 32.3 32.3-70.2 0 0 41.2-19.5 32.3 32.3-70.2 0 0-19.3-41.3"/><path fill="#70c456" d="M172 161q-1.7 3.1-.2 5.3a26.9 26.6 66.9 0 1-18.1 22.1 26.8 26.2 51.6 0 1-7.4 1.3 26.9 26.5 67.6 0 1-25.2-16.1 26.9 26.6 67.6 0 1-.4-20.8 27 26.6 67.5 0 1 16.5-15.6 26.9 26.6 67.3 0 1 30.3 10.8 26.9 26.5 64.8 0 1 4.4 13"/><circle cx="875.5" cy="162.8" r="26.7" fill="#70c456"/><path fill="#fefefe" d="M760.2 253q1.5 2.9 3.7 4 3.4 3 5.7 5.6l6.3 7q3.6 3.8 6.2 7 29 35.8 47.9 78.1 21.8 49 27.4 102.4.8 7.6.7 9.5c0 2 .8 4.8.8 6.9 0 6.5.8 12.8.7 19.3q-.4 23.6-3.6 45a342 342 0 0 1-67 157.6q-28 36-67.1 64.2-71.6 51.5-159.2 64.2h-.8l-17.1 2-.8.1q-29.4 2.4-58.7 0-.7-.3-1.6 0-18.1-2.1-24.6-3.3-74.1-13.4-134.8-56-38.3-26.8-68.2-61.2c-11.8-13.5-24-29-33.7-44.4q-25.5-39.9-39.8-83.9a319 319 0 0 1-14.4-79.6V496l-.1-18.8v-5l1-12.2v-1l2.4-19.3q3.5-26.2 10-48 16.7-56.3 51-102.3 5.7-7.6 12-15 5-5.7 12.8-14.1 1-1.2 2.1-1.9 2.5-1.3 3.7-4 33-33 68.3-53.7 50.4-29.5 105.5-42 19.1-4.4 34.8-6.2L489 151a310 310 0 0 1 36.4-.7c1.4 0 3.3.5 4.7.6q15.5.5 28.2 2.3 89.3 13 160.4 64Q739 232 760.2 253m95.2 202.2q-3.3-33.3-14-65.6l-4.5-13.6q-2.4-7.3-10-24.2-6.2-13.7-17.8-33.9-10.8-18.5-27.1-39.2c-5.1-6.4-10.6-11.7-15.4-17.1-2-2.4-5.3-4.5-7.1-6.7-4-5-9.5-9.2-13.4-13.2-4-4.2-7.4-6.5-12.5-11.2-6.6-6-13.1-9.6-19.9-14.9q-3.1-2.5-8.4-5.5c-1.5-.9-3.1-2.4-4.5-3.2q-20-11.9-26.5-15.2-30.4-15.4-62.2-25.2c-6.7-2-14.2-3.5-21.7-5.5q-7.8-2.1-16.4-3.6-21.2-3.6-48.5-5.4l-3.2-.2q-8.8-.4-21.5.1-23.3 1-48.2 5.3-20.9 3.6-35.7 8.3-16.7 5.3-29.3 9.9-6 2.2-26.7 11.5-5.5 2.5-14.8 7.4-11.8 6.3-19 10.8l-14 9.1q-6.5 4.4-13.4 10c-5 4.1-8.7 6.6-12.7 10.3-7.4 6.5-11.6 10.7-17.5 15.3q-3.9 3-6.4 7l-1 1.2c-2.5 2.3-4.5 3.8-7.2 6.7q-16.6 18.2-30.6 39-2.8 4.2-7.7 12.4l-7.3 12.4q-24.8 45.6-33.1 93.5c-.9 5-1.7 8.1-2.2 12.2q-.4 4.5-1.5 12-.4 2.6-2 19.8-1 8.8-.5 29.3.2 10.3 1.8 22.9 2 15.4 3.4 22.8 4.2 22.6 12.3 45 8.9 25 21.8 49.6 11 20.7 23.5 38.1 11.6 16.2 27 33.8 2.1 2.5 20.5 21.5 1.7 1.7 4 3.5c3.4 2.6 5.6 5.5 9 8.2q2.9 2.3 5.2 4.6l.8.6c2.9 1.8 5 4.2 7.4 6l17 12.6q7.5 5.5 14.3 9.6l14.8 9q9 5.2 21 10.6 18.4 8.5 36.3 14.7 20.8 7.2 50 12.8c4.9 1 11.3 1.5 15.1 2.1 4.4.7 8 .6 12.2 1q4.6.6 9.2.7h32.9q5.6-.1 11-.7l11-1c2.4-.2 4.2 0 6-.5l3.9-.6q16.6-2.1 33.3-6 40.5-9.6 77.6-28.4c10.1-5.1 18-9 25.6-14 9.8-6.2 22.2-14.3 32.4-22.3q22.6-17.5 42-39c2.2-2.4 5.2-5 7-7.3q19.8-24.7 31.2-44.2 13.6-23.3 21.7-43.7 9.1-23 14.3-42.5 6.4-23.6 9.6-50.7a300 300 0 0 0 1.7-33.6q0-15.9-2-34l-.2-.5z"/><path fill="#e1dfe0" d="m855.6 456 .1.4q2 18.3 2 34.1c.1 8.5-.3 22.3-1.6 33.6q-3.2 27-9.6 50.7-5.2 19.6-14.3 42.5-8 20.4-21.7 43.7-11.4 19.5-31.2 44.2c-1.8 2.2-4.8 4.9-7 7.3q-19.4 21.5-42 39c-10.2 8-22.6 16.1-32.4 22.4-7.6 4.8-15.5 8.8-25.6 14q-37.1 18.7-77.6 28.2-16.7 4-33.3 6l-3.9.7c-1.8.5-3.6.3-6 .5l-11 1q-5.4.6-11 .6-15.9.2-32.9 0-4.6 0-9.2-.5c-4.1-.5-7.8-.4-12.2-1-3.8-.7-10.2-1.2-15.1-2.2q-29.2-5.6-50-12.8-17.9-6.2-36.3-14.7-12-5.4-21-10.7-3.4-1.9-14.8-8.9-6.8-4-14.2-9.6L306.7 752c-2.3-1.8-4.5-4.2-7.4-6l-.8-.6q-2.3-2.3-5.2-4.6c-3.4-2.7-5.6-5.6-9-8.2q-2.3-1.8-4-3.5-18.4-19-20.6-21.5-15.3-17.6-27-33.8-12.5-17.4-23.4-38-13-24.7-21.8-49.6-8-22.5-12.3-45.1-1.3-7.4-3.4-22.8-1.6-12.6-1.8-23-.4-20.4.4-29.2l2-19.7q1.2-7.6 1.6-12c.5-4.2 1.3-7.4 2.2-12.3q8.3-47.9 33.1-93.4 2.3-4.2 7.3-12.6l7.7-12.2q14-20.9 30.6-39.1c2.7-3 4.7-4.4 7.2-6.7l1-1.2q2.5-4 6.4-7c5.9-4.7 10.1-8.8 17.4-15.3 4.1-3.7 7.7-6.2 12.8-10.3q6.9-5.6 13.4-10l14-9.1q7.2-4.5 19-10.8 9.3-5 14.8-7.4 20.6-9.3 26.7-11.5 12.6-4.6 29.3-10 14.8-4.6 35.7-8.2 25-4.3 48.2-5.3 12.7-.5 21.5 0l3.2.1q27.3 1.8 48.5 5.4 8.6 1.5 16.4 3.6c7.5 2 15 3.4 21.7 5.5q31.8 9.8 62.2 25.2 6.6 3.3 26.5 15.2c1.4.8 3 2.3 4.5 3.2q5.3 3 8.5 5.5c6.7 5.3 13.2 8.9 19.8 15 5 4.6 8.4 7 12.5 11 3.9 4 9.4 8.3 13.4 13.3 1.8 2.2 5 4.3 7 6.7 4.9 5.4 10.4 10.7 15.5 17.1q16.3 20.7 27 39.2 11.7 20.2 17.9 33.9 7.6 16.9 10 24.3l4.5 13.5q10.7 32.3 14 65.6zM506.8 807.2q.7-.2 12.4-.1 7.1 0 12.3-.5l17.2-1.6q5.7-.5 28-4.3c8.9-1.6 17.1-4 26.7-6.5 12.5-3.2 25.8-8.5 38.8-13.6 7.4-3 13.2-6 19.6-8.9q3.6-1.6 8.3-4.2 17.4-9.7 33.2-20.3c3.3-2.3 6-4.9 9.5-7a4.7 4.4 6.3 0 0 .8-.5c3.4-3.1 7.3-5.7 10.5-8.3q13.8-11.6 28-25.9 8.7-8.8 15.1-17l6.4-8.1q4.3-5.4 6.2-8.3l7.6-11.4q14.5-22 27.2-51.4 3.4-8.1 6.2-16.5 4.8-15 8.5-28.5c.8-2.8 1-5.3 1.7-7.9q.8-3 1.2-5.9l1.5-8.5q1.2-6.9 3-21.8c.7-6.9 1.3-15.9 1.2-24.3 0-7.2.2-14.6-.4-21.8l-.4-7q-.1-3.5-1-10.2-2.4-17-3.5-23.3-3.8-20.6-12.9-47.7c-3.1-9.5-8.7-20.8-11.7-28.5-2.1-5.5-5.4-10.6-8-16.1-2.4-5-5-8.4-7.5-13.1q-2.4-4.5-5.8-9.7-8.6-12.9-19.2-27-7.8-10.3-14.8-17.7-12.5-13.1-16.3-16.7-10.3-9.5-20-17-3.1-2.6-11.7-9-6.7-5-12.1-8.4-25.8-16.1-53.3-27.5-20.7-8.6-39.5-13.5-8-2.1-18.9-4.4-15.8-3.4-29.6-4.7l-10.2-1c-7.7-.9-14.8-.5-22.4-1.1-9.3-.8-19.7 0-28.8.7q-4.3.4-28 3.3l-10.8 1.7c-11.1 1.8-20.2 5.3-34.5 8.7q-5.4 1.3-11.5 3.9a5 4.8 25.8 0 1-.8.2q-3.4.8-7.3 2.7a4.7 4.5-64.6 0 1-.8.3q-3 .8-6 2-24 9-49.2 24.3-22 13.3-46.2 34a105 105 0 0 0-10 9.8q-1.8 1.9-6.4 6-3.4 3-6.2 6.1-7.2 8-13 14.9-5.3 6.5-10.6 14l-10 14.7-7.5 12.8q-19.7 34-30 71c-1.7 6.4-2.6 11.3-4.5 20q-1.8 8.3-3 15.3-5.2 32.3-2.9 66c.5 6.9 1.7 13.3 2.4 20.5q.6 6.2 2.4 15.2 4 19.4 8.4 33.3 6.5 20.3 12.6 34.1 8.3 18.6 20.2 38.1 12.4 20.4 34 46.7 6.4 7.8 15.7 17 13.8 13.7 16.6 16.2 8 7.2 22.9 19 8.9 7 11.5 8l.8.8q.4.6.8.8 22.4 14.2 32 19 17 8.3 29.1 13.2 48.2 19.6 103.1 22 1.2 0 2.7.4z"/><path fill="#040a02" d="m104.2 159.3-.1 2.4z"/><path fill="#e1dfe0" d="M172 161a27.7 26.7 54.5 0 1-.2 5.3q-1.6-2.2.1-5.2"/><path fill="#437d31" d="M104 161.7v1.3h.1z"/><path fill="#040a02" d="m104 163 .2 2.5V163z"/><path fill="#fefefe" d="M505.9 807.2q-1.5-.4-2.6-.5-55-2.3-103.2-21.9Q388 780 371 771.5q-9.6-4.7-32-19-.4-.1-.8-.7l-.8-.7q-2.6-1.1-11.5-8.2-14.8-11.7-23-18.9-2.7-2.5-16.5-16.2-9.3-9.2-15.7-17-21.6-26.3-34-46.7-12-19.5-20.2-38-6.1-14-12.6-34.2-4.5-13.9-8.4-33.3-1.8-9-2.4-15.2c-.7-7.2-1.9-13.6-2.4-20.5q-2.2-33.7 3-66 1.1-7 2.9-15.2c2-8.8 2.8-13.7 4.6-20.1q10.2-37 29.9-71 6.3-11 7.5-12.8l10-14.6q5.3-7.6 10.7-14.1 5.7-6.9 13-14.9 2.7-3.1 6.1-6.1 4.6-4.1 6.3-6c2.2-2.4 6.3-6.4 10.1-9.7q24.2-20.8 46.2-34.2 25.2-15.3 49.2-24.2 3-1.2 6-2a4.7 4.5-64.6 0 0 .8-.3q3.9-2 7.3-2.7a5 4.8 25.8 0 0 .8-.2q6-2.6 11.5-4c14.3-3.3 23.4-6.8 34.5-8.6l10.9-1.7q23.6-3 28-3.3c9-.7 19.4-1.5 28.7-.7 7.6.6 14.7.2 22.4 1.1l10.2 1q13.8 1.3 29.6 4.7 10.8 2.3 19 4.4 18.7 4.9 39.4 13.5 27.5 11.4 53.3 27.5 5.4 3.4 12.1 8.4 8.6 6.4 11.8 9 9.6 7.5 19.9 17 3.9 3.6 16.3 16.7 7 7.4 14.8 17.8 10.6 14 19.2 26.9 3.4 5.2 5.8 9.7c2.5 4.7 5.1 8 7.5 13 2.6 5.6 5.9 10.7 8 16.2 3 7.7 8.6 19 11.7 28.5q9 27 12.9 47.7 1.1 6.3 3.4 23.3 1 6.7 1 10.3l.5 6.9c.6 7.2.4 14.6.4 21.8.1 8.4-.5 17.4-1.3 24.3q-1.7 15-3 21.8l-1.4 8.5q-.4 3-1.2 6c-.7 2.5-1 5-1.7 7.8q-3.7 13.5-8.5 28.5-2.7 8.4-6.2 16.5-12.7 29.5-27.2 51.4l-7.6 11.4q-1.9 2.9-6.2 8.3l-6.4 8.1q-6.4 8.2-15.2 17-14 14.3-28 25.9c-3 2.6-7 5.2-10.4 8.3a4.7 4.4 6.3 0 1-.8.5c-3.5 2.1-6.2 4.7-9.5 7q-15.8 10.6-33.2 20.3-4.7 2.6-8.3 4.2c-6.4 3-12.1 6-19.6 8.9-13 5.1-26.3 10.4-38.8 13.6-9.6 2.4-17.8 5-26.7 6.5q-22.3 3.8-28 4.3l-17.2 1.6q-5.2.5-12.3.5l-12.4.1zm-2.8-635-3.2.1H498q-.9-.2-1.7.1-1.5 0-2.6.3l-1.2.1-1.3.1-4.2.4h-1q-.9-.3-1.2.2h-1.6q-1-.2-1 .2l-1 .2h-.7l-5.8.7h-.7l-1.3.2-.7.1-5 .7q-1-.2-1.7.2h-1.4q-41.9 6.7-79.4 22.1-38 15.6-71.7 41.9-14 11-21.9 17.9-4.2 3.8-11.7 11.5l-3.3 3.4q-20.1 21.1-35.8 46.2-16.8 26.8-27 52.7-7.8 19.8-11 33.5-4 16.3-5.7 26-3.6 20.2-4.5 43-.2 1 0 2-.5 18.3 1.5 36.5 8 75.4 49.7 138.7a358 358 0 0 0 87 93q36 26.3 78.6 42 34.5 12.8 70.8 17c6 .7 11.1.7 15.6 1.3q3.3.4 11.8.5 31.3.6 62.1-4.8h.7q50.7-9 94.7-31.6 32.3-16.5 62-41.4 29.4-24.4 51-54.4 24.9-34.8 40.2-76 6.3-16.8 10.5-35 4.8-20.4 7-44.6v-.7l1-18.3V491q.3-1.7 0-3.3l-1-19.2v-.8l-1.9-18v-.7l-1-6.3q-.2-.5 0-.7-5.7-35.2-19-68.4-16.4-40.5-42.7-75.4-4.7-6.1-9.2-12.4-12-15.6-26.8-28.8a318 318 0 0 0-102.6-63.4q-38-14.8-78.7-19.2-22.5-2.5-45.2-2.2z"/><path fill="#040a02" d="M734.5 257q0 1.3-1.5 0-10.6-9.7-22.2-18.4-19.1-14.7-40.5-26.1l-21.7-10.7q-17.7-7.5-28.1-11-18.9-6.5-44.8-11.3l-.5.4q-1 9-1.3 19.2l-.5 23.5q-1 15.6-6.6 34.8l.4.6q2.3.7 4.5.9a5.3 4.8-32 0 1 .9.1q24.4 7 33.7 11.2 6.5 3 12.8 5.6l15.3 8.1 2.5 1.5a.4.4 0 0 1-.1.6q-.4.2-1 0-45.4-25.8-97.3-30.8-8.2-.8-17.1-.7l-8-.6-.6-.6q.2-35.9-.2-68.1a1.2 1.2 82.7 0 0-1.5-1.2q-.7.2-1 1.3-.7 4.1-.7 10h-.4v52.5q1.1 2.3 0 5.2l-.1-.6-.1-.4q-.2-38.3 0-58 .1-7 .6-8.7l.6-2q.5-3.2 0-7.9a2.2 2 52.4 0 1 0-.9q.3-.7.3-1.3l-.7-.5q-.9 0-1.6-.5 22.7-.3 45.2 2.2 40.6 4.4 78.7 19.2A318 318 0 0 1 734.5 257"/><path fill="#e1dfe0" d="M498 172.4h-1.7q.8-.3 1.7 0"/><path fill="#040a02" d="M499.3 172.3q-.7.3-1.3.2v-.2zm3.8 0q-1.1.7-3.2 0zm-6.8.1h.3q-1.4.5-3 .3 1.2-.4 2.7-.3m-3.8.4q-.6.2-1.3.1z"/><path fill="#e1dfe0" d="m486 173.4-1 .2-.2-.1q.3-.5 1.2-.1"/><path fill="#040a02" d="m487 173.3-1 .1z"/><path fill="#e1dfe0" d="M483.2 173.5v.2h-1q0-.4 1-.2"/><path fill="#040a02" d="M484.8 173.5h.2l-1.7.2v-.2zm-3.6.4h-.7zm-6.5.7h-.7zm-2 .2-.7.1zm-5.7.8q-.8.2-1.7.2.8-.4 1.7-.2m-1.7.2q-.6.2-1.4 0z"/><path fill="#162e0e" d="M648.6 201.8q-6.1 12-9 22.6-4 15.2-5.5 20-4.8 16.4-15 31.4l-12.8-5.6Q597 266 572.6 259a5.3 4.8-32 0 0-.9-.1q-2.2-.2-4.5-.9l-.4-.6q5.6-19.2 6.6-34.8l.5-23.5q.3-10.1 1.3-19.2l.5-.4q26 4.8 44.8 11.2 10.4 3.6 28.1 11.1"/><path fill="#5dae43" d="M521.4 254.5q6 1.6 12.3 2l10.1.6q30 3.3 57.5 14.2 13.4 5.3 18 7.5 12.4 6 26.7 14.4 3.3 2 13.9 9.7 1.2-.3 3 1.8a1 1-44.5 0 0 1.6 0q20-23.2 35.1-50.3 3.6-6.5 11.2-15.8 11.6 8.7 22.2 18.3 1.5 1.4 1.5.1 14.8 13.2 26.8 28.8-.8 0-1.3.3c-5.5-3.5-12 2-16.7 4.7q-3.7 2.3-7.9 5.8-4.3 3.7-8.8 7.1-.2-2.4-3.3.6a.3.3 0 0 1-.4-.2q.3-4 2.6-7.8c2.9-5 5.2-7.9 7.5-12.7q1.9-4 4.2-7.6l-.1-.1q-4.2 3.3-12.2 10-21.3 18.3-34.4 30.1-18.5 16.8-28 25l-16.9 14.6L607 390l-32.6 27.9q-12.5 10.7-26.8 24.4l-15.5 14v.2h.4q.2-.4.5-.6a.3.3 0 0 1 .4.3c-.5 2.4-1.2 4.6 2.3 5l-12 9.8q-3-.3-2.4-2.5 1-13.7 5-26.3c1.6-4.8 4.4-10.3 6.4-15.6l1.5.5-4.7 11.6q-5.5 13-6.8 26.8 3.3.9 5-3.8a.8.7 21 0 0-.5-.9l-.3-.1a1 1-82.1 0 1-.7-1q-.1-1.4.5-3.8a84 84 0 0 1 5.3-15.8q2.7-5.8 5.8-11.4 3.8 1.7 7.4 4l.3.1.2-.2v-.5l-6.4-4q0-1.8-4.3-3.4-11.4-4-18.4-4.4-1 0-3.2.4l-.8.5q-1 1.1-2.2 1.2l-.2-.4h-.2q-.8-.2-.6.1l-.9-.2q.4-.4.2-.7t-.7-.2c-4.2.3-9 .7-13.5 2.5l-6 2.4q-6.9 2.8-13.6 8.5l-7.6 6.6q-5 4.5-6.8 10.7-4.4 7.5-6.6 16c-.8 3.3-.7 6.1-1.4 9.2-1.4 6.7 0 15.5 1.6 22q1.3 5.2 5.4 14.5l-.3.8q-2.6 1.6-4.7-1.4-3.1-4.5-4.6-8.7-2.7-8-3.2-15.6a1 1 87.8 0 0-.7-.6h-70.3a1 1 0 0 0-.7.7q1 27.8 13.5 53.5v.2l-7 4-.4-.1q-14.1-27.3-15-57.8l-.5-.5H282l-.5.4q.7 23.5 6.3 46.2a1.2 1 41.2 0 1 0 .3q0 1.6.7 4 11 38 32.6 68 7.7 10.6 17.6 21.5 7 7.6 14.8 14.6l.1.4-3.3 8-.3.1q-6-4.6-11.4-10a242 242 0 0 1-41-55.4q-23.6-45.3-25.2-97.5l-.6-.5H220a2.1 2-90 0 1-2-2.1v-.4a2.5 2.5 0 0 1 2.4-2.4H272a1 1 0 0 0 .6-.7q0-21.3 4.2-43.3 7.5-39.2 27.3-72.3a204 204 0 0 1 33-42.4v-.8l-61.1-51 3.3-3.3 14.8 12.5q22.4 18.6 44.3 37.4l1.3 1.6a1 1 0 0 0 1 0q15.5-14.5 30-24.6 33.7-23.3 75.2-34.3 6.8-1.9 24.6-5.2l5.5-.7 5.5-.7q9.3-1.5 27.5-1.4l.7-.4a.3.3 0 0 0-.2-.5l-.3.1q1-2.9 0-5.2l-.2-.4v-52l.1-.1h.3q0-5.9.8-10 .3-1.1 1-1.3a1.2 1.2 82.7 0 1 1.5 1.2q.4 32.2.2 68.1l.6.6zm-8.5 6.2v78.2l-.2.3a.4.4 0 0 0 .2.6q11 .6 18.8 1.6c21.2 2.5 40.3 10 58.9 20.2a.2.2 0 0 0 .3-.2l-.2-.8 3 2q8 4.9 14.7 11.5a2.2 2 76.6 0 0 .8.5q.8.3 1.2 1a1 1-40.9 0 0 1.3 0q26.4-29.8 51.4-62a.5.5 0 0 0 0-.8L649.6 302q.5-.1.5-.3v-.2l-.2-.2q-17-11.3-28.7-17.4a235 235 0 0 0-88.8-24.5q-4-.3-8 0c-3 0-7-.4-10.4.1q-2.5.4-1.2 1.2m-165.4 65-.3.6.1.6 60 52a1 1-46.2 0 0 1.4 0q10.2-9.7 21.9-17Q443 354 451 350.5q6.8-3 18.3-6.6c6.8-2.2 15.8-3.4 22.8-4.6q8.5-1.4 16.9-1.2l-.1-34.6-.1-12.5q.8-1.4 0-2.7v-3q.7-2.5 0-5V279q.7-1.5 0-2.7l-.2-14.8-.5-.5-4.4-.3q-3.9-1.2-8.3-.7l-16.3 1.9q-3 .3-5 .9c-3.2.8-6.4.7-9.8 1.5l-4.5 1-17.6 4.6q-6.2 1.5-20.2 6.8-4.3 1.6-6 2.5-2.5 1.3-5.9 2.7-3.9 1.7-8.6 4.3l-8.3 4.3c-5.7 2.9-9.6 5.6-17 10.2q-2.7 1.6-5.7 4.2-2.8 2.3-5.7 4.1a3.7 3.4 2.6 0 0-.8.6q-1.8 2-3.4 2.5l-.6.4-8.3 7.5-4.7 4.7a.5.5 0 0 0 .3.8zm-65.9 154.5.3 2.6.3.3h83l.6-.6c0-37 13-73.3 38.8-99.8a1 1-47.6 0 0 0-1l-60.7-52v-1a.3.3 0 0 0-.5-.2l-8 8a.4.2-25.1 0 0-.1 0l-5.8 6.6q-2.3 3.5-5.4 7.1l-3 4.3-2.9 4.2q-16.9 24.7-26.7 54.7-9 27.3-11.1 56.4-.4 5.3-.2 10.2a1 1-9.3 0 0 1.1.8zm133-95.8q-.3 0-.3.4v.3q3.7 2.9 6.8 5.6 4 4 18.3 16.2 10.6 9.1 27 24.3.5.5.7 1a.5.5 0 0 0 .8.3q10.2-9.1 23.1-14 7.3-2.7 17-2.9 2.1.4 2.1-.9v-12.2l.6 11.9-.3.9-.6.6a.4.4 0 0 0 .3.6l7 .5a64 64 0 0 1 29 9.6l.5-.1.3-.3 6 4.4h.8l21.2-22.4c7.3-7.7 17.7-21 27.2-31.2a.6.6 0 0 0-.2-.9q-4.2-2.3-6.4-5-5.7-5.6-13.2-9.7-18.3-10-37.8-14.3-4.2-.9-11-1.9-8.9-1.2-11.2-1.3-14.8-.2-26.5 1.4c-6.1.8-10 2-16.7 3.2q-7.5 1.5-13.7 4.3c-.4.2-1 0-1.6.3q-11.2 3.9-25.2 12.1L432 369a4.9 4.7 9.1 0 0-.7.6l-8.1 6.3q-3.6 2.6-8.5 7.2-.5.4 0 1.3m-3.2 4q-5.3 4.9-9.6 10.6-17.4 23.2-23.5 51.8c-.9 4.2-2.2 9.1-2.4 13 0 3.5-.7 6.3-.9 10.1q-.2 4.6-.1 8.3a1 1 89.7 0 0 1 1h69.7l.5-.5a68 68 0 0 1 18.8-47 .8.7 48.4 0 0 0-1l-2.5-2.8-35.3-31-15-12.6zm120.2 69a1.1.3-38.4 0 0-1 .4 1.1.3-38.4 0 0-.7 1 1.1.3-38.4 0 0 1-.5 1.1.3-38.4 0 0 .7-1M178.6 188l84.5 66.4q-1.2 2.7-3.7 4l-83-65a1 1-66.5 0 1-.3-.9q.1-.7.5-1.3 1.6-1.2.4-1.2zm667.8 4.8-82.5 64.1q-2.2-1-3.7-4l82.4-64.5z"/><path fill="#437d31" d="M176.6 191.2h-.7l1.1-1.2q1.2 0-.4 1.2"/><path fill="#264b1a" d="m648.6 201.8 21.7 10.7q-6.8 12.8-8.9 17.7c-8.8 21.6-15 36-27 53.7l-15.3-8q10.2-15 15-31.4l5.5-20q2.9-10.6 9-22.7"/><path fill="#fefefe" d="M144 235.2q-.3.5-.2 1l-2.2 23.5q-8 88.1-19.8 188.6l-.6.4q-9.1-2.2-18.9-2.8a1 1-85.5 0 1-.8-1l12.7-118q-.2-.4.1-.6l1.8-18.8v-1.2l1-9.3v-1.2l2-19v-1l1-9v-1.3l1-8.3.1-1.7 2-19v-1.2l2.8-27.4a1 1-79.5 0 1 1.4-1q3.5 1 6.2 1.2a6.6 6.1-32.3 0 1 1.6.2q4.8 1.5 10.5 2.1a.5.5 0 0 1 .5.6zm.4-22q0-.7-.6-1a1.3 1.2-18.3 0 0-.5-.3l-13.6-3a2 2 0 0 0-2.1 1.4q-1.2 8.6-1.6 15.8c-.1 3-.8 6-1.1 9.2q-1 12.5-1.7 17.1c-.2 2.1 0 4.6-.3 6.4q-.5 2-.7 4.3l-2.7 27.4q-2.2 21.2-4.5 45.7-.3 3-.8 5.9l-2.8 30.5c-.4 4.5-1.5 9-1.5 13.6l-.2 1.8q-1 6-1.5 11.4-.8 8.8-1.2 11.3-1.2 7-2 19.8-.2 2.2-.9 6.4-.7 5.2-1.1 6a1.1 1 16.6 0 0 .8 1.7l15.4 1.8a1.5 1.5-84.7 0 0 1.7-1.4l.5-6.2 3.8-35 7-66q.5-6.2 1.4-13.6 1.4-11.2 1.4-13.8 0-2.5 1-9.1.3-1.9.7-9.3.3-6.1 1.2-13.3.5-3.5 1.2-13.4c.1-2.8.8-6.2 1.1-9q1.8-20.6 4.2-43M900.1 431v-.7l-2-14.8v-.8l-4.9-41v-.7l-1-8v-1l-1-7.5v-.8l-1-8.2v-.8l-1-7.7-.1-.8-1-9.5v-1.2l-5.8-56.8q-.2 0-.2-.8l-1-9.6v-1l-1-9.3v-1.5l-1-9.8.1-.8-2.2-27a1 1 0 0 1 .6-.7q9.5-1 17.5-3.3a1 1 78.5 0 1 1 .6l1.8 15.3a.8.4-69.7 0 1 0 .1c0 4.2.8 7.9 1 11.4l2.6 26q1 8.8 2.6 26.2 2.4 25.2 15.4 134.6 1.6 13.5 3.2 23.5a1 1 0 0 1-.9 1.1q-8.4.5-16.5 3.1-1.2.4-2.1.4l-.6-.6zM879 212c-.3 3.6.7 6.8.7 10q0 5.1 1.2 14.7.2 1.6.1 2.8c-.1 2.3.6 4.4.7 6.4q.7 8.7 4.3 44.1c.5 5 1.6 11.2 2 16.8q.4 7 1 12.6l2.4 21.5L893 356l4.3 37.8q1.1 10.2 2.7 21.9 1.5 10.8 2.6 21.8c.3 3 .9 5.3 1.2 8.5a1.6 1.6 0 0 0 2 1.4q6.2-2.1 13.8-2.6a1.7 1.7 81 0 0 1.5-2.1q-1.5-5.6-2-11.5l-.8-6.7q-.6-3.5-4.1-33.8l-3.7-30-.7-7.4-.8-7.2q-.7-4.7-1.3-11l-5.2-49.3c-.2-1.3 0-2.9-.2-4q-2.7-22.2-5.7-54c-.6-6-1.6-11.3-1.8-17.3a1.5 1.5 0 0 0-1.9-1.4q-7 2-13.3 2.3a1 1 0 0 0-.7.7"/><path fill="#e1dfe0" d="M143.9 212.1q.6.4.5 1.2-2.4 22.4-4.2 43c-.2 2.8-1 6.2-1.1 9q-.7 9.9-1.2 13.4-.9 7.2-1.2 13.3-.4 7.4-.7 9.3-1 6.6-1 9.1 0 2.6-1.4 13.8-1 7.4-1.4 13.7l-7 65.9-3.8 35-.5 6.2a1.5 1.5-84.7 0 1-1.7 1.4l-15.4-1.8a1.1 1 16.6 0 1-.8-1.6q.4-.9 1.1-6 .7-4.3.8-6.5 1-12.7 2-19.8.5-2.5 1.3-11.3.5-5.4 1.5-11.4l.2-1.8c0-4.6 1.1-9.1 1.5-13.6l2.8-30.5.8-5.9q2.3-24.5 4.5-45.7.5-4 2.7-27.4.2-2.2.7-4.3c.4-1.8 0-4.3.3-6.4q.6-4.6 1.7-17.2c.3-3 1-6 1.1-9q.4-7.2 1.6-15.9a2 2 0 0 1 2.1-1.5l13.7 3a1.3 1.2-18.3 0 1 .4.3M879 212l.6-.6q6.2-.4 13.3-2.3a1.5 1.5 0 0 1 2 1.4c.1 6 1.1 11.3 1.7 17.4q3 31.7 5.7 53.8l.2 4.1 5.2 49.4q.6 6.2 1.3 10.9l.8 7.2.7 7.3q1.3 10 3.6 30.1 3.6 30.3 4.2 33.8l.8 6.7q.5 5.9 2 11.5a1.7 1.7 81 0 1-1.5 2q-7.6.6-13.7 2.7a1.6 1.6 0 0 1-2.1-1.4c-.3-3.2-.9-5.5-1.2-8.5q-1-11-2.6-21.8-1.6-11.7-2.7-21.9L893 356l-1.7-15-2.4-21.6q-.6-5.6-1-12.6c-.4-5.6-1.5-11.8-2-16.8q-3.6-35.4-4.3-44.1c-.1-2-.8-4.1-.7-6.4q.1-1.2-.1-2.8-1.2-9.6-1.2-14.6c0-3.3-1-6.5-.7-10"/><path fill="#437d31" d="M670.3 212.5q21.4 11.3 40.5 26-7.6 9.4-11.2 16-15 27-35.1 50.2a1 1-44.5 0 1-1.6 0q-1.8-2-3-1.8-7.8-7.6-16.5-12.3l-7.7-4.5h1a.4.4 0 0 0 .2-.7l-2.5-1.5c12-17.7 18.2-32.1 27-53.7q2-5 8.9-17.7"/><path fill="#040a02" d="M123.2 235.3v1.2z"/><path fill="#e1dfe0" d="m144 235.2-.2 1z"/><path fill="#040a02" d="m879.1 238.7.1-.8q-.1.4 0 .8m.9 11.3v-1.5z"/><path fill="#264b1a" d="M509 253.8q.3-.7 0-.8h.4a.3.3 0 0 1 .2.4z"/><path fill="#70c456" d="M635.7 286q2.5 1.7 7.7 4.6 8.7 4.7 16.5 12.3-10.6-7.8-13.9-9.7-14.3-8.3-26.7-14.4-4.6-2.2-18-7.5-27.5-10.9-57.5-14.2l-10-.6q-6.3-.4-12.4-2 9 0 17.1.7 51.9 5 97.2 30.9"/><path fill="#040a02" d="M121.2 255.5v1.7q-.2-.9 0-1.7"/><path fill="#70c456" d="m649.7 302-16-9.9a223 223 0 0 0-120.8-31.4q-1.3-.8 1.2-1.2c3.4-.6 7.4 0 10.4-.2q4-.2 8 .1a235 235 0 0 1 88.8 24.6q11.8 6 28.7 17.3l.1.2v.2q.1.2-.4.3"/><path fill="#040a02" d="m881 260.3.1-1z"/><path fill="#70c456" d="M503.7 260.8q-18.3 1.4-36 4.5c-7 1.2-13 3-19.7 4.6a219 219 0 0 0-51 20q-27 14.4-49.5 35.8h-.2a.5.5 0 0 1-.3-1l4.7-4.6 8.3-7.5.6-.4q1.6-.5 3.4-2.5a3.7 3.4 2.6 0 1 .8-.6q3-1.9 5.7-4.1 3-2.6 5.7-4.2c7.4-4.6 11.3-7.3 17-10.2l8.3-4.3q4.7-2.6 8.6-4.3 3.4-1.4 5.9-2.7 1.7-1 6-2.5 14-5.3 20.2-6.9l17.6-4.4q3.5-1 4.5-1.1c3.4-.8 6.6-.7 9.7-1.5q2.1-.6 5-1l16.4-1.8q4.4-.5 8.3.7"/><path fill="#040a02" d="m633.7 292.1.1.5a.3.3 0 0 1-.4.3l-9.7-5.1q-16.7-8.7-35.2-14.2c-5.3-2.4-11.5-3.7-17.3-5l-.6.4q-6.6 25.1-10.2 38.1-4.1 15.2-13.7 33.4a.4.4 23.6 0 0 .2.5l21.8 7 19.5 9.5 6.3 4.1a.4.4 0 0 1-.1.8l-.6.1-3.1-1.9Q555 339.1 512.9 339v-78.2a223 223 0 0 1 120.8 31.4m-513.6-26.7v1.3z"/><path fill="#162e0e" d="m588.5 273.6 10.6 4.5.4.6c-5 25-14.2 49.7-30.8 69.2l-21.8-7-.2-.4q9.6-18.2 13.7-33.4 3.6-13 10.2-38.1l.6-.4c5.8 1.3 12 2.6 17.3 5"/><path fill="#040a02" d="M882.3 270.7q-.3 0-.2-.8 0 .8.2.8"/><path fill="#264b1a" d="M588.5 273.6q18.5 5.5 35.2 14.2-5.4 22.3-17.2 41.6-8.8 14.2-18.3 28l-19.5-9.5a151 151 0 0 0 30.8-69.2l-.4-.6z"/><path fill="#040a02" d="M119.2 275.8v1z"/><path fill="#349416" d="m726.6 303.8-22.1 18.4q-31.2 26.2-62.7 52.1c-6.3 5.2-12.6 10.1-18 14.7q-23 19.4-51.2 42.4-2.2 1.9-6.6 5.2-3 2.1-6.6 5.1-11.8 9.8-23.8 19.3c-3.5-.3-2.8-2.5-2.3-4.9a.3.3 0 0 0-.4-.3q-.3.2-.5.6h-.4v-.3l15.5-13.9q14.3-13.7 26.8-24.4 29.5-25.2 32.6-28l38.7-34.2 16.9-14.6q9.5-8.2 28-25 13.1-11.9 34.4-30 8-6.9 12.2-10.1-2.2 3.7-4.1 7.7c-2.3 4.8-4.6 7.8-7.5 12.7q-2.3 3.9-2.6 7.8a.3.3 0 0 0 .4.2q3.1-3 3.3-.6"/><path fill="#437d31" d="M508.8 279q-.2-1.2 0-2.6.7 1.2 0 2.7m.1 6.2q-.5-2.4 0-4.9.6 2.5 0 5"/><path fill="#70c456" d="m760 286.1-63 50.7-.1.2q-.1.2.1.4l-1.3.2-.7.4-4.1 4.2-61.7 50.3-5.8 5.5-1 .4-54.6 44.3q-3.1 1.3-5.1 4.2L526.6 475l-.5.7-.4 2.3q.8 12.2-10.2 14.3-2 .4-8.7-1.4-5-3.7-4.7-9.5.3-7 7.6-10.5l10.4-.5c-.9-16.6 3.3-29 8.3-45.2q.8 0 1.8.6c-.3 5.5-3.5 10.7-5.1 15.3q-4.8 13.1-3.9 27.2-.6 2.2 2.4 2.5-.2.1-.2.4a.5.5 0 0 0 .9.4q12.3-10.3 24.8-20.4 5.3-4.3 7.1-6 4-3.5 7.2-5.9 5.3-3.7 11.2-8.4 15.6-12.7 21.7-17.9c8.2-7 13.9-11.2 22-18.3 10.7-9.4 26.6-21.6 38.3-31.3 3-2.6 6.5-5.8 9.3-8 14-11.4 26.2-22.3 39.9-33.2a.2.2 11.4 0 0-.3-.4l-1 .3 22.1-18.4q4.5-3.5 8.8-7.2 4.2-3.6 8-5.8c4.6-2.7 11.1-8.2 16.6-4.7"/><path fill="#437d31" d="m623.7 287.8 9.7 5.1a.3.3 0 0 0 .4-.3l-.1-.5 16 9.9 13.3 10.8.1.7q-25 32.3-51.4 62.1a1 1-40.9 0 1-1.3 0q-.4-.7-1.2-1a2.2 2 76.6 0 1-.8-.5q-6.7-6.6-14.6-11.6h.6a.4.4 0 0 0 .1-.9l-6.3-4.1q9.5-14 18.3-28.1 11.8-19.3 17.2-41.6M508.8 291q-.3-1.3 0-2.6.8 1.3 0 2.7"/><path fill="#040a02" d="M117.2 295.8v1.2z"/><path fill="#264b1a" d="m509 338.2-.1-34.6z"/><path fill="#040a02" d="M116.2 306.3v1.2z"/><path fill="#e1dfe0" d="m523.6 471 12-10q12-9.5 23.8-19.3 3.7-3 6.6-5.1 4.4-3.3 6.6-5.2 28.1-23 51.2-42.4c5.4-4.6 11.7-9.5 18-14.7l62.7-52 1-.4a.2.2 11.4 0 1 .3.4c-13.7 10.9-26 21.8-39.9 33.1-2.8 2.3-6.2 5.6-9.3 8-11.7 9.8-27.6 22-38.3 31.4-8.1 7.1-13.8 11.4-22 18.3q-6.1 5.2-21.7 17.9-5.9 4.7-11.2 8.4-3.2 2.4-7.2 6l-7.2 6q-12.5 10-24.7 20.3a.5.5 0 0 1-1-.4q0-.3.3-.4"/><path fill="#040a02" d="M114.3 326.3q-.3.2-.1.7-.2-.6.1-.7m773.8 2.4v-1.2z"/><path fill="#70c456" d="M343.9 329.6q-3.7 3.5-7 7.3-33.8 37.9-47.1 86.6l-.2.8q-7 25-8.1 53l.1 2.9-.3.6a1 1-9.3 0 1-1-.8q-.3-4.9 0-10.2 2.2-29 11.2-56.4 9.8-30 26.7-54.7l3-4.2 3-4.3q3-3.6 5.2-7v-.1l5.9-6.6 8-8a.3.3 0 0 1 .6.2z"/><path fill="#5dae43" d="M697 337.4q4.7 4.5 7.7 8.1 19 23.1 30.4 49.6 10 23 14.5 43.8 4.7 21.5 5.4 44l.3.3 48.7-.4a2.7 2.6 84.6 0 1 2.6 2.1v.3a3 3 2 0 1-2.9 2.7l-48.1-.2a.4.4 0 0 0-.5.4q0 13.5-1.3 24.3-2.7 24.5-10.6 49.3-13.6 42.2-43.5 75.8-7 7.9-15.8 14.9a1.3 1.3 0 0 1-2-.5l-2.5-6.3a3 3-32.5 0 1 .6-3c1.6-1.5 4-3 5.6-4.6 18-17.6 32.3-39 42.3-62 2.6-5.7 4.3-11.4 6.7-18.4q4-11.2 7-26.2 4-20.9 4.4-43a.5.5-89.4 0 0-.5-.6h-83.8l-.3.3c-.6 4-.2 8.2-.7 12.2q-1.7 13.4-3.9 21.3-3.3 12-9.3 24.3a1 1-58.4 0 1-1.2.3l-5.8-4.3a1 1-57.1 0 1-.3-1.3q1.7-3 3-6.6 8.5-22 9.7-45.5a1 1 0 0 0-.6-.7h-72.8l-.5.4q-.2 2.5-2 10-2.5 9.7-7.4 16a.6.6 0 0 1-1 0q-1-1.2-2.1-1.7l-.2-.7q9.4-18.8 6.7-39.3-2-14.1-10.3-25.6 2-2.9 5.1-4.2l3 5q5 8.3 7 17.3 1.2 5.4 1.9 18.3l.4.3 1.9-.3q12.1-.3 69.7-.1a1 1 11.7 0 0 .8-.5l.2-.5q1.6-2.2 1.1-6.2c-.7-5-1-10.5-1.8-15q-5.5-32.3-25.4-59.6-1.6-2.2-3.2-3v-.4l5.8-5.5 6.6 9.6q7.6 11.1 12.3 21.4a150 150 0 0 1 13.5 59.2.4.4 0 0 0 .4.4h83a1 1 0 0 0 1-1c-.7-11.8-1.7-23.7-4-35.6q-5.8-28.9-19-56-12.8-26.4-32.2-48.3l4-4.2.8-.4z"/><path fill="#040a02" d="M889.1 339v-.8q.1.4 0 .8"/><path fill="#70c456" d="M512.9 339q42.1.1 77.8 21.6l.2.8a.2.2 0 0 1-.3.2 161 161 0 0 0-58.9-20.2q-7.8-1-18.8-1.6a.4.4 0 0 1-.2-.6zm82.6 32-14.1-8.5q-32-17.7-68.3-17l-.3.3V415l.3.3q16.5.4 31 8.7l2.8 2-.2.4a.4.4 36 0 1-.6 0 65 65 0 0 0-29-9.5l-7-.5a.4.4 0 0 1-.3-.6l.6-.6a1 1-26.7 0 0 .3-1l-.6-11.8-.3-55.4a1 1 76.1 0 1 .5-.8l.3-.2a.3.3 0 0 0 0-.5q-1.4-.4-2-.2-17.3 1.5-31.4 5-29.4 7.5-53.8 26.7-4.5 3.6-8.8 7.3-.5-.9 0-1.3 5-4.6 8.5-7.2 5.6-4.2 8-6.3a4.9 4.7 9.1 0 1 .8-.6l6.8-3.8q13.9-8.2 25.1-12.1l1.6-.3q6.2-2.8 13.7-4.3c6.7-1.3 10.6-2.4 16.7-3.2q11.7-1.6 26.5-1.4 2.3 0 11.1 1.3 7 1 11.1 2 19.5 4.3 37.8 14.2 7.5 4.1 13.2 9.6"/><path fill="#437d31" d="m510 402.5.1 12.3q0 1.2-2 .8h.4a1 1 84.7 0 0 .6-.7l-.5-69.5q.6-.2 2 .3v.4l-.3.2a1 1 76.1 0 0-.5.8z"/><path fill="#040a02" d="m581.4 362.5-.9.8q-8.7-4.7-18.2-7.8-11-4.3-22.5-6-2.8-.4-4.2-.3l-.2.1-16.7 63.8a1 1 13.8 0 0 .5.8l9.8 2.3q7.2 2 13.6 6 2.6 1.5 1.4 1.9-14.4-8.3-30.9-8.7l-.3-.3v-69.4l.3-.2q36.3-.7 68.3 17m308.7-15v-.8z"/><path fill="#162e0e" d="M562.3 355.5q-14.7 31.3-33.3 60.7l-9.8-2.2a.7.7 13.8 0 1-.5-1l16.7-63.7.2-.1q1.4-.1 4.2.3 11.5 1.7 22.5 6"/><path fill="#264b1a" d="M562.3 355.5q9.5 3 18.2 7.8l3.4 1.9.2.7q-11.8 20-26.6 38.1l-14.9 18.1q-6.4-3.9-13.6-6 18.6-29.3 33.3-60.6"/><path fill="#040a02" d="M891.1 356.5v-.8z"/><path fill="#437d31" d="M595.5 371q2.2 2.8 6.4 5.1a.6.6 0 0 1 .2.9c-9.5 10.2-20 23.4-27.2 31.2l-21.2 22.3h-.7l-6.1-4.3-2.9-2.1q1.2-.4-1.4-2l15-18q14.7-18.1 26.5-38.2l-.2-.7-3.4-2 .9-.7z"/><path fill="#040a02" d="M892.1 365v-1zm1.1 8.7q-.2-.2 0-.7z"/><path fill="#162e0e" d="M623.4 398v.4l-.3.4-.6-.4z"/><path fill="#70c456" d="M623.4 398.4q1.6.8 3.2 3 20 27.3 25.4 59.7c.8 4.4 1.1 9.9 1.8 14.9q.5 4-1.1 6.2-1.1-47-29.6-83.4z"/><path fill="#040a02" d="M898.2 415.5q-.1-.4 0-.8z"/><path fill="#70c456" d="M539.2 428q-9.6-4.8-19-6-4-.6-7-.1l-.5.6v46.4a1 1 0 0 1-.7.8h-.8l-.4-.5-.5-46.9q1.3 0 2.2-1.2l.8-.5q2.2-.4 3.3-.4 7 .3 18.3 4.4 4.2 1.6 4.3 3.4m-30.8-6.2q-15.3 1.8-28.3 10-3.3 2.2-6.2 4.7l-5.7 5.2q-4.5 4.3-7.8 9.9 1.9-6.2 6.8-10.7l7.6-6.6q6.7-5.7 13.7-8.6l5.9-2.3c4.5-1.8 9.3-2.2 13.5-2.5q.5 0 .7.2t-.2.7"/><path fill="#162e0e" d="m510.3 422.3.5 47 .4.4h.8a1 1 0 0 0 .7-.8v-46.4l.5-.6q3-.5 7 0 9.4 1.3 19 6.1l6.3 4 .1.5q0 .2-.2.2h-.3q-3.6-2.4-7.5-4.1-.8-.8-1.8-1l-1.7-.6-1.5-.4q-1-.7-2.4-.7-1-.5-1.9-.6l-5.9-1.2-.6.5q-2.1 13.7-7.7 26.6l-.1.4-.2 16.8a1 1-1.6 0 0 .7.6q3.3-.2 5.6 1.5l-10.4.5-.4-49q-.2-.3.6-.2h.2q.3.3.2.5"/><path fill="#264b1a" d="M528.4 425.3c-5 16.2-9.1 28.6-8.3 45.2q-2.3-1.7-5.6-1.5a1 1-1.6 0 1-.7-.6l.2-16.8v-.4q5.7-13 7.8-26.6l.6-.5zm4.2 1.3c-2 5.2-4.8 10.7-6.3 15.4q-4 12.7-5 26.4-1-14.1 3.8-27.2c1.6-4.6 4.8-9.8 5.1-15.3q1.3 0 2.4.7m1.4.4 1.8.7c-1.8 4.4-4.4 8.7-6 12.7-3.2 7.9-5 16.5-7.2 25q1.3-13.8 6.8-26.8z"/><path fill="#437d31" d="M535.8 427.7q1 .1 1.9.9l-5.9 11.4a91 91 0 0 0-5.2 15.8q-.6 2.4-.5 3.8a1 1-82.1 0 0 .7 1l.3.1a.8.7 21 0 1 .4 1q-1.6 4.6-5 3.7c2.4-8.5 4-17.1 7.3-25 1.6-4 4.2-8.3 6-12.7"/><path fill="#040a02" d="M900.1 431v-.7z"/><rect width="9.6" height="1.4" x="-4.8" y="-.7" fill="#5dae43" rx=".7" transform="rotate(42.6 -330.7 831.4)"/><path fill="#040a02" d="M832.2 442.7q-.2-.6 0-.7-.2.2 0 .7m1 7v-.7z"/><path fill="#fefefe" d="M112.3 535.7q-.7 0-1 .3a42 42-43.4 0 1-22-.6 42 42 80.3 0 1-21.8-15.5 42 42-61.2 0 1-8-27.4 42 42 0 0 1 16.1-30.4 42 42 34.2 0 1 37.7-7.2 42 42 83.4 0 1 24.6 19.6 42 42-48.8 0 1 2.4 36.4 42 42 0 0 1-28 24.8m29.6-40.5a40.4 40.4 0 0 0-40.5-40.4A40.4 40.4 0 0 0 61 495.2a40.4 40.4 0 0 0 40.4 40.5 40.4 40.4 0 0 0 40.4-40.5m760.6-36a42 41.7-120.3 0 1 57.2 15.2 42 41.7-120.3 0 1-15 57.2 42 41.7-120.3 0 1-57-15.1 42 41.7-120.3 0 1 14.8-57.3m16.4-3.9a40.4 40.2-96.7 0 0-35.2 44.8 40.4 40.2-96.7 0 0 44.6 35.4 40.4 40.2-96.7 0 0 35.3-44.8 40.4 40.2-96.7 0 0-44.7-35.4"/><path fill="#e1dfe0" d="M141.9 495.2a40.4 40.4 0 0 1-40.5 40.5A40.4 40.4 0 0 1 61 495.2a40.4 40.4 0 0 1 40.4-40.4 40.4 40.4 0 0 1 40.4 40.4M77.3 471q-13.4 14.3-8.6 33.4 1.7 7 3.5 9l5.9 7.2.7.7q9 6.8 17.4 8.1 14.1 2.3 26.5-7.4c1.8-1.4 3-3.5 4.8-5.4 4.2-4.2 6.6-10 7.6-16a26 26 0 0 0 0-11.5q-3.6-16-17-23.6-2.7-1.6-3.7-1.9-2.3-.6-4.1-1.3-2.7-1.2-6.2-1.3a31 31 0 0 0-19.8 4.8q-6.1 4.3-7 5.2m841.5-15.7a40.4 40.2-96.7 0 1 44.7 35.4 40.4 40.2-96.7 0 1-35.3 44.8 40.4 40.2-96.7 0 1-44.6-35.4 40.4 40.2-96.7 0 1 35.2-44.8m-6.7 7.7a34.3 33.8-109.5 0 0-20.4 43.7 34.3 33.8-109.5 0 0 43.3 21 34.3 33.8-109.5 0 0 20.4-43.6 34.3 33.8-109.5 0 0-43.3-21"/><ellipse fill="#437d31" rx="1.1" ry=".3" transform="rotate(-38.4 923 -533)"/><path fill="#040a02" d="M169.2 459v1z"/><path fill="#fefefe" d="M77.3 471q.9-1 7-5.2a31 31 0 0 1 19.8-4.8q3.5.1 6.2 1.3 1.8.7 4 1.3 1 .3 3.9 2 13.3 7.6 17 23.5c1 4.3.6 6.9-.1 11.5-1 6-3.4 11.8-7.6 16-1.8 1.9-3 4-4.8 5.4q-12.4 9.7-26.5 7.4-8.4-1.4-17.4-8.1l-.7-.7-6-7.1q-1.7-2-3.4-9-4.8-19.2 8.6-33.5m24.1 57a18.7 10-3 0 0 2.6 0 33 33 17.6 0 0 22.7-11.8 33 33 0 0 0 7.2-25.9 33 33 0 0 0-22-26.1 33 33-51.6 0 0-27.7 3.2A33 33 0 0 0 69 498.3a33 33 13.9 0 0 14.8 24.5 33 33 61.5 0 0 17.7 5.2m810.6-65a34.3 33.8-109.5 0 1 43.3 21.1 34.3 33.8-109.5 0 1-20.4 43.6 34.3 33.8-109.5 0 1-43.3-21 34.3 33.8-109.5 0 1 20.4-43.7m10.4 65.2a32.7 31.6 31.2 0 0 4.5-.2 33 32.4 76.7 0 0 27.5-22.3 32.9 32.4 76.2 0 0 .3-19 32.9 32.4 76.5 0 0-28.3-24.1 32.9 32.4 76.2 0 0-30.4 15 32.9 32.4 76.5 0 0 .5 35.8 33 32.4 76.5 0 0 25.9 14.8"/><path fill="#040a02" d="M835.1 468.5v-.8z"/><ellipse fill="#70c456" rx="27.3" ry="26.9" transform="rotate(-96 273.6 201.8)"/><path fill="#70c456" d="M908.9 517.6q-6-6.6-10.7-14.4a27.3 26.8 70.6 0 1 1.8-20.8 27.2 26.8 70.3 0 1 14.8-13 27.3 26.8 70.5 0 1 25.8 4.8A27.3 26.8 66.8 0 1 950 490a27.3 26.8 70.6 0 1-3.4 19.5 27.2 26.7 71.7 0 1-13 11 27.2 26.8 70.7 0 1-24.9-2.9"/><path fill="#040a02" d="M168.1 472.3v4.9z"/><path fill="#e1dfe0" d="M191.9 474v2q-.2-1 0-2m333.9 4.2q.9 2.5.6 5.2-.3 2.5-2.1 4.8-6.7 8.6-17.5 2.8 6.7 1.8 8.7 1.4 11-2.1 10.3-14.2"/><path fill="#70c456" d="M836.1 491v-3.3q.3 1.6 0 3.3"/><path fill="#040a02" d="M836.1 491v1zm-667.9 6.5V496zm667.9.7V496z"/><path fill="#e1dfe0" d="M908.9 517.6a27.3 26.8 70.4 0 1-10.7-14.4q4.6 7.8 10.6 14.4"/><path fill="#fefefe" d="M516.8 594h-7.5a41 40.1 2.3 0 1-15-4.4 41 40-2.2 0 1-21.2-27 41 40-2.6 0 1 10.7-36.3 41 40-2.4 0 1 38.8-11.2 41 40-2.4 0 1 26.7 20 41 40-2.9 0 1 0 37.8 41 40-2.3 0 1-32.5 21m35.3-44.9a39.3 38.3-7.2 0 0-43.8-33 39.3 38.3-7.2 0 0-34.2 42.9 39.3 38.3-7.2 0 0 43.8 33 39.3 38.3-7.2 0 0 34.2-42.9"/><path fill="#e1dfe0" d="M552.1 549.1A39.3 38.3-7.2 0 1 518 592a39.3 38.3-7.2 0 1-43.8-33 39.3 38.3-7.2 0 1 34.2-43 39.3 38.3-7.2 0 1 43.8 33.1m-69.7-5.1a32.4 32-162 0 0 21 40.4A32.4 32-162 0 0 544 564a32.4 32-162 0 0-21-40.5 32.4 32-162 0 0-40.7 20.5"/><path fill="#040a02" d="M835.2 516.5v.7q-.2-.3 0-.7"/><path fill="#fefefe" d="M482.4 544a32.4 32-162 0 1 40.7-20.5 32.4 32-162 0 1 21 40.5 32.4 32-162 0 1-40.8 20.4 32.4 32-162 0 1-21-40.4m30.1-20.3a30.8 30.3 4.6 0 0-27.5 18 30.8 30.4 3.5 0 0-1.7 19.6 30.8 30.3 4.5 0 0 20.5 21.6 30.9 30.4-1.6 0 0 12.6 1.3 9.3 3-8.3 0 0 1.3-.2 30.7 30.3 4.4 0 0 25.4-23 30.7 30.3 4.7 0 0-1.6-18.7 30.8 30.3 4.4 0 0-24.7-18.4 14.5 6 6.1 0 0-2-.2 6.7 1 .5 0 0-1 0 9 2-1.5 0 0-1.3 0"/><path fill="#040a02" d="M513.8 523.7h-1.3a9 2-1.5 0 1 1.3 0"/><path fill="#e1dfe0" d="m516.8 523.9-2-.2a14.5 6 6.1 0 1 2 .2M104 528a18.7 10-3 0 1-2.6 0zm823 0a32.7 31.6 31.2 0 1-4.5.2zm-814.7 7.7a7.5 2-15.4 0 1-1 .3q.3-.3 1-.3"/><path fill="#fefefe" d="M920.7 543.8a.4.4 0 0 1 .4.4q-5.6 29.1-15.2 59.3Q880 685 828.5 753.7l-.8.1-12.7-11.2a2.6 2.3 75.4 0 0-.5-.3q-1-.5-2.8-1.8l-.2-.7c.8-1.5 2.5-3.1 3.6-4.6q27.9-38.7 48.2-81.8 12.4-26.3 21.9-55.9 9.2-28.7 15.2-58.1a.5.5 22.3 0 1 .8-.3c1.2.7 2.9 1.9 4.3 2.4q7.8 2.6 15.3 2.3m-19-1.6q-2.6 10.5-3.5 13c-.2.6 0 1.5-.3 2.3q-6.7 28.4-16.9 56.9-10 28-23.5 54.4-19.3 37.4-43.4 70.2a1 1 0 0 0 .1 1l1.8 1.9.2.2 10.5 9.2a1.4 1.4-50.7 0 0 2-.2q2.5-3.2 11.8-16.9a493 493 0 0 0 45.6-82.7q7-16.3 11-27.2 7.5-20.1 15.5-50.3 4.5-16.7 6.2-26.5.4-2.2-1.8-2.3-8-.3-14.6-3.4a.5.5 0 0 0-.7.4m-798.9 2.3a1 1 4.4 0 1 .7-.7c6.3.4 12.5-1.8 18.7-3.9l.7.4q2.9 14.2 8 33.2a487 487 0 0 0 35.7 92.4q20 39 46.4 73.8a.6.6 0 0 1-.2.9q-7.4 4-13.8 10.6a3.2 3-84.6 0 1-.5.4l-2 1.4a1 1 0 0 1-1.4-.2L191 747a496 496 0 0 1-62-113q-13.3-33.7-21.5-66.5-3.2-12.5-4.5-21.1zm92.4 206.1a2 2 48 0 0 2.2.2q2.3-1.7 5.3-5a27 27 0 0 1 7.6-5.2 1.2 1.2 0 0 0 .5-1.7c-1.2-1.9-3-3.4-4.5-5.5q-13.7-19.3-26.5-40.5-1.8-2.9-10.5-18.5-5.5-9.9-9.7-18.8-15.4-32.7-26.4-68.6-4-13-5.8-20.6-2.7-10.5-5.7-23.2a1.2 1.2-15.7 0 0-1.5-.9q-6.8 2.3-14 3a2 2 89 0 0-1.4 1.5q0 1.4.3 3 5.9 28.5 15.3 56.3 8.4 25 18.2 47.2 9 20.2 21.8 43.7 2.7 5 4.6 8c4 6.4 7.2 12.5 11.9 19.3l16.8 24.6q.9 1.2 1.5 1.7m258.4-174.3a35 35 0 0 1-35 35 35 35 0 0 1-34.9-35 35 35 0 0 1 35-35 35 35 0 0 1 35 35m-1.7 0a33.3 33.3 0 0 0-33.4-33.3 33.3 33.3 0 0 0-33.3 33.3 33.3 33.3 0 0 0 33.3 33.4 33.3 33.3 0 0 0 33.4-33.4m121.3-6.7a35.4 35-169 0 1 41.5-27.5 35.4 35-169 0 1 28 41 35.4 35-169 0 1-41.4 27.6 35.4 35-169 0 1-28-41m1.3 5.7a33.6 33.5-178.2 0 0 32.5 34.5 33.6 33.5-178.2 0 0 34.6-32.4 33.6 33.5-178.2 0 0-32.5-34.5 33.6 33.5-178.2 0 0-34.6 32.4"/><path fill="#e1dfe0" d="M901.7 542.2a.5.5 0 0 1 .7-.4q6.6 3 14.6 3.4 2.2 0 1.8 2.3-1.7 9.8-6.2 26.5-8 30.1-15.4 50.3-4 11-11 27.2a505 505 0 0 1-45.7 82.8q-9.3 13.6-11.8 16.8a1.4 1.4-50.7 0 1-2 .2l-10.5-9.2-.2-.2q-.7-1-1.8-2a1 1 0 0 1 0-.9q24-32.8 43.3-70.2 13.6-26.4 23.5-54.4 10.2-28.5 17-57 0-1.2.2-2.2 1-2.5 3.5-13M195.3 750.6q-.6-.5-1.5-1.7L177 724.3c-4.7-6.8-7.8-13-11.9-19.3q-1.9-3-4.6-8-12.9-23.5-21.8-43.7-9.7-22.2-18.2-47.2-9.4-27.8-15.3-56.2-.4-1.7-.3-3.1a1.6 1.6 89 0 1 1.5-1.6q7-.6 14-2.9a1.2 1.2-15.7 0 1 1.4.9q3 12.7 5.7 23.2 1.9 7.6 5.8 20.6 11 35.9 26.4 68.6 4.2 9 9.7 18.8Q178.1 690 180 693q12.8 21.2 26.5 40.5c1.5 2.1 3.3 3.6 4.5 5.5a1.2 1.2 0 0 1-.5 1.7 27 27 0 0 0-7.6 5.3q-3 3.2-5.3 4.9a2 2 48 0 1-2.2-.2m379.3-175.4a33.6 33.5-178.2 0 1 34.6-32.4 33.6 33.5-178.2 0 1 32.5 34.5 33.6 33.5-178.2 0 1-34.6 32.4 33.6 33.5-178.2 0 1-32.5-34.5m60.6 1a27.3 27.3 0 0 0-27.3-27.2 27.3 27.3 0 0 0-27.3 27.3 27.3 27.3 0 0 0 27.3 27.3 27.3 27.3 0 0 0 27.3-27.3m-183.3-.1a33.3 33.3 0 0 1-33.4 33.4 33.3 33.3 0 0 1-33.3-33.4 33.3 33.3 0 0 1 33.3-33.3 33.3 33.3 0 0 1 33.4 33.3m-38.3-26.7a27 27-100.5 0 0-21.7 31.7 27 27-100.5 0 0 31.7 21.9 27 27-100.5 0 0 21.6-31.7 27 27-100.5 0 0-31.6-21.9"/><path fill="#fefefe" d="M413.7 549.6a27 27-100.5 0 1 31.6 21.9 27 27-100.5 0 1-21.6 31.7 27 27-100.5 0 1-31.7-21.9 27 27-100.5 0 1 21.7-31.7m8.8 1.5a25.6 25.4-81.4 0 0-29 21.5 25.6 25.4-81.4 0 0 21.3 29.2 25.6 25.4-81.4 0 0 28.9-21.6 25.6 25.4-81.4 0 0-21.2-29m212.8 25.2a27.3 27.3 0 0 1-27.3 27.3 27.3 27.3 0 0 1-27.3-27.3A27.3 27.3 0 0 1 608 549a27.3 27.3 0 0 1 27.3 27.3m-27.9-25.6a26 26-82.4 0 0-24 18.3 25.8 25.7-35 0 0-1 5.6 26 26 0 0 0 2.8 13.4 26 26-9.5 0 0 19.3 13.8 26 26 0 0 0 24.2-10.2 26 26 49.7 0 0 2.2-27 26 26-10.1 0 0-19.8-13.8 25.4 25.2 47.4 0 0-3.7-.1"/><path fill="#e1dfe0" d="m611 551-3.6-.2a25.4 25.2 47.4 0 1 3.7.1"/><path fill="#70c456" d="M517.7 584a9.3 3-8.3 0 1-1.3.1z"/><path fill="#e1dfe0" d="M516.8 594a42 40.7 15.8 0 1-7.5 0z"/><path fill="#fefefe" d="m587.8 666.8.2.8q.3 29.9 0 59.9c0 7.4-5.2 12-12 14.5q-16.8 6.2-34.7 7.8-1.1-.2-1.6.2l-6.4.6q-1.1-.3-1.3 0l-1.8.3H529q-1.6-.3-3.3 0-11.2.8-22.4 0-1.3-.4-2.8 0H498l-9.2-1q-1.1-.4-2.6 0h-1c-14.1-2.3-22.8-3.6-34.6-7.8q-11.8-4.2-11.9-16.9-.2-21.9 0-50.3 0-12.2 1.7-18.7 2.8-10.9 6.6-17.6 14.1-25 41.6-34.5 5.7-2 13.5-3 7.4-1.1 13.8-.8a76 76 0 0 1 57 29.6 68 68 0 0 1 14.9 36.9m-33.3-52.3a81 81 0 0 0-14.7-7.6q-17.5-6.2-35.3-4.5-8 .8-19 4.7c-2 .6-3.2 1.7-5.2 2.4q-1.7.7-3.8 1.9c-4.4 2.5-7.9 5.3-11.6 8q-3.5 2.5-6.6 6-13.2 15-16.7 34.6c-.6 3.5-.5 7-1 10.2q-.4 3.2-.2 7.6.4 10.3.3 13.7-.6 16.7.2 33.6.2 6.3 1.7 9 2.2 3.9 7 5.8 9.8 3.9 21 5.8c1.8.3 3.1.2 4.5.7q1.3.4 3.3.6l10.4 1.1c8.6 1 16.5.9 25.4 1.4 5.4.3 10.8-.6 17.3-.8q12-.5 31.8-4.4 3.6-.7 7-2c5.8-2.2 9.7-3.7 13-6.7 2.4-2.3 3-6.4 3.1-9.9q-.2-11.6 0-21 .3-17-.2-37.5 0-2.3-.2-3.3c-.6-3-.6-5-1.5-8.1a65 65 0 0 0-9.4-20.3l-4.1-5.7q-6-7.4-12-11.9z"/><path fill="#e1dfe0" d="m554.5 614.5 4.6 3.4q6 4.5 11.9 11.9l4.1 5.7a65 65 0 0 1 9.4 20.3c.9 3.1.9 5.1 1.5 8.1q.2 1 .2 3.3.5 20.6.2 37.6-.2 9.2 0 21c0 3.4-.7 7.5-3.1 9.8-3.3 3-7.2 4.5-13 6.8q-3.4 1.2-7 2-19.9 3.8-31.8 4.3c-6.5.2-11.9 1.1-17.3.8-8.9-.5-16.8-.4-25.4-1.4l-10.4-1q-2-.3-3.3-.7c-1.4-.5-2.7-.4-4.4-.7q-11.3-2-21.2-5.8-4.7-2-6.9-5.8-1.5-2.7-1.7-9-.8-16.9-.2-33.6l-.3-13.7q-.1-4.4.3-7.6c.4-3.2.3-6.7 1-10.2q3.4-19.6 16.6-34.7 3-3.4 6.6-6c3.7-2.6 7.2-5.4 11.6-8q2.1-1.1 3.8-1.7c2-.8 3.3-1.9 5.1-2.5q11-4 19-4.7 17.9-1.7 35.4 4.5a81 81 0 0 1 14.7 7.6M452 716v12.6q0 4.8 4.6 6.5c8.5 3.2 15.4 4 26.2 5.8q7.5 1.2 13.6 1.3c6.1 0 13 .7 19.5.4l21.8-.7a4.9 4.5 34.7 0 0 1-.1c3-.8 5.6-.7 9.2-1.3 7.3-1 15.2-2.1 21.7-5q5-2 5-7.7c.5-19.6-.3-39.4.3-57.8.1-5.6-1.4-11.5-2.9-16.7-2.4-8.8-7-17-13.3-23.7q-4.3-4.5-6.4-6.4-7-6.2-17.4-10.3l-6-2q-3.4-1-6.2-1.4-26.3-3.5-47.2 11.3-3 2.2-5.8 5.1-4 4-5.2 5.8-8.6 12-11.7 26.3c-1 4.7-1 9-1.1 14.5z"/><path fill="#fefefe" d="M452 716q-.4-42.3-.3-43.5c.2-5.4 0-9.8 1-14.5q3.2-14.3 11.8-26.3 1.3-1.8 5.2-5.8 2.8-2.9 5.9-5 20.8-15 47-11.4 2.9.4 6.2 1.4 4.6 1.4 6 2 10.6 4.1 17.5 10.3 2.1 1.9 6.4 6.4a57 57 0 0 1 13.3 23.7 58 58 0 0 1 2.9 16.7c-.6 18.4.2 38.2-.2 57.8q-.1 5.7-5.1 7.8c-6.5 2.8-14.4 3.8-21.7 5-3.6.5-6.2.4-9.3 1.2a4.9 4.5 34.7 0 1-.9.1l-21.8.7c-6.4.3-13.4-.4-19.5-.4q-6-.1-13.6-1.3c-10.8-1.8-17.7-2.6-26.2-5.7q-4.6-1.8-4.6-6.6zm1.4 12.7c0 3.3 3.2 5.3 6 6q13.8 3.5 26.3 4.8 38 4 75.3-2.8c4.6-.8 12.1-2.3 12.2-7.7q.2-7.4.2-56.5 0-21.1-11.2-36.8-10.2-14.3-26.5-21c-25.7-10.3-58-2-73 22.3q-9.4 15.3-9.5 32.5-.1 28.9.2 59.2"/><path fill="#349416" d="M459.4 734.7c-2.8-.7-6-2.7-6-6q-.3-30.3-.2-59.2 0-17.2 9.5-32.5c15-24.4 47.4-32.6 73-22.2q16.3 6.6 26.5 20.9 11.2 15.7 11.2 36.8 0 49-.2 56.5c0 5.4-7.6 6.9-12.2 7.7q-37.4 6.8-75.3 2.8-12.5-1.3-26.3-4.8m-1.9-2.4q1.6 1.2 3.8 1.7 16.3 4 33 5.2 20.4 1.5 48.1-.9 3.2-.2 6.7-.9c4.3-.8 8.2-1 12.4-2q.7 0 5.6-1.2 2.6-.6 4.8-3.5a1.3 1.2 60.4 0 0 .3-.9v-25.2l.2-32.3q0-10.3-2-16.8-3.1-10.5-8-17.7-10.4-15.7-30.2-21.5-12.8-6.6-30-3.3-15.2 2.9-25.8 10.8-6.7 5-11.6 12.9-5 7.8-7.7 15.7-.2.5-1.6 8.4-.7 3.9-.5 8.5.4 7.8.1 20.8c-.3 14.4-.2 26.4 0 39.7l.3.9q.8 1 2.1 1.6"/><path fill="#5dae43" d="M532.2 616.3q-3.6-.2-7.3-.7-5.4-.8-7.3-.8c-9 .1-18 1.3-26.2 6q-8.3 4.7-10.5 6.6-7 6-12.1 13.6c-2.3 3.5-3.6 8-5.3 11.2a58 58 0 0 0-5 23q-.4 8.4-.4 45-.1 6-.6 12-1.3-.6-2.1-1.5l-.4-.9c0-13.3-.2-25.3.1-39.7q.3-13 0-20.8-.3-4.6.4-8.5 1.4-7.9 1.6-8.4 2.8-8 7.7-15.7 4.9-7.9 11.6-12.9 10.6-8 25.8-10.8 17.2-3.3 30 3.3"/><path fill="#70c456" d="M532.2 616.3q19.8 5.8 30.2 21.5 4.9 7.2 8 17.7 2 6.5 2 16.8c0 12.6-.3 22-.3 32.3v25.2a1.3 1.2 60.4 0 1-.2 1q-2.2 2.8-4.8 3.4l-5.6 1.3c-4.2 1-8.1 1.1-12.4 2q-3.5.6-6.7.9-27.7 2.3-48.1.8-16.7-1.3-33-5.2-2.2-.5-3.8-1.7.5-6.1.6-12 0-36.7.4-45a58 58 0 0 1 5-23.1c1.7-3.2 3-7.7 5.3-11.2q5-7.6 12.1-13.6 2.2-1.9 10.6-6.7a52 52 0 0 1 26-5.9q2 0 7.4.8 3.7.5 7.3.7"/><path fill="#fefefe" d="M418 615.3q.3.1.8 0a62 62 0 0 1 33.7 7.8.5.5 0 0 1 0 .9l-1.4 1-.7 1q-1 2.2-2.8 4.2a1 1 0 0 1-1 .2q-13.4-5.2-30.6-4.8c-20 .5-40.3 10.5-46 30.4q-2 6.6-1.8 20.2.1 10.9-.1 23.5 0 2 1.4 3.9 3.5 4.4 10 4.4H432l.7.5q.6 1.3.2 3v5.7q.5 2-.9 2h-53.7q-6 0-13-4.5-4.6-2.9-6.8-7.9-1.4-3-1.4-9.5v-31.5a59 59 0 0 1 10.3-27.7c11.8-16 31-22.5 50.6-22.8m-22.2 11.5-4.3 1.7a.3.3 0 0 0-.2.4.3.3 0 0 0 .5.2q10.8-4.8 21-5.1 9.6-.4 15.3.2t16.8 3.9a3.3 3.3 0 0 0 4.1-2.2v-.1a3.3 3.3 17.7 0 0-2-4.1q-8.1-2.8-11.2-3.2a87 87 0 0 0-44 3.5.4.4 0 0 0-.1.7l4.2 3.6a.3.3 0 0 1-.1.5m-5.5-3.6a.3.3 0 0 0-.3-.5q-12.4 5.6-21 16l-.3.5q-.3.8-.8 1.5c-7 8.8-8.9 21-8.8 32.3l-.2 27.8a4.3 4-54 0 0 .1 1.1q1.6 6.4 4.2 9.1 2.5 2.7 8.6 5c3.7 1.3 7.5 1 13 1.2l45.4.1a1 1 0 0 0 1-1v-5.5a1 1 0 0 0-1-1q-29.5-.1-48.8.3-6.5.1-11.5-3.5-3.7-2.7-3.7-7-.1-13.7.3-32.6 0-7 2-12.9 1.1-3.4 3.9-8.3 1.9-3.3 5-6.4 5.8-5.8 12.5-9.4a.4.4 44.3 0 0 0-.6h-1.2a.5.5 0 0 1-.5-.8q.6-.7.2-1.2a1.4 1.4-49.5 0 0-2 .3q-1.7 2.3-4 4.3a1 1 50.3 0 1-1 0q-.2-.5 0-1 1.6-3.3 5.2-5 2.3-1 3.7-2.9"/><path fill="#040a02" d="M418.8 615.4h-.9z"/><path fill="#e1dfe0" d="M609.3 615.4h-1z"/><path fill="#040a02" d="M610 615.4h-.8z"/><path fill="#fefefe" d="M608.3 615.4h1.7l8 .5q17.6 1.4 31.7 11.5 15.6 11 20.4 29.7 1.8 7 1.6 17.1v18.2q0 9.5-.3 10.7c-2 10-12.3 16-22.1 16h-53.5l-.5-.5-.1-3.3v-.8l-.3-5.9.6-.5h52q6.8 0 8.4-1 3.5-2 4.9-6.2a2.7 2.5-37.3 0 0 0-.7q.3-7.2 0-31.5-.2-24.5-21.2-36-10.6-5.9-23.6-6.9h-.7l-5.6-.2h-2.5c-9.6 0-20.2 1.3-28.8 5.5a1 1 0 0 1-1.3-.5q-1-2.2-1.5-5.3-.2-1-1.1-1.2a1 1-57.3 0 1-.3-1.5q.8-.6 2.2-1.2 15.3-6.4 31.9-6M597 710.6v6a1 1 0 0 0 .7.8q20.8-.2 46-.1c3.3 0 6.4-.3 10.5-.5a6 5.8-51.4 0 0 1.1-.2c7.3-1.7 14.5-8 14.5-15.9v-29l-.2-4c-.4-3.5-.4-6.7-1.2-10.1q-4-16.6-16.6-26.6-7.7-6.1-17.6-10l-1-.3q-3.7-.6-6.7-1.7l-.9-.3q-11.2-1.7-20.9-1.5-13.6.2-27.2 5.4a2 2 68.9 0 0-1 2.2l1.3 3.4a1.6 1.6 0 0 0 2.2.8q6.2-3 12-4 19.1-3.3 37.6 1.5c2.6.7 4.7 2.1 7 2.7q1.9.5 5 2.7 8.7 6 13.3 12 2.6 3.4 5.6 10.7 1.2 3.1 1.7 7.6.7 6.6.7 7.8v24.8c0 6.4-.6 10.4-5.7 13.5q-2.4 1.5-9.7 1.5-25.6-.1-49.7 0a1 1 0 0 0-.8.8"/><path fill="#e1dfe0" d="m395.9 626.3-4.2-3.6a.4.4 0 0 1 .1-.7 87 87 0 0 1 44-3.5q3 .4 11.1 3.2a3.3 3.3 17.7 0 1 2.2 4v.2a3.3 3.3 0 0 1-4.2 2.2q-11-3.3-16.7-3.9-5.8-.6-15.4-.2-10.2.3-21 5a.3.3 0 0 1-.5 0v-.1a.3.3 0 0 1 .2-.4l4.3-1.7a.3.3 0 0 0 0-.5M597 710.6a1 1 0 0 1 .8-.8q24.1-.1 49.7 0 7.3 0 9.7-1.5c5.1-3.1 5.8-7.1 5.7-13.5V670q0-1.2-.7-7.8-.5-4.5-1.7-7.6-3-7.3-5.6-10.7-4.6-6-13.4-12-3-2.2-4.9-2.7c-2.3-.6-4.4-2-7-2.7q-18.5-4.8-37.6-1.5-5.8 1-12 4a1.6 1.6 0 0 1-2.2-.8l-1.3-3.4a2 2 68.9 0 1 1-2.2q13.6-5.2 27.2-5.4 9.7-.2 21 1.5l.8.3q3 1.1 6.8 1.7l.9.2q10 4 17.6 10 12.7 10.1 16.6 26.7c.8 3.4.9 6.6 1.2 10l.3 4-.1 29.1c0 7.8-7.2 14.2-14.5 16a6 5.8-51.4 0 1-1.1 0c-4.1.3-7.2.6-10.6.6q-25-.1-45.9.1a1 1 0 0 1-.7-.7zm-206.7-87.4q-1.4 1.8-3.7 2.8-3.7 1.7-5.2 5-.2.5 0 1a1 1 50.3 0 0 1 0q2.3-2 4-4.3a1.4 1.4-49.5 0 1 2-.3q.4.5-.2 1.2a.5.5 0 0 0 .5.8h1.2a.4.4 44.3 0 1 0 .6q-6.7 3.6-12.4 9.4-3.2 3.1-5.1 6.4-2.8 4.9-4 8.3-1.8 5.8-2 12.9-.3 18.9-.2 32.5 0 4.4 3.7 7 5 3.8 11.5 3.6 19.3-.4 48.9-.2a1 1 0 0 1 1 1v5.4a1 1 0 0 1-1 1l-45.6-.1c-5.4-.2-9.2.1-12.9-1.2q-6-2.3-8.6-5t-4.2-9a4.3 4-54 0 1-.1-1.2l.2-27.8c0-11.4 1.9-23.5 8.8-32.3q.5-.7.8-1.5l.2-.4q8.7-10.5 21-16a.3.3 0 0 1 .4.4"/><path fill="#040a02" d="M609.7 625.6h-2.5zm6.3.3h-.7zm-258.8 39.9-.1 1zm230.8 1.8-.2-.8z"/><path fill="#e1dfe0" d="M432.9 711.5v2.8zm0 5.7v-2.7z"/><path fill="#040a02" d="M595.1 714.5v.8z"/><path fill="#fefefe" d="M275.6 786.8a40 40 0 0 1-23.4 35.3q-14 6.6-29.6 2.3a41 41 0 0 1 3.8-80q16-2.9 29.2 5a40 40 0 0 1 20 37.4m-78.8 13.7q7.9 16.2 24.5 22 3 1 5.9 1.4l6 .8q9 0 16-2.8 3-1.2 9.6-5.2l.2-.2 6.8-6.5a4.8 4.6-6.6 0 0 .6-.8q8.4-12.5 7.7-27.6c-.2-2.3-1-4.2-1-6.4a3.3 3.1 38.7 0 0-.1-.9q-5-17-19.2-24.2-9-4.5-19.6-4.6c-10 0-23.4 4.4-30 12.4q-6.2 7.5-9 17.4-2 7-.4 18.2c.3 2.1 1.3 4.2 1.8 6.4zm635-11.6q-.2.6-.1 1.3a41.7 41.1 19.3 0 1-20.4 30.4 41.7 41 18.8 0 1-40.7.3 41.7 41.1 18.5 0 1-21.9-35.9 41.7 41.1 17.2 0 1 7.8-24.5 41.7 41.1 18.5 0 1 38.3-16.6 41.7 41 16.8 0 1 20.4 8.1 41.7 41.1 18.5 0 1 16.6 36.9m-81.2-8.6a40 39.6-173.5 0 0 35.4 44 40 39.6-173.5 0 0 44.3-34.9 40 39.6-173.5 0 0-35.4-43.9 40 39.6-173.5 0 0-44.3 34.8"/><path fill="#e1dfe0" d="M196.6 800c-.5-2.3-1.5-4.4-1.8-6.5q-1.6-11.1.4-18.2 2.8-10 9-17.4c6.6-8 20-12.5 30-12.4q10.7 0 19.6 4.6 14.3 7.2 19.2 24.2a3.3 3.1 38.7 0 1 0 .9c.1 2.2 1 4 1 6.4q.8 15.1-7.6 27.6a4.8 4.6-6.6 0 1-.6.8l-6.8 6.5-.2.2q-6.5 4-9.6 5.2-7 2.8-16 2.8-1.3 0-6-.8-2.8-.4-6-1.5-16.5-5.7-24.4-22zm70.5-23.5q-2.7-9.1-8.2-14.6-6-6-14.4-9.2-6.6-2.6-13.3-1.6-8.3 1.2-15.8 5.9-2 1.3-3.3 2.6c-2.5 2.9-4.9 4.7-7 8q-5 8.4-5 18.5l.1 1c.8 3 .8 5.5 1.7 8.3q2.7 8.2 8.7 13.8 2 2 5.4 3.9 4.8 2.7 6 3.2 7.8 2.9 13.7 2.6 4.4-.3 10.8-2.5 4.4-1.7 8-4.7 4.9-4.4 6.6-6.6 5.3-7 7-16.6.9-5.3-1-12m483.5 3.8a40 39.6-173.5 0 1 44.3-34.8 40 39.6-173.5 0 1 35.4 44 40 39.6-173.5 0 1-44.3 34.7 40 39.6-173.5 0 1-35.4-43.9m48.8-27.9c-10.3-3.8-23.1 0-31.4 7q-2.1 2-4.5 5.2-3.5 5-3.8 5.8-6.2 15.7.4 28.8 6.6 13 21.6 18.4 2.3.8 6 1 4.5.4 5.9.2a39 39 0 0 0 21.2-11.1 31 31 0 0 0 8.8-28.3q-1-5.2-5.1-12.3c-1.7-3-3.8-4.7-6-7-3.8-3.7-8-5.8-13-7.7"/><path fill="#040a02" d="M486.2 749.9h-1z"/><path fill="#e1dfe0" d="m488.8 750-2.6-.1q1.5-.4 2.6 0m52.5-.1q-.7.2-1.6.2.4-.4 1.6-.2m-8 .8H532q.2-.3 1.3 0"/><path fill="#fefefe" d="M267 776.5q2 6.7 1 12-1.6 9.5-7 16.6-1.6 2.2-6.6 6.6-3.5 3-8 4.6-6.3 2.3-10.7 2.6-6 .3-13.7-2.6-1.2-.5-6-3.2-3.4-2-5.4-3.9-6-5.6-8.7-13.8c-.9-2.8-.9-5.3-1.7-8.3l-.1-1q0-10 5-18.5c2.1-3.3 4.5-5.1 7-8q1.2-1.3 3.3-2.6 7.5-4.7 15.8-6 6.7-1 13.3 1.7 8.4 3.3 14.4 9.2 5.5 5.5 8.2 14.6m-35 40.7a7 1 1.7 0 0 1 0 32 32-68.3 0 0 25.6-11 32 32 64.7 0 0 8-22.2 32 32 20.8 0 0-10.2-22.6 32 32 54.9 0 0-35-6.1 32 32-9 0 0-19.3 26.5 32 32-70.4 0 0 14.3 30 32 32 63.8 0 0 15.6 5.4"/><path fill="#040a02" d="M500.5 750.9H498z"/><path fill="#e1dfe0" d="m503.3 751-2.8-.1q1.5-.4 2.8 0m25.7 0h-3.3q1.7-.3 3.3 0"/><path fill="#040a02" d="M530.2 750.9H529z"/><path fill="#fefefe" d="M799.4 752.4c5 2 9.3 4 13 7.7 2.3 2.3 4.4 4 6 7q4.2 7.1 5.1 12.3c2 10.6-1.2 20.6-8.7 28.3a39 39 0 0 1-21.2 11.1q-1.4.2-6-.1-3.6-.3-5.9-1.1-15-5.4-21.6-18.4t-.4-28.8q.3-.7 3.8-5.8 2.4-3.3 4.5-5.1c8.3-7.1 21-11 31.4-7m-9 64.6a11.2 5-2.3 0 0 1.7 0 32.2 32 32.5 0 0 10.2-2.3 32 32 0 0 0 20.2-28.5 32 32 0 0 0-4-16.7 32 32-12.3 0 0-25.7-16.6 5.5 1 1.8 0 0-.8 0 32 32 19.4 0 0-27.5 13 32 32-26 0 0-6.2 17.9 32 32-63.5 0 0 7.1 21.3 32 32-19.5 0 0 25 12"/><path fill="#040a02" d="M792.8 752.9h-.8a5.5 1 1.8 0 1 .8 0"/><circle cx="234.3" cy="784.8" r="26.6" fill="#70c456"/><path fill="#70c456" d="M789.5 811.2q-.6-.2-1.3 0a26 26-28.3 0 1-10.5-3.2 26 26 4.2 0 1-12-14 26 26 37.9 0 1-1.6-12 26.5 26.4 79.4 0 1 14.2-20.7 27 27-61.5 0 1 9.5-2.8 26 26-25 0 1 21.6 7.9 26 26 0 0 1 7 13.6 26 26-35.3 0 1-3 18 26 26 15.9 0 1-23.9 13.2"/><path fill="#e1dfe0" d="M831.8 788.9a9.4 2-83.7 0 1-.1 1.3z"/><path fill="#040a02" d="M569.7 800.2h-.7q.4-.2.7 0"/><path fill="#fefefe" d="M281 806.1a1 1 0 0 1 1.6-.2c5.8 5 12.1 9.3 18.8 14.4q29.4 22.4 67.4 44.6 52 30.5 107.9 56.1l33.8 15.8a3 3-44.6 0 0 2.3 0c33.7-15.7 69.7-32.4 103-50q49-25.7 92.3-56.2 17.1-12.1 35.5-25.8l.5.1q4.9 9 11.7 15.6a1 1 48.3 0 1 0 1.2q-52 39.6-107.5 71.1-16 9-42.7 23-41.2 21.4-88.2 43.3-2.6 1.2-5.7 2.3h-1c-2.1-.9-3.9-1.3-5.9-2.3q-51.4-25-61-30-3.7-1.8-29-15-50.5-26.2-97.4-58c-15.9-10.7-31.8-22.8-47-34.2a1 1 0 0 1-.2-1.4q6.2-6.6 10.8-14.4m.3 2.3-8.8 11.9a1 1 0 0 0 .2 1.4c3.5 3.2 8 5.9 11.5 8.6q17 13.3 39.3 28 23.6 15.6 39.1 24.8c4.7 2.8 8.6 5.7 13.2 8q.4.1 11 5.9l19.5 10.8c7.3 4.1 13.3 6.9 19.9 10.4Q433 922 441 926l38.6 19 26 13q5.4 2.7 10.5 0 9-4.5 15-7.3 31.1-14.5 73-36 37.8-19.6 55.5-30.2 15.5-9.3 26.2-16 22.8-14.3 53.7-36.6l13-9.6a1.7 1.7 52.7 0 0 .4-2.4l-9.3-11.7a1 1 0 0 0-1.3-.2L699 838.6c-3.6 3.3-8.2 5.7-14 9.5l-21 13.2q-10.2 6.3-21.5 12.7-26.8 15.2-53.7 28.5-17 8.4-33 16c-11.1 5.4-20.7 9.5-30.3 14.3-3.4 1.7-7.7 3.2-11.4 5.3q-2.2 1.2-4.1.2c-9.2-4.6-17-7.5-25.7-11.8l-14-6.4-13.9-6.6q-38-18.6-72.8-37.9c-3.6-2-6-3.7-9.3-5.4q-2.5-1.3-7-4l-28.6-17.8q-6.2-4-16-10.7-6-4-9.3-6.7c-2.4-2-6.2-4.2-9.2-6.6q-10.2-8-21.8-16.2a1 1-53.7 0 0-1 .2"/><path fill="#e1dfe0" d="M281.3 808.4a1 1-53.7 0 1 1.1-.2q11.6 8.3 21.8 16.2c3 2.4 6.8 4.6 9.2 6.6q3.4 2.7 9.2 6.7l16.1 10.7 28.6 17.8q4.5 2.7 7 4c3.3 1.7 5.8 3.5 9.3 5.4q34.8 19.3 72.8 38 6.2 3 14 6.5l14 6.4c8.5 4.3 16.4 7.2 25.6 11.8q2 1 4-.2c3.8-2.1 8.1-3.6 11.5-5.3 9.5-4.8 19.1-9 30.2-14.3q16-7.6 33-16 27-13.3 53.8-28.5 11.3-6.4 21.5-12.7l21-13.2c5.8-3.8 10.4-6.2 14-9.5l43.4-30.7a1 1 0 0 1 1.3.2L753 820a2 2 52.7 0 1-.3 2.3l-13.1 9.6q-31 22.3-53.7 36.6-10.7 6.7-26.2 16Q642 895 604 914.6q-41.8 21.5-73 36-5.9 2.8-14.9 7.4-5.1 2.6-10.5-.1l-26-13-38.6-19-15-7.7c-6.5-3.5-12.5-6.3-19.8-10.4L386.7 897l-11-6c-4.5-2.2-8.4-5.1-13-7.9q-15.6-9.2-39.2-24.8-22.3-14.7-39.3-28c-3.5-2.7-8-5.4-11.5-8.6a1 1 0 0 1-.2-1.4z"/><path fill="#040a02" d="M789.5 811.2a9.2 4 4.3 0 1-1.3 0q.7-.2 1.3 0"/><path fill="#e1dfe0" d="M233 817.2a7 1 1.7 0 1-1 0zm559-.2a11.2 5-2.3 0 1-1.5 0z"/><path fill="#040a02" d="M562.7 823.8q-.4.1-.8 0z"/><path fill="#e1dfe0" d="m485.3 826-1.6-.1q1-.3 1.6 0"/><path fill="#040a02" d="m544.8 825.8-.8.1z"/></svg>